<?xml version="1.0" encoding="UTF-8"?>
<svg id="Layer_1" data-name="Layer 1" xmlns="http://www.w3.org/2000/svg" viewBox="0 0 500 500">
  <defs>
    <style>
      .cls-1, .cls-2 {
        fill: #ebebeb;
      }

      .cls-3 {
        fill: #eb996e;
      }

      .cls-4, .cls-5 {
        fill: #f5f5f5;
      }

      .cls-6 {
        fill: #fff;
      }

      .cls-7 {
        fill: #fafafa;
      }

      .cls-8 {
        fill: #ffbe9d;
      }

      .cls-9 {
        fill: #ff725e;
      }

      .cls-10, .cls-11 {
        fill: #e0e0e0;
      }

      .cls-12 {
        fill: #455a64;
      }

      .cls-13 {
        fill: #263238;
      }

      .cls-14 {
        fill: #339135;
      }

      .cls-15 {
        fill: #5cbb61;
      }

      .cls-16 {
        opacity: .2;
      }

      .cls-17 {
        opacity: .3;
      }

      .cls-11, .cls-2, .cls-5 {
        fill-rule: evenodd;
      }
    </style>
  </defs>
  <g id="freepik--background-complete--inject-6">
    <path class="cls-7" d="M94.25,167.89h-4c-.41-.04-.83,0-1.22,.13-.63,.26-1.08,.83-1.19,1.5-.03,.24-.03,.48,0,.72v.74c.01,.26,0,.52-.05,.77-.11,.54-.43,1.01-.9,1.3-.24,.15-.52,.25-.8,.28h-15.63c-.2,0-.39-.02-.58-.06-.39-.09-.74-.31-1-.62-.27-.3-.44-.69-.49-1.09v-1.22c.04-.4,0-.8-.12-1.19-.28-.8-1.05-1.31-1.89-1.26h-9.38c-.93-.03-1.86,.14-2.72,.51-.88,.4-1.66,.98-2.28,1.72-.62,.75-1.06,1.63-1.28,2.58-.06,.24-.08,.49-.12,.73s0,.41,0,.62v99.52c-.07,2.09,.93,4.08,2.65,5.27,1.18,.8,2.58,1.18,4,1.09h40.66c1.28-.07,2.51-.55,3.51-1.36,.49-.4,.92-.87,1.27-1.4,.34-.52,.6-1.1,.77-1.7,.17-.6,.25-1.22,.24-1.85v-99.35c.02-.86-.13-1.71-.45-2.5-.28-.68-.68-1.31-1.18-1.85-.41-.45-.88-.84-1.41-1.15-.71-.43-1.5-.71-2.32-.82-.28,0-.49,0-.63-.06h-3.46Z"/>
    <path class="cls-7" d="M445.92,167.89h-4.05c-.41-.04-.83,0-1.22,.13-.63,.27-1.07,.83-1.19,1.5-.02,.24-.02,.48,0,.72v.74c.02,.26,.02,.51,0,.77-.11,.54-.44,1.01-.91,1.3-.24,.15-.51,.25-.79,.28h-15.62c-.2,0-.4-.02-.59-.06-.39-.1-.74-.31-1-.62-.27-.31-.44-.69-.5-1.09v-1.22c.04-.4,0-.8-.12-1.19-.28-.8-1.05-1.31-1.89-1.26h-9.34c-1.92-.08-3.76,.73-5,2.2-.62,.75-1.06,1.63-1.28,2.58-.07,.24-.08,.49-.13,.73s0,.41,0,.62v99.55c-.03,.68,.06,1.35,.24,2,.4,1.35,1.25,2.51,2.41,3.31,1.18,.8,2.58,1.18,4,1.09h40.67c1.28-.08,2.51-.55,3.51-1.36,.49-.4,.92-.87,1.27-1.4,.34-.52,.6-1.1,.77-1.7,.17-.6,.25-1.22,.24-1.85v-99.34c.04-1.61-.55-3.16-1.63-4.35-.41-.45-.88-.84-1.41-1.15-.71-.43-1.5-.71-2.33-.82-.27,0-.48,0-.63-.06h-3.55l.07-.05Z"/>
    <path class="cls-11" d="M216.31,88.4c.28,1.78,.33,3.58,.13,5.37l4.14,2.8-3,7.69-4.9-.69c-1.05,1.46-2.3,2.77-3.7,3.9l1,4.88-7.54,3.35-3-4c-1.78,.29-3.58,.33-5.37,.13l-2.78,4.14-7.69-3,.72-4.93c-1.45-1.06-2.76-2.31-3.89-3.71l-4.89,1-3.34-7.54,4-3c-.28-1.78-.33-3.58-.13-5.37l-4.14-2.77,3-7.7,4.93,.72c1.05-1.46,2.3-2.77,3.7-3.89l-1-4.89,7.52-3.32,3,4c1.78-.28,3.58-.32,5.37-.13l2.78-4.14,7.69,3-.72,4.93c1.46,1.05,2.77,2.3,3.89,3.7l4.89-1,3.34,7.53-4,3v-.06Zm-11.84-.06c-1.98-4.47-7.21-6.48-11.68-4.5s-6.48,7.21-4.5,11.68c1.98,4.47,7.21,6.48,11.68,4.5,0,0,.01,0,.02,0,4.46-1.98,6.47-7.2,4.49-11.65,0,0,0-.01,0-.02Z"/>
    <path class="cls-5" d="M210.31,43.69c.18,1.17,.21,2.37,.09,3.55l2.73,1.84-2,5.08-3.26-.47c-.7,.96-1.52,1.83-2.45,2.57l.64,3.23-5,2.21-2-2.64c-1.17,.18-2.37,.21-3.55,.09l-1.83,2.73-5.09-2,.48-3.26c-.96-.7-1.83-1.52-2.58-2.45l-3.23,.64-2.21-5,2.64-2c-.19-1.17-.21-2.37-.08-3.55l-2.61-1.69,2-5.09,3.26,.48c.7-.96,1.52-1.83,2.45-2.57l-.71-3.28,5-2.21,2,2.64c1.17-.19,2.37-.22,3.55-.09l1.84-2.74,5.08,2-.48,3.26c.97,.7,1.83,1.52,2.58,2.45l3.23-.64,2.21,5-2.64,2-.06-.09Zm-7.82,0c-1.31-2.96-4.76-4.29-7.71-2.99s-4.29,4.76-2.99,7.71c1.3,2.95,4.75,4.29,7.7,2.99,2.96-1.28,4.32-4.72,3.03-7.68-.01-.03-.02-.05-.03-.08v.04Z"/>
    <path class="cls-11" d="M352.74,374.64c.33,2.09,.39,4.21,.16,6.31l4.85,3.25-3.48,9-5.78-.84c-1.23,1.71-2.69,3.24-4.34,4.56l1.13,5.74-8.84,3.91-3.44-4.66c-2.08,.33-4.2,.39-6.3,.16l-3.26,4.85-9-3.48,.85-5.78c-1.71-1.24-3.25-2.7-4.57-4.34l-5.73,1.13-3.99-8.88,4.68-3.49c-.33-2.08-.38-4.2-.15-6.3l-4.86-3.21,3.48-9,5.78,.85c1.24-1.71,2.7-3.25,4.35-4.57l-1.13-5.73,8.85-3.95,3.49,4.68c2.09-.33,4.21-.38,6.31-.15l3.25-4.86,9,3.48-.84,5.78c1.71,1.24,3.24,2.7,4.56,4.35l5.74-1.13,3.92,8.83-4.69,3.49Zm-13.87-.07c-2.32-5.24-8.45-7.6-13.68-5.28-5.24,2.32-7.6,8.45-5.28,13.68,2.32,5.24,8.45,7.6,13.68,5.28,0,0,0,0,0,0,5.23-2.32,7.59-8.45,5.27-13.68Z"/>
    <path class="cls-5" d="M329.4,428.19c.19,1.21,.22,2.45,.09,3.67l2.83,1.89-2,5.26-3.37-.49c-.72,1-1.57,1.89-2.53,2.66l.66,3.34-5.15,2.28-2-2.73c-1.21,.19-2.45,.22-3.67,.09l-1.9,2.83-5.26-2,.5-3.36c-1-.72-1.89-1.58-2.66-2.54l-3.34,.66-2.35-5.18,2.73-2c-.19-1.21-.22-2.45-.09-3.67l-2.83-1.9,2-5.25,3.37,.49c.73-1,1.6-1.9,2.57-2.67l-.66-3.34,5.15-2.28,2,2.73c1.21-.2,2.45-.23,3.67-.09l1.9-2.83,5.25,2-.49,3.37c.99,.72,1.89,1.57,2.66,2.53l3.34-.66,2.29,5.15-2.73,2,.02,.04Zm-8.08,0c-1.38-3.01-4.94-4.34-7.95-2.97-3.01,1.38-4.34,4.94-2.97,7.95,1.36,2.97,4.84,4.31,7.84,3.02,3.06-1.35,4.45-4.93,3.1-7.99,0-.02-.02-.03-.02-.05v.04Z"/>
    <path class="cls-2" d="M243.44,68.44c.17,1.06,.2,2.13,.08,3.2l2.48,1.66-1.77,4.59-2.94-.43c-.63,.87-1.38,1.65-2.21,2.33l.57,2.92-4.5,2-1.77-2.38c-1.06,.17-2.14,.19-3.21,.08l-1.67,2.46-4.59-1.77,.43-3c-.87-.61-1.66-1.34-2.34-2.16l-2.92,.58-2-4.5,2.38-1.78c-.17-1.06-.19-2.14-.08-3.21l-2.47-1.65,1.77-4.6,3,.43c.63-.87,1.37-1.65,2.21-2.32l-.58-2.92,4.5-2,1.78,2.39c1.06-.17,2.14-.2,3.21-.08l1.66-2.47,4.54,1.76-.41,3c.87,.63,1.65,1.38,2.32,2.21l2.92-.57,2,4.5-2.39,1.78v-.05Zm-7.06,0c-1.2-2.66-4.32-3.85-6.98-2.65-2.66,1.2-3.85,4.32-2.65,6.98,1.19,2.64,4.29,3.83,6.94,2.67,2.67-1.17,3.9-4.28,2.73-6.95-.01-.03-.03-.06-.04-.09v.04Z"/>
    <path class="cls-1" d="M420.91,400.87c3.74-1.76,7.95-2.27,12-1.46,2.18,.36,4.45,1,5.93,2.65s1.77,4.51,.07,5.92c-1.1,.74-2.42,1.07-3.74,.95-3.18,0-6.7-.6-9.23,1.31-1.45,1.09-2.41,2.9-4.14,3.44-1.78,.41-3.61-.41-4.5-2-.82-1.59-1.01-3.44-.51-5.16,.42-2.42,1.94-4.51,4.12-5.65Z"/>
    <path class="cls-1" d="M412.54,384.72c2.23,3.19,6.57,2.13,8.59,.18s2.86-4.77,3.63-7.46c1.77-6.14,3.56-12.59,2.24-18.85-.31-1.9-1.15-3.68-2.41-5.13-1.29-1.46-3.27-2.12-5.18-1.73-2.19,.58-3.55,2.72-4.54,4.76-2.9,6.02-4.41,12.61-4.44,19.29,0,3.11,.36,6.37,2.11,8.94"/>
    <path class="cls-1" d="M406.41,389.29c2.33-3.04,3-7.04,1.8-10.68-1.22-3.58-3.41-6.75-6.32-9.17-3.31-2.94-7.16-5.21-11.33-6.69-1.61-.65-3.35-.94-5.09-.86-1.76,.1-3.37,1.07-4.28,2.58-1.19,2.28-.05,5,1.19,7.29,2.18,3.96,4.67,7.75,7.44,11.32,2.23,2.88,4.78,5.72,8.18,7s6.93,1.15,8.73-1.21"/>
    <path class="cls-10" d="M412.39,432.83c.12-.48,.18-.96,.2-1.45,.1-1.06,.23-2.39,.39-4,.19-1.95,.49-3.88,.89-5.8,.52-2.33,1.22-4.63,2.1-6.85,.87-2.22,2.05-4.3,3.5-6.19,1.18-1.54,2.69-2.79,4.42-3.68,1.17-.58,2.43-.97,3.72-1.15,.49-.02,.97-.09,1.45-.21-.49-.06-.98-.06-1.47,0-1.34,.1-2.66,.44-3.88,1-1.82,.86-3.42,2.13-4.67,3.71-1.51,1.92-2.73,4.05-3.62,6.32-.9,2.27-1.6,4.61-2.09,7-.37,1.94-.63,3.9-.78,5.87-.12,1.68-.17,3-.19,4-.04,.48-.03,.96,.03,1.43Z"/>
    <path class="cls-10" d="M412.66,429.78c.02-.22,.02-.45,0-.67v-1.92c0-1.67,0-4.09,.08-7.07,.15-6,.66-12.38,1.65-21.43,.94-8.51,2.2-18.41,3.53-24.85,.29-1.47,.58-2.79,.85-3.94s.48-2.15,.69-3,.33-1.38,.45-1.87c.06-.22,.1-.44,.12-.66-.1,.2-.19,.41-.24,.63-.14,.48-.33,1.09-.56,1.84s-.5,1.79-.79,2.94-.62,2.47-.93,3.93c-1.65,7.61-2.89,15.31-3.71,23.06-1,9.07-1.44,17.33-1.48,23.3,0,3,0,5.41,.1,7.08,.05,.79,.09,1.42,.12,1.93,0,.24,.05,.47,.12,.7Z"/>
    <path class="cls-10" d="M412.7,413.86c.05-.67,.05-1.33,0-2-.08-1.29-.25-3.16-.62-5.44-.44-2.68-1.03-5.32-1.77-7.93-.86-3.21-1.97-6.35-3.31-9.39-2.3-5.6-5.6-10.74-9.74-15.16-.72-.76-1.48-1.47-2.29-2.13-.35-.29-.66-.59-1-.83l-.89-.61c-.53-.41-1.1-.77-1.69-1.08,1.95,1.53,3.8,3.18,5.54,4.94,4,4.46,7.22,9.57,9.5,15.11,1.32,3.02,2.43,6.13,3.33,9.3,.87,2.91,1.45,5.59,1.89,7.85s.65,4.11,.8,5.39c.03,.67,.11,1.33,.25,1.98Z"/>
    <polygon class="cls-10" points="397.31 441.95 398.9 463.82 426.99 463.82 428.59 441.95 397.31 441.95"/>
    <rect class="cls-10" x="394.59" y="433.33" width="37.34" height="8.62"/>
    <polygon class="cls-1" points="394.6 462.98 394.6 465.37 396.35 465.37 431.32 465.37 431.32 462.98 394.6 462.98"/>
    <polygon class="cls-10" points="398.07 469.57 396.35 465.37 429.98 465.37 427.98 469.57 398.07 469.57"/>
    <path class="cls-4" d="M428.07,449.1c-.04,.07-.09,.14-.14,.2l-.42,.56-1.63,2.09-.07,.09-.07-.1-4-5.55h.26l-4,5.6-.13,.17-.13-.16-4.7-5.58h.27l-.26,.33-4.19,5.26-.14,.17-.13-.18-4-5.6h.23l-4.82,5.55-.08,.1-.07-.11-1.53-2.56-.39-.69c-.05-.07-.09-.16-.12-.24,.07,.07,.12,.14,.17,.22,.11,.17,.25,.39,.43,.65l1.6,2.52h-.15l4.8-5.62,.12-.15,.11,.16,4,5.57h-.27l4.19-5.27,.26-.33,.13-.16,.14,.16,4.68,5.6h-.26c1.44-2,2.79-3.89,4-5.58l.11-.16,.12,.16,3.93,5.62h-.14l1.7-2,.46-.53c.06-.16,.12-.22,.13-.21Z"/>
    <path class="cls-4" d="M429,441.81c0,.09-7,.17-15.72,.17s-15.72-.08-15.72-.17,7-.18,15.72-.18,15.72,.08,15.72,.18Z"/>
    <path class="cls-4" d="M430.4,465.57c0,.1-7.65,.18-17.08,.18s-17.09-.08-17.09-.18,7.65-.17,17.09-.17,17.08,.11,17.08,.17Z"/>
  </g>
  <g id="freepik--Floor--inject-6">
    <path class="cls-12" d="M462.5,470.03c0,.15-95.15,.26-212.49,.26s-212.51-.11-212.51-.26,95.13-.26,212.51-.26,212.49,.12,212.49,.26Z"/>
  </g>
  <g id="freepik--Plant--inject-6">
    <rect class="cls-13" x="88.11" y="422.65" width="56.43" height="7.75"/>
    <path class="cls-13" d="M144.63,430.5h-56.63v-7.93h56.62v7.93Zm-56.41-.19h56.23v-7.56h-56.23v7.56Z"/>
    <polygon class="cls-13" points="93.34 427.82 101.46 467.89 131.51 467.89 139.37 430.4 93.34 427.82"/>
    <polygon class="cls-12" points="93.34 464.1 97.67 470.06 134.2 470.06 139.37 464.1 93.34 464.1"/>
    <path class="cls-13" d="M114.2,429c-.11,0-.25-18.57-.31-41.46s0-41.46,.08-41.46,.25,18.56,.32,41.46,.03,41.45-.09,41.46Z"/>
    <path class="cls-13" d="M126.77,382.57c-.03,.15-.08,.3-.15,.43l-.5,1.2c-.11,.27-.24,.56-.37,.87s-.24,.68-.38,1-.28,.79-.43,1.21-.27,.9-.42,1.38c-.67,2.27-1.19,4.58-1.58,6.91-.44,2.86-.73,5.75-.87,8.64-.21,5.26-.06,10.54,.45,15.78,.18,2,.36,3.64,.49,4.77l.15,1.29c.02,.15,.02,.31,0,.46-.05-.15-.08-.3-.1-.45-.06-.33-.13-.76-.22-1.28-.18-1.12-.41-2.75-.63-4.76-.59-5.25-.78-10.55-.56-15.83,.14-2.91,.45-5.81,.91-8.68,.4-2.35,.96-4.66,1.67-6.93,.16-.49,.29-.95,.45-1.38s.32-.83,.46-1.21,.29-.72,.41-1,.28-.6,.41-.86l.57-1.17c.07-.14,.15-.27,.24-.39Z"/>
    <path class="cls-13" d="M125.33,367.57c-.05,.21-.11,.41-.18,.61-.14,.43-.34,1-.59,1.73-.13,.37-.27,.79-.43,1.24l-.45,1.5c-.33,1.07-.71,2.29-1.05,3.67-.18,.68-.37,1.4-.57,2.14s-.35,1.54-.53,2.35c-.39,1.62-.68,3.37-1,5.2-.62,3.69-1.17,7.77-1.55,12.07s-.51,8.41-.57,12.15,0,7.11,.19,9.94c0,1.41,.15,2.69,.22,3.81s.13,2.09,.2,2.88,.11,1.36,.14,1.81c.02,.21,.02,.43,0,.64-.04-.21-.08-.42-.1-.63-.05-.45-.12-1.05-.21-1.81s-.19-1.75-.28-2.87-.2-2.4-.27-3.82c-.19-2.83-.27-6.2-.28-9.95s.18-7.87,.54-12.19,.94-8.4,1.58-12.09c.38-1.84,.68-3.6,1.09-5.21,.19-.81,.37-1.6,.55-2.35s.4-1.46,.59-2.15c.36-1.37,.76-2.59,1.11-3.66,.18-.53,.34-1,.49-1.49s.33-.86,.47-1.24c.27-.71,.49-1.28,.66-1.7,.06-.2,.14-.39,.23-.58Z"/>
    <path class="cls-13" d="M110.64,432.28c-.01-.07-.01-.15,0-.22v-.64c0-.59-.1-1.41-.17-2.45-.13-2.17-.32-5.25-.56-9-.49-7.63-1.2-18.18-2.48-29.77-.66-5.8-1.42-11.31-2.21-16.3-.42-2.49-.81-4.86-1.24-7.07s-.82-4.26-1.22-6.13-.78-3.56-1.11-5-.65-2.75-.91-3.79-.45-1.81-.59-2.39c0-.26-.1-.46-.14-.63s0-.21,0-.21c0,0,0,.07,.07,.2s.11,.37,.18,.62l.66,2.37c.29,1,.63,2.3,1,3.78s.78,3.15,1.17,5,.86,3.91,1.27,6.13,.84,4.58,1.27,7.07c.81,5,1.59,10.51,2.25,16.31,1.28,11.61,1.94,22.17,2.36,29.81,.21,3.82,.35,6.91,.44,9.05l.09,2.46v.86l-.13-.06Z"/>
    <path class="cls-15" d="M113.74,355c-.24-2.63-2.9-4.61-5.54-4.64-2.68,.12-5.16,1.47-6.72,3.65-1.52,2.17-2.61,4.61-3.23,7.18-1.93,6.17-2.61,12.66-2,19.1,.63,6.49,3.43,12.58,7.96,17.28,.67,.84,1.72,1.29,2.79,1.2,.55-.17,1.05-.47,1.44-.89,9.1-8.33,14.16-20.19,13.88-32.52,.08-2.45-.52-4.87-1.74-7-1.35-2-4.49-4.18-6.79-3.37"/>
    <path class="cls-9" d="M94,333.94l-3.7,6.73c-.08,.16-.2,.34-.38,.35s-.34-.17-.45-.33c-3.27-5.03-6.55-10.06-9.83-15.09l2.27-1.29,12.09,9.63Z"/>
    <path class="cls-14" d="M94,333.94l-3.7,6.73c-.08,.16-.2,.34-.38,.35s-.34-.17-.45-.33c-3.27-5.03-6.55-10.06-9.83-15.09l2.27-1.29,12.09,9.63Z"/>
    <path class="cls-15" d="M114,346.08l-33.55-19.8c-.37-.16-.66-.45-.81-.82-.14-.5,.24-1,.59-1.35,4.68-4.83,11.22-7.38,17.93-7,6.73,.48,12.8,4.25,16.21,10.08,3.24,5.78,3.34,13.44-.37,18.93"/>
    <path class="cls-13" d="M85.26,319.96c.14-.03,.29-.05,.44-.05,.42-.04,.85-.06,1.27-.06,1.56-.03,3.12,.1,4.65,.37,10.45,1.76,18.92,9.42,21.71,19.64,.42,1.5,.7,3.04,.84,4.6,.06,.55,0,.69,0,1-.03,.26-.12,.51-.26,.73,.1-.56,.11-1.13,.05-1.69-1.72-13.7-13.16-24.09-26.96-24.5-.58,.02-1.16,0-1.74-.04Z"/>
    <path class="cls-13" d="M109.43,332.41c-.54,.32-1.11,.58-1.7,.77-1.06,.43-2.56,1-4.23,1.5s-3.2,.95-4.32,1.22c-.6,.18-1.21,.3-1.83,.35,.56-.27,1.15-.48,1.76-.62l4.27-1.34,4.26-1.37c.58-.23,1.18-.4,1.79-.51Z"/>
    <path class="cls-13" d="M104.15,318.22c.29,1.23,.43,2.49,.39,3.75,.1,1.25,.04,2.51-.2,3.75-.17-1.24-.24-2.49-.2-3.74-.1-1.25-.1-2.51,0-3.76Z"/>
    <path class="cls-13" d="M80.13,325.91c.78-.36,1.6-.65,2.44-.86,1.52-.47,3.64-1.07,6-1.64s4.53-1,6.1-1.28c.84-.19,1.7-.31,2.56-.35-.82,.27-1.66,.48-2.51,.63-1.55,.35-3.69,.83-6.06,1.39s-4.48,1.12-6,1.52c-.83,.25-1.67,.45-2.53,.59Z"/>
    <path class="cls-15" d="M99.82,349.3c-2.89-2.19-5.94-2.62-9.55-2.48-3.63,.26-7.17,1.19-10.46,2.75-5.66,2.48-11,6.13-14.36,11.3s-4.55,12-2,17.64c.2,.59,.6,1.08,1.14,1.39,.63,.18,1.3,.13,1.9-.14,6.43-2.1,12.91-4.22,18.83-7.51s11.3-7.85,14.47-13.83c.82-1.41,1.34-2.97,1.53-4.59,.17-1.64-.37-3.27-1.48-4.48"/>
    <path class="cls-13" d="M99.88,348.62l-.47,.18-1.34,.47-1,.32-1.14,.45c-.81,.33-1.76,.66-2.75,1.14l-1.58,.72c-.55,.25-1.1,.56-1.67,.86-1.17,.57-2.35,1.3-3.61,2-2.67,1.69-5.22,3.58-7.61,5.65-2.36,2.11-4.56,4.4-6.58,6.84-.9,1.15-1.77,2.23-2.49,3.31-.36,.54-.74,1-1.06,1.55l-.92,1.47c-.6,.93-1.05,1.82-1.48,2.59-.21,.39-.41,.74-.58,1.07s-.32,.65-.45,.93l-.63,1.28c-.07,.15-.15,.3-.25,.43,.05-.16,.1-.31,.17-.46l.57-1.32,.41-.94,.56-1.09c.42-.78,.85-1.69,1.44-2.63l.9-1.5c.31-.51,.68-1,1-1.57,.71-1.1,1.58-2.19,2.47-3.35,2.01-2.48,4.22-4.79,6.6-6.91,2.41-2.09,4.98-3.98,7.69-5.66,1.27-.74,2.46-1.47,3.64-2,.59-.29,1.14-.6,1.69-.84l1.6-.7c1-.47,2-.78,2.79-1.09,.42-.15,.8-.3,1.16-.42l1-.29,1.37-.39c.18-.06,.36-.1,.55-.1Z"/>
    <path class="cls-13" d="M77.34,360.82c-2.29,.88-4.63,1.63-7,2.26-2.34,.76-4.72,1.39-7.13,1.88,2.29-.88,4.63-1.64,7-2.26,2.34-.76,4.72-1.38,7.13-1.88Z"/>
    <path class="cls-13" d="M77.05,376.31c-.13-.72-.18-1.46-.16-2.19v-5.28c0-2.06,.17-3.93,.28-5.28,.02-.73,.11-1.46,.27-2.17,.07,.73,.07,1.46,0,2.19,0,1.48-.1,3.28-.16,5.27s-.1,3.79-.13,5.27c.02,.73,0,1.46-.1,2.19Z"/>
    <path class="cls-13" d="M90.31,369.57c-.11,0-.46-3.79-.78-8.48s-.53-8.52-.39-8.52,.46,3.79,.79,8.48,.5,8.52,.38,8.52Z"/>
    <path class="cls-13" d="M73.8,352.19c.75-.09,1.5-.11,2.25-.07,1.39,0,3.3,.05,5.42,.12s4,.16,5.41,.24c.75,0,1.5,.07,2.24,.22-.75,.08-1.5,.11-2.25,.07-1.39,0-3.3-.05-5.42-.12s-4-.16-5.41-.24c-.75,0-1.5-.08-2.24-.22Z"/>
    <path class="cls-13" d="M105.65,398.4c-.04-.15-.06-.3-.05-.45,0-.34,0-.76-.06-1.29-.05-1.12-.06-2.74,0-4.75s.17-4.39,.41-7,.64-5.54,1.18-8.55,1.23-5.86,1.91-8.43,1.42-4.85,2.1-6.75,1.25-3.41,1.69-4.45l.51-1.19c.05-.14,.12-.28,.2-.4-.02,.15-.06,.29-.12,.43-.12,.32-.26,.72-.44,1.22-.4,1.05-.94,2.58-1.57,4.48s-1.32,4.19-2,6.75-1.32,5.4-1.87,8.41-.93,5.89-1.21,8.52-.42,5-.5,7-.11,3.62-.1,4.74v1.29c-.02,.14-.04,.28-.08,.42Z"/>
    <path class="cls-13" d="M107.42,376.43c-.39,.54-.84,1.03-1.34,1.47-.87,.87-2.1,2-3.51,3.26s-2.72,2.31-3.69,3.05c-.5,.44-1.05,.82-1.63,1.14,.44-.5,.92-.96,1.45-1.36l3.61-3.13,3.57-3.16c.47-.47,.99-.89,1.54-1.27Z"/>
    <path class="cls-13" d="M118,384.99c-.52-.63-1-1.3-1.42-2l-3.32-4.83c-1.28-1.82-2.44-3.47-3.38-4.79-.5-.63-.96-1.3-1.36-2,.59,.57,1.12,1.19,1.59,1.86,.93,1.18,2.17,2.84,3.48,4.73s2.44,3.63,3.23,4.91c.46,.67,.85,1.38,1.18,2.12Z"/>
    <path class="cls-13" d="M112.47,358.09c.06,.09-3.47,2.47-7.88,5.3s-8,5.06-8.09,5,3.47-2.47,7.88-5.31,8.03-5.09,8.09-4.99Z"/>
    <path class="cls-13" d="M122.42,368.82c-1.87-1.54-3.65-3.19-5.34-4.93-1.76-1.64-3.43-3.39-5-5.22,1.86,1.55,3.64,3.2,5.33,4.94,1.76,1.64,3.44,3.38,5.01,5.21Z"/>
    <path class="cls-15" d="M124.92,368.57l3-.25c2.15-.18,4.23-.82,6.11-1.87,.92-.54,1.87-1.02,2.85-1.44,3.75-1.5,7.92-1.23,12-1.43,6.59-.34,13.05-1.99,19-4.86,.35-.16,.64-.43,.83-.76,.62-1.13-.53-2.14-1.53-2.75-5.1-3.14-10.29-6.33-16.08-7.89s-12.35-1.29-17.29,2.1c-5.79,4-7.9,12.18-8.88,19.15"/>
    <path class="cls-13" d="M168.77,357.63c-.18-.06-.36-.14-.52-.24l-1.43-.75c-1.25-.65-3-1.62-5.3-2.7-2.64-1.3-5.38-2.36-8.21-3.17-3.45-.98-7.06-1.28-10.63-.86-3.57,.4-6.95,1.85-9.7,4.16-2.13,2.01-3.83,4.42-5,7.1-.82,1.8-1.55,3.64-2.19,5.52-.23,.63-.41,1.14-.54,1.52-.06,.18-.13,.36-.21,.53,.02-.19,.06-.37,.13-.55,.12-.39,.27-.91,.47-1.55,.58-1.9,1.28-3.77,2.09-5.59,1.16-2.74,2.88-5.21,5.06-7.25,2.79-2.38,6.23-3.88,9.88-4.29,3.62-.43,7.29-.12,10.79,.91,2.84,.83,5.59,1.92,8.23,3.26,2.26,1.12,4,2.13,5.25,2.82l1.4,.82c.15,.09,.29,.2,.43,.31Z"/>
    <path class="cls-13" d="M161.5,361.57c-.07,.09-4-2.47-8.85-5.72s-8.68-6-8.62-6.06,4,2.47,8.85,5.73,8.68,5.93,8.62,6.05Z"/>
    <path class="cls-13" d="M157.27,349.57c-.93,.32-1.9,.5-2.88,.52-.97,.15-1.97,.15-2.94,0,.96-.17,1.93-.26,2.9-.29,.97-.15,1.94-.22,2.92-.23Z"/>
    <path class="cls-13" d="M139.93,347.3c-.32,.73-.76,1.41-1.29,2-.45,.7-1.01,1.33-1.65,1.87,.33-.73,.76-1.41,1.3-2,.45-.7,1.01-1.33,1.64-1.87Z"/>
    <path class="cls-13" d="M143.48,363.87c-.67-.27-1.3-.6-1.9-1-1.15-.69-2.69-1.71-4.34-2.91s-3.11-2.34-4.16-3.17c-.59-.41-1.14-.88-1.64-1.41,.64,.34,1.24,.74,1.81,1.19l4.22,3.06c1.65,1.2,3.16,2.25,4.26,3,.62,.36,1.2,.78,1.75,1.24Z"/>
    <path class="cls-15" d="M129.38,381.47c-2.89-.76-6.33,2.05-6.93,5s.5,5.92,1.79,8.61c2.75,6.05,6.83,11.39,11.94,15.63,5.15,4.24,11.59,6.61,18.26,6.72-1.22-5.67,.33-11.59-.35-17.35-1.24-10.46-9.53-18.67-20-19.8-1.84-.2-4-.49-4.71,1.21"/>
    <path class="cls-13" d="M154.44,417.41c-.15-.04-.28-.11-.41-.19-.38-.21-.74-.45-1.08-.72-1.21-1.06-2.18-2.36-2.85-3.82-.46-.89-1-1.86-1.48-2.94s-1-2.22-1.55-3.43c-.56-1.26-1.2-2.49-1.91-3.67-.78-1.26-1.66-2.46-2.63-3.58-2-2.32-4.1-4.33-5.94-6.25-1.66-1.68-3.17-3.49-4.52-5.43-.91-1.31-1.65-2.74-2.22-4.23-.15-.4-.27-.81-.38-1.23-.05-.15-.08-.3-.09-.45,0,0,.2,.59,.62,1.63,.61,1.45,1.39,2.83,2.3,4.12,1.37,1.9,2.9,3.68,4.56,5.33,1.85,1.9,4,3.91,6,6.25,.98,1.14,1.87,2.35,2.66,3.63,.71,1.2,1.35,2.45,1.91,3.73,.53,1.21,1,2.36,1.52,3.44s1,2.05,1.42,3c.63,1.45,1.55,2.75,2.7,3.83,.83,.67,1.4,.94,1.37,.98Z"/>
    <path class="cls-13" d="M139.51,412.7c.02-.65,.1-1.3,.26-1.94,.23-1.19,.6-2.83,1.1-4.6s1-3.37,1.47-4.5c.19-.63,.46-1.23,.79-1.8-.12,.64-.29,1.28-.52,1.89-.36,1.15-.85,2.74-1.35,4.51s-.91,3.39-1.21,4.56c-.12,.64-.3,1.27-.54,1.88Z"/>
    <path class="cls-13" d="M153.9,398.78c-.68-.09-1.35-.25-2-.47-1.24-.32-3-.77-4.87-1.2s-3.66-.76-4.92-1c-.68-.1-1.35-.25-2-.45,.7-.02,1.4,.03,2.08,.17,1.28,.16,3,.46,5,.89s3.63,.92,4.86,1.32c.64,.19,1.26,.44,1.85,.74Z"/>
    <path class="cls-13" d="M128.79,402.82c.03-.76,.14-1.51,.31-2.25,.26-1.37,.66-3.27,1.2-5.34s1.12-3.92,1.57-5.25c.21-.73,.49-1.44,.83-2.12-.13,.75-.32,1.48-.56,2.2-.38,1.35-.91,3.21-1.45,5.27s-1,3.94-1.31,5.3c-.13,.75-.33,1.48-.59,2.19Z"/>
    <path class="cls-13" d="M147.27,386.65c0,.11-3.62-.18-8.05-.65s-8-.94-8-1.05c2.68,.08,5.35,.3,8,.65,4.48,.47,8.06,.97,8.05,1.05Z"/>
    <path class="cls-12" d="M144.63,430.37c0,.11-12.67,.2-28.31,.2s-28.3-.09-28.3-.2,12.67-.2,28.3-.2,28.31,.09,28.31,.2Z"/>
    <path class="cls-12" d="M135.81,446.68c0,.11-8.54,.2-19.07,.2s-19.07-.09-19.07-.2,8.54-.2,19.07-.2,19.07,.09,19.07,.2Z"/>
    <path class="cls-12" d="M135.48,449.01c0,.12-8.39,.21-18.74,.21s-18.74-.09-18.74-.21,8.39-.2,18.74-.2,18.74,.09,18.74,.2Z"/>
    <path class="cls-12" d="M136.14,444.76c0,.11-8.83,.2-19.72,.2s-19.73-.09-19.73-.2,8.83-.2,19.73-.2,19.72,.09,19.72,.2Z"/>
  </g>
  <g id="freepik--Screens--inject-6">
    <path class="cls-7" d="M149.17,125.88h-6.46c-.67-.07-1.35,0-2,.21-.65,.26-1.19,.74-1.53,1.36-.18,.31-.3,.65-.37,1-.03,.38-.03,.76,0,1.14v1.18c.02,.41,0,.82-.08,1.23-.18,.86-.7,1.61-1.44,2.08-.39,.26-.83,.43-1.29,.49h-24.77c-.31,.01-.63-.02-.93-.09-.63-.16-1.19-.51-1.61-1-.43-.49-.7-1.1-.79-1.75-.02-.33-.02-.67,0-1v-1c.06-.64-.01-1.29-.2-1.9-.21-.61-.62-1.14-1.15-1.51-.55-.37-1.2-.55-1.86-.51h-14.93c-3.07-.13-6.02,1.17-8,3.52-.98,1.19-1.66,2.6-2,4.11-.09,.38-.15,.77-.2,1.16v159.8c-.03,1.06,.11,2.11,.4,3.13,.64,2.15,2,4.01,3.84,5.28,1.86,1.25,4.08,1.86,6.32,1.73h64.98c2.05-.12,4.01-.88,5.6-2.17,.77-.64,1.45-1.39,2-2.23,.55-.84,.97-1.75,1.24-2.72,.27-.98,.39-1.99,.37-3v-14.7c0-31.25,0-59.38,.05-83s0-42.75,.06-56v-4.68c.03-1.37-.21-2.73-.72-4-.44-1.09-1.08-2.08-1.87-2.95-.65-.72-1.41-1.34-2.25-1.83-1.13-.69-2.4-1.14-3.71-1.31-.33-.05-.67-.08-1-.09h-5.66l-.04,.02Z"/>
    <path class="cls-13" d="M154.6,125.99h.34c.33,0,.67,.04,1,.08,2.3,.31,4.43,1.41,6,3.12,.81,.88,1.45,1.89,1.89,3,.51,1.27,.76,2.63,.74,4v158.54c.02,1.01-.11,2.02-.38,3-.25,1-.65,1.96-1.19,2.84-.58,.86-1.27,1.63-2.07,2.29-1.63,1.32-3.63,2.1-5.73,2.22-2.08,.06-4.14,0-6.23,0h-58.59c-2.27,.1-4.5-.53-6.38-1.8-1.91-1.31-3.32-3.22-4-5.43-.31-1.09-.45-2.23-.41-3.36V136.06c0-.4,0-.8,.06-1.2s.1-.8,.2-1.19c.36-1.54,1.07-2.98,2.09-4.2,2-2.38,4.98-3.7,8.09-3.58h14.97c.71-.04,1.41,.15,2,.55,.56,.39,.98,.95,1.21,1.59,.19,.65,.26,1.33,.2,2v1c-.02,.31-.02,.63,0,.94,.08,.62,.34,1.2,.74,1.67,.4,.46,.93,.79,1.52,.94,.29,.07,.59,.09,.89,.08h24.64c.43-.05,.84-.19,1.21-.42,.71-.45,1.21-1.17,1.39-2,.07-.4,.1-.8,.08-1.21v-1.18c-.01-.39,0-.78,.05-1.16,.07-.37,.2-.73,.38-1.06,.34-.64,.9-1.13,1.58-1.4,.64-.21,1.33-.28,2-.21h-.03c-.65-.06-1.31,0-1.94,.21-.65,.27-1.19,.75-1.53,1.36-.17,.31-.29,.65-.36,1-.05,.38-.06,.76-.05,1.14v1.18c.02,.41,0,.82-.07,1.23-.18,.86-.7,1.6-1.44,2.07-.38,.24-.81,.4-1.26,.45h-24.71c-.31,0-.63-.02-.93-.09-.63-.16-1.19-.51-1.61-1-.42-.49-.69-1.1-.78-1.74-.02-.33-.02-.67,0-1v-1c.05-.64-.01-1.29-.2-1.9-.22-.61-.62-1.13-1.15-1.5-.54-.37-1.19-.55-1.85-.51h-14.87c-3.07-.08-6,1.27-7.93,3.65-.98,1.2-1.67,2.61-2,4.12-.1,.38-.13,.77-.2,1.16s0,.78,0,1.18v158.46c-.04,1.11,.1,2.21,.4,3.28,.64,2.14,1.99,4,3.82,5.28,1.86,1.25,4.07,1.86,6.31,1.73h64.78c2.04-.12,3.99-.87,5.57-2.16,.77-.64,1.44-1.39,2-2.23,.55-.84,.96-1.76,1.23-2.72,.27-.98,.4-1.99,.37-3v-97.86c0-23.61,0-42.75,.05-56v-4.68c.03-1.37-.22-2.73-.73-4-.44-1.08-1.07-2.08-1.86-2.94-1.56-1.7-3.66-2.81-5.94-3.14-.33-.06-.66-.09-1-.09l-.38,.03Z"/>
    <path class="cls-13" d="M156.52,142.06s-1.64,.09-3.66,.11-3.66,0-3.66,0c0,0,1.63-.09,3.66-.11s3.66-.04,3.66,0Z"/>
    <path class="cls-13" d="M156.54,143.94s-1.64,.09-3.67,.1-3.66,0-3.66,0c0,0,1.64-.09,3.66-.11s3.67-.04,3.67,0Z"/>
    <path class="cls-13" d="M156.55,145.81s-1.64,.09-3.66,.11-3.66,0-3.66,0c0,0,1.64-.09,3.66-.11s3.66-.04,3.66,0Z"/>
    <path class="cls-13" d="M89.9,147.95h2.14v-1.79c.05-.26,.27-.45,.53-.48h.74c.3,.04,.52,.3,.52,.6v1.66l-.08-.07h2l-.08,.07v-3.08c-.01-.19-.11-.36-.27-.47l-.87-.85-.83-.82-.4-.4c-.14-.13-.25-.27-.41-.3-.15-.04-.32-.01-.45,.08-.12,.1-.25,.25-.37,.36l-.71,.72c-.44,.46-.91,.88-1.24,1.28-.1,.23-.14,.49-.1,.74v2.53c.01,.09,.01,.17,0,.26,0-.08,0-.16,0-.24v-2.93c0-.14,.04-.28,.11-.41,.37-.45,.8-.85,1.25-1.32l.7-.72c.13-.12,.23-.25,.38-.38,.17-.12,.38-.16,.58-.11,.18,.07,.35,.19,.47,.34l.41,.39,.83,.82,.86,.85c.08,.07,.16,.15,.22,.24,.07,.1,.1,.21,.11,.33v3.17h-2.3v-1.73c0-.24-.17-.44-.4-.48h-.71c-.21,.02-.38,.18-.43,.39v1.76h-2.2Z"/>
    <path class="cls-13" d="M139.64,213.57c0,.28-7.85,.51-17.53,.51s-17.52-.23-17.52-.51,7.84-.51,17.52-.51,17.53,.25,17.53,.51Z"/>
    <rect class="cls-15" x="105.16" y="162.19" width="34.02" height="45.27" transform="translate(-63.33 305.96) rotate(-89.68)"/>
    <polygon class="cls-9" points="99.44 201.71 115.37 180.65 125.09 193.94 131.77 186.9 144.71 201.96 99.44 201.71"/>
    <path class="cls-9" d="M129.33,178.14c-.02,1.97-1.62,3.55-3.59,3.53-1.97-.02-3.55-1.62-3.53-3.59,.02-1.96,1.62-3.54,3.58-3.53,1.97,.01,3.55,1.61,3.54,3.58,0,0,0,0,0,.01Z"/>
    <polygon class="cls-14" points="99.44 201.71 115.37 180.65 125.09 193.94 131.77 186.9 144.71 201.96 99.44 201.71"/>
    <path class="cls-14" d="M129.33,178.14c-.02,1.97-1.62,3.55-3.59,3.53-1.97-.02-3.55-1.62-3.53-3.59,.02-1.96,1.62-3.54,3.58-3.53,1.97,.01,3.55,1.61,3.54,3.58,0,0,0,0,0,.01Z"/>
    <path class="cls-13" d="M153.28,226.11c0,.29-13.92,.52-31.07,.52s-31.08-.23-31.08-.52,13.87-.54,31.08-.54,31.07,.26,31.07,.54Z"/>
    <path class="cls-13" d="M153.28,234.77c0,.29-13.92,.52-31.07,.52s-31.08-.23-31.08-.52,13.91-.51,31.08-.51,31.07,.23,31.07,.51Z"/>
    <path class="cls-13" d="M153.28,243.44c0,.28-13.92,.51-31.07,.51s-31.08-.23-31.08-.51,13.91-.52,31.08-.52,31.07,.23,31.07,.52Z"/>
    <path class="cls-13" d="M153.28,252.1c0,.28-13.92,.51-31.07,.51s-31.08-.23-31.08-.51,13.87-.53,31.08-.53,31.07,.25,31.07,.53Z"/>
    <path class="cls-13" d="M153.28,260.76c0,.29-13.92,.52-31.07,.52s-31.08-.23-31.08-.52,13.91-.51,31.08-.51,31.07,.23,31.07,.51Z"/>
    <path class="cls-13" d="M139.91,268.67c0,.14-2,.27-5.22,.36s-7.69,.15-12.62,.15-9.38-.05-12.61-.15-5.22-.22-5.22-.36,2-.27,5.22-.36,7.69-.15,12.61-.15,9.39,.05,12.62,.15,5.22,.26,5.22,.36Z"/>
    <path class="cls-7" d="M211.29,111.34h-7.18c-.71-.07-1.43,.01-2.11,.23-.73,.29-1.33,.83-1.71,1.52-.2,.36-.34,.75-.4,1.15-.06,.42-.08,.85-.06,1.27v1.33c.01,.46-.02,.92-.09,1.37-.2,.95-.78,1.78-1.6,2.31-.43,.27-.91,.44-1.41,.5h-27.52c-.34,0-.67-.03-1-.1-.7-.18-1.32-.56-1.79-1.11-.48-.56-.79-1.26-.87-2-.02-.36-.02-.72,0-1.08v-1.07c.06-.71,0-1.43-.21-2.12-.24-.68-.69-1.27-1.29-1.68-.6-.42-1.33-.62-2.06-.57h-16.72c-3.4-.14-6.66,1.31-8.84,3.92-1.11,1.33-1.89,2.9-2.28,4.59-.11,.42-.14,.86-.22,1.29s0,.74-.05,1.11v177.2c-.03,1.18,.12,2.35,.44,3.48,.71,2.39,2.22,4.47,4.27,5.89,2.06,1.39,4.52,2.08,7,1.94h72.2c2.27-.13,4.45-.98,6.22-2.41,.86-.72,1.62-1.56,2.25-2.49,.6-.93,1.07-1.94,1.37-3,.29-1.07,.44-2.19,.42-3.3v-16.6c0-34.85,0-66.23,.06-92.59s0-47.68,.06-62.42v-5.22c.03-1.53-.24-3.04-.81-4.46-.49-1.21-1.2-2.32-2.08-3.28-.72-.81-1.57-1.5-2.5-2.05-1.25-.77-2.66-1.26-4.12-1.45-.37-.06-.74-.1-1.12-.11h-6.25Z"/>
    <path class="cls-13" d="M217.28,111.23h.38c.37,0,.75,.03,1.12,.08,2.56,.35,4.92,1.58,6.68,3.48,.89,.97,1.6,2.08,2.1,3.3,.58,1.43,.86,2.96,.83,4.5v176.81c.03,1.14-.12,2.27-.42,3.37-.31,1.11-.79,2.16-1.42,3.12-.64,.96-1.41,1.82-2.3,2.56-1.82,1.47-4.05,2.34-6.39,2.48-2.32,.07-4.62,0-7,0h-65.17c-2.55,.13-5.08-.57-7.2-2-2.1-1.47-3.65-3.6-4.39-6.06-.35-1.22-.5-2.48-.46-3.74V122.43c0-.45,0-.9,.06-1.34s.11-.89,.23-1.32c.4-1.73,1.19-3.33,2.33-4.69,1.12-1.32,2.52-2.37,4.1-3.07,1.55-.66,3.23-.98,4.92-.93h16.56c.77-.04,1.53,.17,2.17,.61,.63,.44,1.1,1.06,1.36,1.78,.21,.71,.28,1.45,.22,2.18v1.08c-.02,.33-.02,.67,0,1,.08,.69,.37,1.34,.82,1.86,.45,.49,1.04,.84,1.69,1,.33,.07,.66,.11,1,.09h27.53c.48-.05,.95-.21,1.36-.47,.79-.51,1.35-1.31,1.55-2.23,.08-.45,.1-.9,.08-1.35v-1.32c-.02-.43,0-.86,.05-1.29,.08-.41,.22-.81,.42-1.18,.39-.71,1.02-1.26,1.77-1.57,.71-.22,1.46-.3,2.2-.23h.13c-.73-.07-1.46,.02-2.16,.24-.73,.29-1.34,.83-1.71,1.52-.2,.36-.34,.75-.41,1.15-.03,.42-.03,.85,0,1.27v1.32c.02,.46,0,.92-.08,1.37-.2,.96-.78,1.8-1.61,2.32-.42,.27-.9,.44-1.4,.5h-27.52c-.34,0-.67-.03-1-.11-.7-.17-1.32-.56-1.79-1.1-.48-.55-.78-1.23-.87-1.95-.02-.36-.02-.72,0-1.08v-.82c.06-.71-.02-1.43-.22-2.12-.28-.7-.78-1.29-1.42-1.68-.61-.41-1.33-.61-2.06-.57h-16.59c-3.4-.13-6.67,1.32-8.85,3.93-1.1,1.33-1.88,2.91-2.27,4.59-.11,.42-.14,.86-.22,1.29s0,.87-.06,1.32v176.76c-.04,1.23,.11,2.46,.45,3.65,.71,2.39,2.22,4.47,4.27,5.89,2.06,1.39,4.52,2.07,7,1.93h72.27c2.27-.14,4.45-.98,6.22-2.41,.86-.72,1.62-1.56,2.24-2.49,.61-.92,1.08-1.93,1.38-3,.3-1.07,.43-2.18,.41-3.29v-16.64c0-34.84,0-66.22,.05-92.58s0-47.68,.07-62.43v-5.25c.03-1.52-.24-3.04-.8-4.46-.49-1.21-1.2-2.32-2.08-3.29-.73-.79-1.57-1.46-2.5-2-1.59-.95-3.39-1.49-5.24-1.56l-.41-.03Z"/>
    <path class="cls-13" d="M219.42,129.15s-1.83,.11-4.08,.12-4.09,0-4.09,0c0,0,1.83-.1,4.08-.12s4.09-.04,4.09,0Z"/>
    <path class="cls-13" d="M219.44,131.24s-1.83,.11-4.09,.12-4.08,0-4.08-.05,1.82-.1,4.08-.12,4.09,.01,4.09,.05Z"/>
    <path class="cls-13" d="M219.45,133.33s-1.82,.11-4.08,.12-4.09,0-4.09,0c0,0,1.83-.1,4.09-.12s4.08-.04,4.08,0Z"/>
    <path class="cls-13" d="M145.12,135.72h2.39v-1.99c.06-.29,.3-.51,.59-.54,.28-.02,.55-.02,.83,0,.33,.05,.57,.34,.57,.67v1.84l-.08-.08h2.2l-.08,.09v-3.44c-.02-.21-.13-.4-.31-.52l-1-1-.93-.92-.45-.44c-.12-.15-.28-.27-.46-.34-.17-.05-.36-.01-.5,.1-.13,.11-.28,.27-.41,.4l-.79,.8c-.5,.51-1,1-1.39,1.43-.11,.26-.15,.54-.11,.82v-.42c0-.16,.04-.32,.12-.46,.41-.5,.9-.94,1.4-1.47l.78-.81c.14-.14,.26-.27,.43-.42,.18-.13,.41-.18,.63-.12,.21,.07,.39,.2,.53,.37l.45,.45c.31,.29,.62,.6,.93,.91l1,1c.09,.08,.17,.16,.24,.26,.08,.11,.12,.24,.12,.37v3.53h-2.37v-1.93c0-.26-.18-.49-.44-.53h-.8c-.24,.02-.43,.2-.48,.43v2.02h-2.44l-.17-.06Z"/>
    <path class="cls-15" d="M189.6,147.16c0,4.08-3.29,7.38-7.37,7.39-4.08,0-7.38-3.29-7.39-7.37,0-4.08,3.29-7.38,7.37-7.39,0,0,.01,0,.02,0,4.07,0,7.37,3.3,7.37,7.37Z"/>
    <path class="cls-6" d="M184.76,150.14h-5.06v-.57c0-1.4,1.13-2.53,2.53-2.53h0c1.4,0,2.53,1.13,2.53,2.53v.57Z"/>
    <path class="cls-6" d="M183.71,145.68c0,.82-.67,1.49-1.49,1.49s-1.49-.67-1.49-1.49c0-.82,.67-1.49,1.49-1.49,0,0,0,0,0,0,.82,0,1.48,.66,1.48,1.48,0,0,0,0,0,.01Z"/>
    <path class="cls-13" d="M200.59,166.66c0,.31-8.75,.57-19.54,.57s-19.55-.26-19.55-.57,8.75-.58,19.55-.58,19.54,.26,19.54,.58Z"/>
    <rect class="cls-15" x="145.3" y="181.98" width="25.36" height="33.75" transform="translate(-41.75 355.72) rotate(-89.68)"/>
    <polygon class="cls-9" points="141.03 211.44 152.91 195.74 160.15 205.64 165.13 200.4 174.78 211.63 141.03 211.44"/>
    <path class="cls-9" d="M163.32,193.87c0,1.47-1.2,2.66-2.67,2.65-1.47,0-2.66-1.2-2.65-2.67,0-1.47,1.2-2.66,2.67-2.65,0,0,0,0,0,0,1.47,.01,2.65,1.2,2.64,2.67Z"/>
    <polygon class="cls-14" points="141.03 211.44 152.91 195.74 160.15 205.64 165.13 200.4 174.78 211.63 141.03 211.44"/>
    <path class="cls-14" d="M163.32,193.87c0,1.47-1.2,2.66-2.67,2.65-1.47,0-2.66-1.2-2.65-2.67,0-1.47,1.2-2.66,2.67-2.65,0,0,0,0,0,0,1.47,.01,2.65,1.2,2.64,2.67Z"/>
    <rect class="cls-15" x="150.58" y="209.8" width="58.63" height="78.01" transform="translate(-69.91 427.31) rotate(-89.68)"/>
    <polygon class="cls-9" points="140.73 277.9 168.18 241.6 184.93 264.5 196.44 252.38 218.74 278.33 140.73 277.9"/>
    <path class="cls-9" d="M192.24,237.27c-.02,3.39-2.78,6.13-6.17,6.11-3.39-.02-6.13-2.78-6.11-6.17,.02-3.39,2.78-6.13,6.17-6.11,0,0,0,0,0,0,3.39,.02,6.12,2.77,6.1,6.16,0,0,0,0,0,.01Z"/>
    <polygon class="cls-14" points="140.73 277.9 168.18 241.6 184.93 264.5 196.44 252.38 218.74 278.33 140.73 277.9"/>
    <path class="cls-14" d="M192.24,237.27c-.02,3.39-2.78,6.13-6.17,6.11-3.39-.02-6.13-2.78-6.11-6.17,.02-3.39,2.78-6.13,6.17-6.11,0,0,0,0,0,0,3.39,.02,6.12,2.77,6.1,6.16,0,0,0,0,0,.01Z"/>
    <rect class="cls-15" x="189.85" y="181.98" width="25.36" height="33.75" transform="translate(2.55 400.27) rotate(-89.68)"/>
    <polygon class="cls-9" points="185.58 211.44 197.46 195.74 204.7 205.64 209.69 200.4 219.33 211.63 185.58 211.44"/>
    <circle class="cls-9" cx="205.21" cy="193.85" r="2.66"/>
    <polygon class="cls-14" points="185.58 211.44 197.46 195.74 204.7 205.64 209.69 200.4 219.33 211.63 185.58 211.44"/>
    <g class="cls-16">
      <circle cx="205.21" cy="193.85" r="2.66"/>
    </g>
    <path class="cls-7" d="M420.84,121.22h-6.43c-.65-.05-1.31,.02-1.94,.21-1,.42-1.71,1.33-1.89,2.4-.05,.38-.07,.76-.05,1.14v1.19c.02,.41,0,.82-.08,1.22-.18,.86-.71,1.62-1.45,2.09-.38,.24-.81,.39-1.26,.44h-24.69c-.32,.01-.63-.02-.94-.09-.62-.16-1.18-.51-1.6-1-.43-.49-.7-1.1-.78-1.75-.02-.33-.02-.67,0-1v-1c.06-.64,0-1.28-.19-1.9-.21-.61-.62-1.14-1.15-1.51-.54-.37-1.19-.55-1.85-.51h-14.89c-3.05-.12-5.97,1.18-7.93,3.52-.98,1.2-1.66,2.61-2,4.12-.08,.38-.15,.76-.19,1.15,0,.33,0,.66-.05,1v158.91c-.03,1.05,.11,2.11,.4,3.12,.64,2.14,1.98,4,3.82,5.28,1.85,1.26,4.07,1.87,6.3,1.74h64.79c2.04-.12,3.98-.88,5.57-2.16,.77-.64,1.45-1.4,2-2.24,.55-.84,.97-1.75,1.24-2.72,.27-.96,.39-1.95,.37-2.95v-97.86c0-23.62,0-42.76,.06-56v-4.67c.02-1.37-.23-2.73-.73-4-.81-2-2.25-3.67-4.1-4.78-1.13-.69-2.39-1.14-3.7-1.31-.44-.08-.78-.06-1-.09h-5.66Z"/>
    <rect class="cls-1" x="365.34" y="188.51" width="55.84" height="11.41"/>
    <path class="cls-13" d="M426.34,121.13h.34c.33,0,.67,.03,1,.08,2.3,.31,4.42,1.41,6,3.12,.8,.88,1.44,1.9,1.89,3,.51,1.27,.76,2.63,.74,4v158.55c.02,1.01-.11,2.02-.38,3-.27,.99-.7,1.93-1.27,2.79-.57,.86-1.26,1.64-2.06,2.3-1.63,1.32-3.64,2.09-5.73,2.22-2.08,.06-4.15,0-6.24,0h-58.48c-2.29,.13-4.56-.5-6.46-1.78-1.89-1.32-3.27-3.23-3.93-5.44-.31-1.09-.46-2.22-.42-3.35V130c0-.4,.1-.8,.2-1.19,1.07-4.71,5.35-7.99,10.18-7.78h14.85c.69-.03,1.38,.16,1.95,.55,.56,.39,.98,.95,1.21,1.59,.2,.65,.27,1.33,.2,2v1c-.02,.31-.02,.63,0,.94,.08,.62,.34,1.2,.75,1.66,.39,.47,.92,.8,1.51,.94,.29,.08,.6,.11,.9,.09h24.69c.43-.05,.84-.2,1.21-.43,.72-.45,1.22-1.17,1.39-2,.08-.4,.1-.8,.08-1.2v-1.19c0-.38,.01-.77,.06-1.15,.06-.38,.19-.74,.37-1.07,.35-.63,.92-1.13,1.59-1.4,.65-.2,1.33-.27,2-.21h.12c-.65-.06-1.31,0-1.94,.21-.65,.26-1.2,.74-1.53,1.36-.18,.31-.3,.65-.36,1-.04,.38-.04,.76,0,1.14v1.19c.02,.41,0,.82-.08,1.23-.18,.85-.69,1.6-1.43,2.07-.38,.24-.82,.4-1.27,.45h-24.75c-.32,0-.63-.03-.94-.09-1.28-.35-2.22-1.43-2.38-2.74-.03-.33-.03-.67,0-1v-1c.05-.64-.01-1.28-.19-1.9-.44-1.26-1.67-2.08-3-2h-14.89c-1.49-.04-2.96,.24-4.33,.83-2.86,1.24-4.95,3.77-5.64,6.81-.1,.38-.13,.77-.2,1.16s-.05,.78-.05,1.18v158.43c-.04,1.1,.1,2.21,.4,3.27,.64,2.14,1.99,4,3.83,5.28,1.85,1.26,4.07,1.87,6.3,1.74h64.78c2.04-.12,3.99-.87,5.58-2.16,.77-.65,1.44-1.4,2-2.23,.55-.84,.97-1.76,1.24-2.72,.26-.98,.39-1.99,.37-3v-14.67c0-31.24,0-59.38,.05-83s0-42.76,.05-56v-4.68c.03-1.37-.22-2.73-.72-4-.44-1.08-1.08-2.08-1.87-2.94-.65-.73-1.4-1.35-2.24-1.84-1.13-.68-2.38-1.13-3.69-1.3-.33-.06-.66-.09-1-.09h-.36Z"/>
    <path class="cls-13" d="M428.25,137.2s-1.64,.09-3.66,.11-3.66,0-3.66-.05,1.64-.09,3.66-.11,3.66,0,3.66,.05Z"/>
    <path class="cls-13" d="M428.27,139.07c0,.05-1.64,.09-3.66,.11s-3.66,0-3.67-.05,1.64-.09,3.67-.1,3.66,0,3.66,.04Z"/>
    <path class="cls-13" d="M428.28,140.95s-1.63,.09-3.66,.11-3.66,0-3.66-.05,1.64-.09,3.66-.11,3.66,0,3.66,.05Z"/>
    <path class="cls-13" d="M361.64,143.09h2.14v-1.79c.05-.26,.26-.45,.52-.48h.75c.3,.04,.51,.3,.51,.6v1.65l-.07-.07h2l-.08,.08v-3.08c-.02-.19-.12-.37-.28-.47l-.86-.85-.83-.82-.41-.4c-.14-.13-.24-.27-.41-.3-.15-.04-.32-.01-.45,.08-.12,.1-.25,.25-.37,.36l-.7,.72c-.45,.46-.91,.88-1.25,1.28-.1,.23-.13,.49-.1,.74v2.79c0-.08,0-.16,0-.24v-2.93c0-.14,.03-.29,.11-.41,.36-.45,.8-.85,1.25-1.32,.22-.24,.46-.48,.7-.72,.12-.13,.25-.26,.38-.38,.16-.12,.37-.16,.57-.11,.19,.06,.35,.18,.47,.34l.41,.39,.83,.82,.87,.85c.08,.07,.15,.15,.22,.24,.06,.1,.1,.21,.1,.33v3.16h-2.15v-1.73c0-.24-.17-.44-.4-.48h-.72c-.21,.02-.38,.18-.42,.38v1.81h-2.18l-.15-.04Z"/>
    <rect class="cls-1" x="365.46" y="205.52" width="55.84" height="11.41"/>
    <rect class="cls-1" x="365.46" y="222.07" width="55.84" height="11.41"/>
    <path class="cls-15" d="M407.88,256.15h-28c-3.15,0-5.7-2.56-5.7-5.71h0c0-3.15,2.55-5.7,5.7-5.7h28c3.15,0,5.7,2.55,5.7,5.7h0c0,3.15-2.55,5.7-5.7,5.71Z"/>
    <path class="cls-13" d="M411.25,176.72c0,.28-7.84,.51-17.52,.51s-17.52-.23-17.52-.51,7.84-.51,17.52-.51,17.52,.23,17.52,.51Z"/>
    <path class="cls-7" d="M375.07,109.42h-7.18c-.73-.07-1.46,0-2.16,.23-.73,.29-1.33,.83-1.71,1.52-.2,.36-.33,.75-.4,1.15-.06,.42-.07,.85-.05,1.28v1.32c.01,.46-.02,.92-.09,1.37-.2,.95-.78,1.78-1.6,2.31-.43,.27-.91,.44-1.41,.5h-27.52c-.34,0-.67-.03-1-.1-.7-.18-1.32-.56-1.79-1.11-.48-.57-.78-1.26-.87-2-.02-.36-.02-.72,0-1.08v-1.07c.06-.71,0-1.43-.21-2.12-.24-.68-.69-1.27-1.28-1.68-.61-.41-1.34-.61-2.07-.57h-16.68c-3.4-.14-6.66,1.31-8.84,3.92-1.11,1.33-1.89,2.9-2.28,4.59-.11,.43-.14,.86-.22,1.29s0,.74,0,1.11v177.2c-.03,1.18,.12,2.35,.45,3.48,.71,2.39,2.21,4.47,4.26,5.89,2.06,1.39,4.52,2.08,7,1.94h72.2c2.27-.13,4.45-.98,6.22-2.41,.87-.72,1.62-1.56,2.25-2.49,.6-.93,1.07-1.94,1.37-3,.3-1.07,.45-2.19,.42-3.3v-16.58c0-34.85,0-66.23,.05-92.59s0-47.68,.06-62.42v-5.22c.03-1.53-.24-3.04-.81-4.46-.49-1.21-1.2-2.32-2.08-3.28-1.73-1.9-4.07-3.14-6.62-3.5-.37-.06-.74-.09-1.12-.1h-1.88l-4.41-.02Z"/>
    <path class="cls-13" d="M381.06,109.57h.38c.37,0,.75,.04,1.12,.09,1.47,.18,2.88,.67,4.15,1.43,.94,.54,1.79,1.21,2.53,2,.89,.97,1.6,2.08,2.1,3.3,.58,1.42,.86,2.95,.83,4.49v176.81c.03,1.14-.12,2.28-.42,3.38-.31,1.11-.79,2.16-1.42,3.12-.64,.96-1.41,1.82-2.3,2.56-1.82,1.47-4.05,2.34-6.39,2.48-2.32,.06-4.62,0-6.95,0h-65.22c-2.55,.14-5.08-.56-7.2-2-2.11-1.46-3.65-3.59-4.39-6.05-.35-1.22-.5-2.48-.46-3.75V120.74c0-.45,0-.9,.06-1.35s.12-.88,.23-1.31c.4-1.72,1.2-3.33,2.33-4.69,1.12-1.32,2.52-2.37,4.1-3.07,1.55-.66,3.23-.98,4.92-.93h16.56c.77-.04,1.54,.17,2.18,.61,.62,.44,1.09,1.06,1.35,1.78,.21,.71,.29,1.45,.22,2.18v1.08c-.03,.35-.03,.7,0,1.05,.09,.68,.37,1.33,.82,1.85,.45,.5,1.04,.85,1.69,1,.33,.08,.66,.12,1,.1h27.62c.48-.05,.95-.21,1.36-.47,.79-.51,1.35-1.31,1.55-2.23,.07-.45,.1-.9,.09-1.35v-1.32c-.02-.43,0-.86,.06-1.29,.07-.42,.21-.82,.41-1.19,.4-.71,1.02-1.26,1.77-1.56,.71-.22,1.46-.3,2.2-.23h.06c-.73-.06-1.46,.02-2.16,.24-.73,.29-1.34,.83-1.71,1.52-.2,.36-.34,.75-.4,1.15-.06,.42-.08,.85-.06,1.27v1.32c.02,.46,0,.92-.08,1.37-.2,.95-.78,1.79-1.6,2.31-.43,.27-.91,.44-1.41,.5h-27.58c-.34,.01-.67-.02-1-.1-.7-.17-1.32-.56-1.79-1.1-.48-.56-.79-1.26-.87-2-.02-.36-.02-.72,0-1.08v-1.08c.06-.71,0-1.43-.21-2.12-.25-.68-.7-1.27-1.29-1.68-.6-.41-1.33-.61-2.06-.57h-16.65c-1.66-.05-3.31,.26-4.83,.92-3.18,1.4-5.51,4.22-6.29,7.6-.11,.42-.14,.86-.22,1.29s-.05,.87-.06,1.32v176.72c-.04,1.24,.11,2.47,.45,3.66,.71,2.39,2.22,4.47,4.27,5.89,2.06,1.39,4.52,2.07,7,1.93h72.21c2.25-.04,4.43-.78,6.24-2.11,.86-.72,1.62-1.55,2.25-2.48,.6-.93,1.07-1.94,1.37-3,.3-1.07,.44-2.19,.42-3.3v-16.65c0-34.84,0-66.23,.05-92.58s.05-47.69,.07-62.43v-5.22c.04-1.52-.24-3.04-.8-4.45-.49-1.21-1.2-2.32-2.08-3.29-.73-.79-1.57-1.46-2.5-2-1.26-.77-2.66-1.26-4.12-1.46-.37-.06-.74-.09-1.12-.1l-.38-.04Z"/>
    <path class="cls-13" d="M383.2,127.46s-1.83,.1-4.08,.12-4.12-.01-4.12-.01c0,0,1.83-.1,4.09-.12s4.11-.04,4.11,.01Z"/>
    <path class="cls-13" d="M383.22,129.57s-1.83,.1-4.09,.12-4.08,0-4.08,0c0,0,1.83-.1,4.08-.12s4.09-.07,4.09,0Z"/>
    <path class="cls-13" d="M383.23,131.64c0,.05-1.82,.1-4.08,.12s-4.08,0-4.08,0c0,0,1.82-.1,4.08-.12s4.08-.07,4.08,0Z"/>
    <path class="cls-13" d="M308.9,134.03h2.39l-.05,.05v-1.99c.06-.29,.3-.51,.59-.54h.83c.33,.05,.57,.34,.57,.68v1.84l-.08-.08h2.2l-.08,.09v-3.51c-.02-.21-.13-.4-.31-.52l-1-1-.93-.92-.45-.44c-.15-.15-.28-.31-.46-.34-.17-.05-.36-.01-.5,.09-.13,.12-.28,.28-.41,.41l-.79,.79c-.5,.52-1,1-1.39,1.44-.11,.26-.15,.54-.11,.82v2.82c0,.1,0,.19,0,.29v-3.53c0-.17,.04-.33,.13-.47,.4-.49,.89-.94,1.39-1.47l.78-.8c.14-.15,.28-.29,.43-.42,.18-.14,.42-.19,.64-.13,.2,.08,.38,.21,.52,.38l.45,.44,.94,.92,1,.94c.09,.08,.17,.17,.25,.27,.07,.11,.11,.24,.11,.37v3.53h-2.37v-1.92c0-.26-.18-.5-.44-.54h-.8c-.23,.02-.43,.2-.47,.43-.02,.23-.02,.47,0,.7v1.32h-2.58Z"/>
    <circle class="cls-15" cx="346.08" cy="175.25" r="18.48" transform="translate(119.94 490.45) rotate(-81.2)"/>
    <path class="cls-6" d="M352.44,182.72h-12.68v-1.56c0-3.5,2.84-6.34,6.34-6.34h0c3.5,0,6.34,2.84,6.34,6.34v1.56Z"/>
    <circle class="cls-6" cx="346.1" cy="171.54" r="3.73"/>
    <rect class="cls-1" x="313.17" y="214.9" width="62.28" height="12.72"/>
    <rect class="cls-1" x="313.17" y="233.36" width="62.28" height="12.72"/>
    <path class="cls-15" d="M360.48,271.36h-31.26c-3.51,0-6.35-2.83-6.36-6.34v-.02h0c0-3.51,2.85-6.36,6.36-6.36h31.26c3.51,0,6.36,2.85,6.36,6.36h0c0,3.51-2.85,6.36-6.36,6.36Z"/>
    <path class="cls-13" d="M364.37,207.24c0,.31-8.75,.57-19.54,.57s-19.55-.26-19.55-.57,8.75-.58,19.55-.58,19.54,.26,19.54,.58Z"/>
    <path class="cls-10" d="M321.77,224.06h-2.77c-.27,0-.48-.2-.49-.47,0,0,0,0,0-.01h0c0-1.01,.81-1.83,1.82-1.84,0,0,0,0,.01,0h.06c1.02,0,1.84,.82,1.84,1.84h0c0,.26-.21,.47-.47,.48Z"/>
    <path class="cls-10" d="M321.49,220.78c0,.61-.49,1.1-1.1,1.1s-1.1-.49-1.1-1.1c0-.61,.49-1.1,1.1-1.1,.6,0,1.09,.48,1.1,1.08,0,0,0,.01,0,.02Z"/>
    <rect class="cls-10" x="318.75" y="239.92" width="3.28" height="2.32"/>
    <path class="cls-10" d="M322.4,240.42h-1.1v-.72c0-.51-.42-.93-.93-.93-.51,0-.92,.42-.93,.93v.72h-1.1v-.72c0-1.12,.91-2.03,2.03-2.03s2.03,.91,2.03,2.03v.72Z"/>
    <path class="cls-7" d="M309.11,70.38h-10.69c-1.09-.1-2.18,.02-3.22,.35-1.08,.43-1.98,1.23-2.54,2.26-.3,.53-.5,1.11-.6,1.71-.08,.62-.1,1.25-.06,1.87v2c.03,.67-.01,1.34-.13,2-.3,1.42-1.16,2.66-2.38,3.44-.64,.4-1.35,.66-2.1,.75-.76,.06-1.5,0-2.27,0h-38.79c-.52,.02-1.04-.03-1.55-.15-1.04-.26-1.97-.83-2.66-1.65-.72-.81-1.17-1.82-1.3-2.9-.06-.53-.08-1.07-.06-1.6v-1.52c.09-1.06-.02-2.13-.32-3.15-.36-1.01-1.03-1.89-1.91-2.5-.91-.61-1.99-.91-3.08-.85h-24.66c-5.06-.2-9.92,1.96-13.17,5.84-1.65,1.98-2.81,4.33-3.39,6.84-.16,.62-.21,1.28-.33,1.92s-.05,1.09-.07,1.64V350.28c-.05,1.75,.18,3.5,.66,5.19,1.07,3.55,3.3,6.64,6.35,8.76,3.08,2.08,6.76,3.09,10.47,2.88h97.22c3.45,0,6.92,.06,10.33,0,3.39-.2,6.62-1.45,9.26-3.59,1.28-1.07,2.41-2.31,3.34-3.7,.91-1.39,1.6-2.92,2.05-4.52,.44-1.6,.65-3.25,.62-4.91v-24.68c0-51.87,.05-98.57,.07-137.8s.08-71,.1-92.91v-7.77c.05-2.27-.36-4.52-1.2-6.63-.73-1.8-1.78-3.46-3.1-4.89-1.08-1.19-2.33-2.2-3.72-3-1.87-1.13-3.96-1.86-6.13-2.14-.55-.08-1.11-.13-1.67-.15h-2.8l-6.57-.04Z"/>
    <path class="cls-13" d="M318.08,70.44h.57c.56,0,1.11,.04,1.66,.12,2.18,.27,4.29,.99,6.17,2.13,1.39,.8,2.66,1.82,3.75,3,1.33,1.44,2.39,3.1,3.13,4.91,.85,2.12,1.27,4.39,1.23,6.67V349.94c.03,1.69-.18,3.37-.63,5-.46,1.64-1.17,3.2-2.1,4.63-.95,1.43-2.1,2.71-3.42,3.8-2.7,2.19-6.03,3.48-9.5,3.69-3.44,.1-6.87,0-10.33,0h-96.87c-3.8,.2-7.56-.86-10.71-3-3.13-2.18-5.42-5.35-6.51-9-.52-1.81-.75-3.68-.69-5.56V87.01c0-.66,.05-1.33,.09-2s.16-1.32,.33-2c.59-2.57,1.78-4.97,3.46-7,3.31-3.94,8.26-6.14,13.41-5.94h24.59c1.15-.06,2.29,.25,3.24,.9,.93,.65,1.63,1.58,2,2.65,.31,1.05,.42,2.15,.33,3.24v1.6c-.04,.52-.04,1.05,0,1.57,.13,1.02,.56,1.98,1.23,2.75,.65,.77,1.53,1.31,2.51,1.56,.49,.11,.98,.16,1.48,.15h40.92c.71-.08,1.39-.32,2-.7,1.18-.75,2.01-1.94,2.3-3.31,.12-.66,.16-1.33,.13-2v-2c-.03-.64,0-1.28,.08-1.91,.1-.62,.31-1.21,.62-1.76,.58-1.06,1.51-1.88,2.63-2.32,1.05-.34,2.16-.45,3.26-.35h0c-1.08-.1-2.17,.01-3.21,.34-1.08,.44-1.98,1.24-2.54,2.26-.29,.53-.49,1.11-.59,1.71-.09,.63-.11,1.26-.08,1.89v2c.03,.67-.01,1.34-.13,2-.3,1.42-1.16,2.66-2.38,3.44-.63,.4-1.35,.65-2.09,.74-.76,.07-1.5,0-2.26,0h-38.49c-.52,.02-1.04-.04-1.54-.16-1.04-.26-1.97-.83-2.66-1.64-.71-.81-1.16-1.82-1.3-2.89-.03-.54-.03-1.07,0-1.61v-1.6c.09-1.06-.02-2.13-.32-3.15-.36-1.01-1.03-1.88-1.91-2.49-.9-.61-1.98-.91-3.07-.85h-24.6c-5.04-.19-9.89,1.96-13.13,5.83-1.65,1.98-2.81,4.31-3.38,6.82-.17,.63-.22,1.28-.33,1.92s-.08,1.3-.09,2V349.57c-.05,1.83,.17,3.66,.67,5.43,1.06,3.55,3.3,6.64,6.34,8.75,3.07,2.08,6.74,3.09,10.44,2.87h96.91c3.45,0,6.91,.06,10.31,0,3.38-.19,6.61-1.45,9.23-3.58,1.29-1.07,2.41-2.31,3.34-3.7,.9-1.39,1.57-2.91,2-4.51,.45-1.59,.65-3.24,.62-4.89v-24.65c0-51.76,.05-98.38,.08-137.54s.07-70.84,.09-92.74v-7.75c.05-2.26-.36-4.52-1.2-6.62-.73-1.8-1.78-3.45-3.09-4.88-1.08-1.18-2.33-2.19-3.71-3-1.87-1.14-3.95-1.88-6.12-2.16-.55-.08-1.1-.13-1.66-.15h-.51Z"/>
    <path class="cls-13" d="M321.26,97.06c0,.07-2.71,.15-6.06,.18s-6.07,0-6.07-.08,2.71-.15,6.06-.18,6.07,.01,6.07,.08Z"/>
    <path class="cls-13" d="M321.29,100.17c0,.07-2.72,.15-6.07,.17s-6.07,0-6.07-.07,2.72-.15,6.07-.18,6.07,0,6.07,.08Z"/>
    <path class="cls-13" d="M321.31,103.27c0,.07-2.71,.15-6.06,.18s-6.07,0-6.07-.08,2.71-.15,6.06-.18,6.07,.01,6.07,.08Z"/>
    <path class="cls-13" d="M210.88,106.81h.96l2.59-.06-.07,.08v-2.97c.09-.42,.44-.74,.87-.79h1.24c.49,.07,.86,.5,.85,1v2.74l-.12-.12h3.27l-.13,.13c0-1.33,0-2.69,0-4.08v-1c-.03-.31-.2-.6-.46-.78l-1.43-1.41-1.45-1.47-.67-.66c-.23-.22-.41-.45-.67-.5-.26-.07-.53-.02-.75,.14-.2,.17-.41,.41-.61,.6l-1.17,1.18c-.74,.77-1.51,1.47-2.07,2.13-.16,.38-.22,.81-.16,1.22v4.2c.01,.14,.01,.28,0,.42v-5.24c-.01-.24,.05-.48,.18-.69,.6-.74,1.32-1.4,2.07-2.18l1.16-1.2c.21-.2,.38-.41,.63-.62,.27-.2,.62-.27,.95-.19,.31,.11,.58,.3,.78,.56l.67,.66c.46,.44,.92,.9,1.39,1.36l1.27,1.4c.13,.12,.25,.26,.36,.4,.11,.16,.17,.35,.18,.55v5.2h-3.52v-2.86c0-.39-.28-.72-.66-.79h-1.19c-.35,.04-.63,.3-.7,.64v3h-3.39c-.07,0-.13,0-.2,0Z"/>
    <rect class="cls-4" x="206.01" y="123.22" width="114.62" height="20.85" rx="8.79" ry="8.79"/>
    <path class="cls-13" d="M311.83,144.07l.66-.05c1.69-.14,3.31-.77,4.65-1.82,1.13-.87,2.03-2.01,2.61-3.31,.35-.77,.59-1.59,.69-2.43,.09-.93,.11-1.87,.08-2.81,.04-1.02,0-2.05-.13-3.06-.19-1.06-.58-2.08-1.14-3-1.28-2.09-3.38-3.54-5.78-4-1.33-.16-2.66-.21-4-.15h-4.23l-90.45,.06c-4.45,0-8.16,3.42-8.54,7.86-.08,1,0,2.14,0,3.2-.06,1.04,.05,2.09,.32,3.1,.57,1.99,1.83,3.72,3.56,4.86,.84,.56,1.78,.96,2.77,1.18,.99,.19,1.99,.27,3,.23h58.48l27.41,.07h0l-27.41,.06h-58.49c-1.04,.05-2.09-.03-3.11-.23-1.04-.23-2.02-.65-2.91-1.24-1.82-1.19-3.14-3.01-3.73-5.1-.28-1.05-.4-2.13-.34-3.21v-3.23c.39-4.68,4.3-8.28,9-8.26l90.45,.06h4.23c1.34-.05,2.67,0,4,.17,3.66,.72,6.48,3.63,7.09,7.31,.12,1.03,.16,2.06,.12,3.09,.02,.94-.01,1.89-.1,2.83-.12,.85-.36,1.69-.72,2.47-.61,1.32-1.53,2.47-2.69,3.35-.85,.64-1.8,1.12-2.81,1.43-.62,.18-1.26,.29-1.91,.33-.4,.25-.63,.24-.63,.24Z"/>
    <path class="cls-13" d="M313.6,133.15s0-.33-.2-.9c-.22-.8-.71-1.51-1.38-2-1.59-1.18-3.84-.85-5.02,.74-1.18,1.59-.85,3.84,.74,5.02,1.27,.95,3.01,.95,4.29,0,.67-.49,1.16-1.2,1.38-2,.17-.56,.16-.9,.2-.9s0,.08,0,.24c0,.23-.01,.47-.06,.7-.18,.87-.67,1.64-1.37,2.18-1.06,.83-2.46,1.06-3.73,.61-2.06-.8-3.08-3.11-2.29-5.17,.41-1.05,1.24-1.88,2.29-2.29,1.27-.45,2.67-.22,3.73,.61,.7,.54,1.18,1.31,1.37,2.18,.05,.23,.07,.47,.06,.7,.02,.19,.02,.28,0,.28Z"/>
    <path class="cls-13" d="M315.68,139.66c-.7-.45-1.33-1.02-1.85-1.68-.62-.57-1.14-1.25-1.53-2,.71,.46,1.33,1.03,1.85,1.69,.62,.57,1.14,1.24,1.53,1.99Z"/>
    <path class="cls-10" d="M221.48,131.57h-2v-.53h4.7v.53h-2v5.29h-.62l-.08-5.29Z"/>
    <path class="cls-10" d="M228.35,134.85h-3.66c.05,.89,.82,1.57,1.71,1.52,0,0,0,0,0,0,.51,.02,1-.2,1.34-.58l.33,.39c-.87,.93-2.33,.99-3.26,.12-.46-.42-.72-1.01-.74-1.64-.06-1.16,.83-2.16,2-2.22,.05,0,.1,0,.14,0,1.15-.02,2.1,.9,2.11,2.04,0,.06,0,.12,0,.18l.02,.19Zm-3.66-.44h3.1c0-.86-.69-1.55-1.55-1.55s-1.55,.69-1.55,1.55Z"/>
    <path class="cls-10" d="M232.22,136.85l-1.39-1.83-1.4,1.83h-.66l1.73-2.28-1.65-2.13h.67l1.31,1.71,1.31-1.71h.65l-1.64,2.13,1.74,2.24-.67,.04Z"/>
    <path class="cls-10" d="M236.18,136.57c-.26,.21-.59,.32-.93,.31-.64,.07-1.21-.39-1.28-1.03,0-.08,0-.16,0-.24v-2.64h-.78v-.5h.81v-1h.59v1h1.33v.5h-1.33v2.6c-.05,.38,.22,.74,.6,.79,.05,0,.11,0,.16,0,.24,0,.47-.07,.65-.22l.18,.43Z"/>
    <path class="cls-9" d="M284.19,163.93c0,.12-8.39,.21-18.73,.21s-18.74-.09-18.74-.21,8.39-.22,18.74-.22,18.73,.1,18.73,.22Z"/>
    <path class="cls-13" d="M314.07,171.62c0,.12-15.08,.21-33.67,.21s-33.68-.09-33.68-.21,15.08-.22,33.68-.22,33.67,.1,33.67,.22Z"/>
    <path class="cls-13" d="M313.28,177.11c0,.12-14.9,.21-33.28,.21s-33.28-.09-33.28-.21,14.9-.21,33.28-.21,33.28,.09,33.28,.21Z"/>
    <path class="cls-13" d="M286,182.35c0,.12-8.8,.21-19.65,.21s-19.65-.09-19.65-.21,8.8-.21,19.65-.21,19.65,.09,19.65,.21Z"/>
    <path class="cls-9" d="M284.19,205.73c0,.11-8.39,.21-18.73,.21s-18.74-.1-18.74-.21,8.39-.22,18.74-.22,18.73,.06,18.73,.22Z"/>
    <path class="cls-13" d="M314.07,213.42c0,.11-15.08,.21-33.67,.21s-33.68-.1-33.68-.21,15.08-.22,33.68-.22,33.67,.1,33.67,.22Z"/>
    <path class="cls-13" d="M313.28,218.91c0,.12-14.9,.21-33.28,.21s-33.28-.09-33.28-.21,14.9-.22,33.28-.22,33.28,.1,33.28,.22Z"/>
    <path class="cls-13" d="M286,224.15c0,.11-8.8,.21-19.65,.21s-19.65-.1-19.65-.21,8.8-.22,19.65-.22,19.65,.1,19.65,.22Z"/>
    <path class="cls-9" d="M284.19,247.57c0,.12-8.39,.22-18.73,.22s-18.74-.1-18.74-.22,8.39-.21,18.74-.21,18.73,.05,18.73,.21Z"/>
    <path class="cls-13" d="M314.07,255.21c0,.12-15.08,.22-33.67,.22s-33.68-.1-33.68-.22,15.08-.21,33.68-.21,33.67,.1,33.67,.21Z"/>
    <path class="cls-13" d="M313.28,260.71c0,.11-14.9,.21-33.28,.21s-33.28-.1-33.28-.21,14.9-.22,33.28-.22,33.28,.08,33.28,.22Z"/>
    <path class="cls-13" d="M286,265.94c0,.12-8.8,.22-19.65,.22s-19.65-.1-19.65-.22,8.8-.21,19.65-.21,19.65,.1,19.65,.21Z"/>
    <path class="cls-9" d="M284.19,289.32c0,.12-8.39,.21-18.73,.21s-18.74-.09-18.74-.21,8.39-.21,18.74-.21,18.73,.09,18.73,.21Z"/>
    <path class="cls-13" d="M314.07,297.01c0,.12-15.08,.21-33.67,.21s-33.68-.09-33.68-.21,15.08-.21,33.68-.21,33.67,.09,33.67,.21Z"/>
    <path class="cls-13" d="M313.28,302.5c0,.12-14.9,.22-33.28,.22s-33.28-.1-33.28-.22,14.9-.21,33.28-.21,33.28,.1,33.28,.21Z"/>
    <path class="cls-13" d="M286,307.74c0,.12-8.8,.22-19.65,.22s-19.65-.1-19.65-.22,8.8-.21,19.65-.21,19.65,.09,19.65,.21Z"/>
    <path class="cls-9" d="M284.19,330.83c0,.11-8.39,.21-18.73,.21s-18.74-.1-18.74-.21,8.39-.22,18.74-.22,18.73,.1,18.73,.22Z"/>
    <path class="cls-13" d="M314.07,338.57c0,.11-15.08,.21-33.67,.21s-33.68-.1-33.68-.21,15.08-.22,33.68-.22,33.67,.05,33.67,.22Z"/>
    <path class="cls-13" d="M313.28,344.01c0,.12-14.9,.21-33.28,.21s-33.28-.09-33.28-.21,14.9-.21,33.28-.21,33.28,.09,33.28,.21Z"/>
    <path class="cls-13" d="M286,349.25c0,.12-8.8,.21-19.65,.21s-19.65-.09-19.65-.21,8.8-.22,19.65-.22,19.65,.1,19.65,.22Z"/>
    <rect class="cls-15" x="210.32" y="159.91" width="22.94" height="30.52" transform="translate(45.38 395.97) rotate(-89.68)"/>
    <polygon class="cls-9" points="206.46 186.56 217.2 172.36 223.76 181.32 228.26 176.57 236.99 186.73 206.46 186.56"/>
    <path class="cls-9" d="M226.62,170.66c0,1.33-1.08,2.41-2.41,2.41-1.33,0-2.41-1.08-2.41-2.41,0-1.33,1.08-2.41,2.41-2.41,0,0,.01,0,.02,0,1.33,0,2.4,1.08,2.39,2.41h0Z"/>
    <polygon class="cls-14" points="206.46 186.56 217.2 172.36 223.76 181.32 228.26 176.57 236.99 186.73 206.46 186.56"/>
    <path class="cls-14" d="M226.62,170.66c0,1.33-1.08,2.41-2.41,2.41-1.33,0-2.41-1.08-2.41-2.41,0-1.33,1.08-2.41,2.41-2.41,0,0,.01,0,.02,0,1.33,0,2.4,1.08,2.39,2.41h0Z"/>
    <rect class="cls-15" x="210.33" y="201.18" width="22.94" height="30.52" transform="translate(4.12 437.02) rotate(-89.68)"/>
    <polygon class="cls-9" points="206.46 227.82 217.2 213.62 223.76 222.58 228.26 217.84 236.99 228 206.46 227.82"/>
    <path class="cls-9" d="M226.62,211.93c0,1.33-1.09,2.41-2.42,2.4s-2.41-1.09-2.4-2.42,1.09-2.41,2.42-2.4c0,0,0,0,0,0,1.33,0,2.4,1.08,2.39,2.41,0,0,0,0,0,.01Z"/>
    <polygon class="cls-14" points="206.46 227.82 217.2 213.62 223.76 222.58 228.26 217.84 236.99 228 206.46 227.82"/>
    <path class="cls-14" d="M226.62,211.93c0,1.33-1.09,2.41-2.42,2.4s-2.41-1.09-2.4-2.42,1.09-2.41,2.42-2.4c0,0,0,0,0,0,1.33,0,2.4,1.08,2.39,2.41,0,0,0,0,0,.01Z"/>
    <rect class="cls-15" x="210.31" y="242.45" width="22.94" height="30.52" transform="translate(-37.16 478.05) rotate(-89.68)"/>
    <polygon class="cls-9" points="206.46 269.09 217.2 254.89 223.76 263.85 228.26 259.1 236.99 269.26 206.46 269.09"/>
    <path class="cls-9" d="M226.62,253.2c0,1.33-1.09,2.41-2.42,2.4s-2.41-1.09-2.4-2.42,1.09-2.41,2.42-2.4c0,0,0,0,0,0,1.32,.02,2.39,1.1,2.39,2.42Z"/>
    <polygon class="cls-14" points="206.46 269.09 217.2 254.89 223.76 263.85 228.26 259.1 236.99 269.26 206.46 269.09"/>
    <path class="cls-14" d="M226.62,253.2c0,1.33-1.09,2.41-2.42,2.4s-2.41-1.09-2.4-2.42,1.09-2.41,2.42-2.4c0,0,0,0,0,0,1.32,.02,2.39,1.1,2.39,2.42Z"/>
    <rect class="cls-15" x="210.32" y="283.71" width="22.94" height="30.52" transform="translate(-78.41 519.09) rotate(-89.68)"/>
    <polygon class="cls-9" points="206.46 310.36 217.2 296.16 223.76 305.12 228.26 300.37 236.99 310.53 206.46 310.36"/>
    <path class="cls-9" d="M226.62,294.46c0,1.33-1.08,2.41-2.41,2.41-1.33,0-2.41-1.08-2.41-2.41,0-1.33,1.08-2.41,2.41-2.41,0,0,.01,0,.02,0,1.33,0,2.4,1.08,2.39,2.41h0Z"/>
    <polygon class="cls-14" points="206.46 310.36 217.2 296.16 223.76 305.12 228.26 300.37 236.99 310.53 206.46 310.36"/>
    <path class="cls-14" d="M226.62,294.46c0,1.33-1.08,2.41-2.41,2.41-1.33,0-2.41-1.08-2.41-2.41,0-1.33,1.08-2.41,2.41-2.41,0,0,.01,0,.02,0,1.33,0,2.4,1.08,2.39,2.41h0Z"/>
    <rect class="cls-15" x="210.31" y="324.78" width="22.94" height="30.52" transform="translate(-119.49 559.92) rotate(-89.68)"/>
    <polygon class="cls-9" points="206.46 351.42 217.2 337.22 223.76 346.18 228.26 341.44 236.99 351.59 206.46 351.42"/>
    <path class="cls-9" d="M226.62,335.57c0,1.33-1.09,2.41-2.42,2.4-1.33,0-2.41-1.09-2.4-2.42,0-1.33,1.09-2.41,2.42-2.4,0,0,0,0,0,0,1.32,.02,2.39,1.1,2.39,2.42Z"/>
    <polygon class="cls-14" points="206.46 351.42 217.2 337.22 223.76 346.18 228.26 341.44 236.99 351.59 206.46 351.42"/>
    <path class="cls-14" d="M226.62,335.57c0,1.33-1.09,2.41-2.42,2.4-1.33,0-2.41-1.09-2.4-2.42,0-1.33,1.09-2.41,2.42-2.4,0,0,0,0,0,0,1.32,.02,2.39,1.1,2.39,2.42Z"/>
    <circle class="cls-15" cx="436.03" cy="124.3" r="10.88" transform="translate(215.31 520.35) rotate(-76.78)"/>
    <path class="cls-6" d="M435.36,127.85c-.11,0-.22-.04-.31-.12l-3.67-3c-.22-.18-.25-.49-.07-.71,.18-.22,.49-.25,.71-.07h0l3.27,2.7,4.65-5.69c.18-.21,.49-.24,.71-.07,.21,.17,.24,.49,.07,.7l-5,6.08c-.08,.1-.21,.17-.34,.18h-.02Z"/>
    <circle class="cls-15" cx="389.07" cy="109.39" r="14.92"/>
    <path class="cls-6" d="M388.17,114.57c-.23,0-.45-.08-.63-.22l-5-4.14c-.42-.35-.49-.97-.14-1.4,.35-.43,.98-.49,1.41-.14,0,0,0,0,0,0l4.24,3.49,6.16-7.59c.35-.42,.97-.49,1.4-.14,.43,.35,.49,.98,.14,1.41,0,0,0,0,0,0l-6.8,8.33c-.17,.2-.42,.33-.68,.36l-.1,.04Z"/>
  </g>
  <g id="freepik--magnifying-glass--inject-6">
    <path class="cls-13" d="M325.79,311.99c-15.6-4.42-25.18-20.1-22-36-.28,.76-.55,1.54-.78,2.34-4.38,16.61,5.53,33.62,22.14,38,16.16,4.26,32.8-5.01,37.68-21,.23-.8,.41-1.61,.57-2.41-5.65,15.19-22.02,23.49-37.61,19.07Z"/>
    <path class="cls-12" d="M341.12,257.03c15.6,4.43,25.17,20.1,22,36,.28-.77,.55-1.55,.77-2.35,4.79-16.49-4.7-33.74-21.19-38.52-16.49-4.79-33.74,4.7-38.52,21.19-.03,.11-.06,.22-.09,.33-.23,.8-.41,1.6-.57,2.41,5.65-15.19,22.02-23.48,37.61-19.06Z"/>
    <path class="cls-13" d="M364.23,290.48s0-.17,.09-.5,.17-.83,.3-1.44c.07-.32,.15-.68,.24-1.07s.1-.83,.16-1.3c.16-1.08,.24-2.17,.25-3.26,.09-2.99-.27-5.98-1.07-8.87-2.31-8.56-8.17-15.72-16.1-19.68-1.18-.58-2.4-1.08-3.64-1.5-.63-.2-1.26-.45-1.91-.62l-2-.46c-.33-.07-.66-.16-1-.21l-1-.13c-.69-.08-1.38-.19-2.09-.24-1.43-.09-2.86-.09-4.29,0-1.46,.1-2.92,.3-4.35,.6-.72,.17-1.43,.39-2.16,.58-.73,.2-1.44,.44-2.14,.73-1.43,.54-2.83,1.18-4.18,1.9-1.35,.78-2.65,1.66-3.88,2.62-2.55,1.96-4.77,4.33-6.56,7-3.76,5.49-5.64,12.07-5.33,18.72,.13,3.21,.78,6.38,1.92,9.38,.54,1.46,1.19,2.89,1.93,4.26,.76,1.33,1.61,2.61,2.55,3.82,.44,.62,.92,1.2,1.44,1.75,.52,.54,1,1.11,1.53,1.63,1.07,1.01,2.2,1.94,3.39,2.8,1.16,.84,2.37,1.6,3.63,2.29,.62,.32,1.27,.59,1.9,.89l.95,.43c.32,.14,.65,.23,1,.35l1.94,.66c.64,.19,1.31,.32,1.95,.48,1.28,.3,2.57,.51,3.88,.63,8.83,.8,17.58-2.21,24.05-8.27,2.2-2.04,4.08-4.4,5.57-7,.57-.93,1.07-1.91,1.5-2.91,.2-.43,.4-.82,.55-1.19l.36-1c.22-.59,.38-1.06,.5-1.39s.19-.47,.19-.47c0,0,0,.17-.14,.49s-.26,.8-.45,1.41c-.1,.31-.21,.65-.34,1s-.34,.78-.53,1.21c-.41,1.02-.9,2.01-1.46,2.95-1.48,2.63-3.35,5.02-5.55,7.09-6.5,6.19-15.35,9.27-24.29,8.48-1.32-.12-2.64-.33-3.93-.63-.66-.16-1.33-.28-2-.48l-2-.66c-.32-.12-.66-.21-1-.35l-1-.44c-.64-.3-1.3-.57-1.93-.9-1.27-.69-2.5-1.45-3.68-2.29-1.21-.87-2.37-1.82-3.45-2.84-.54-.53-1-1.1-1.56-1.65-.53-.56-1.01-1.15-1.46-1.77-.95-1.23-1.82-2.53-2.6-3.88-.76-1.4-1.43-2.84-2-4.33-1.18-3.05-1.85-6.27-2-9.54-.33-6.75,1.57-13.43,5.41-19,1.83-2.71,4.09-5.1,6.68-7.08,1.25-.97,2.57-1.86,3.95-2.65,1.37-.73,2.79-1.38,4.24-1.93,.71-.29,1.44-.53,2.18-.73,.74-.19,1.46-.42,2.2-.58,1.46-.31,2.93-.51,4.42-.61,1.45-.09,2.9-.09,4.35,0,.72,.05,1.42,.17,2.13,.25l1,.13c.35,.05,.69,.15,1,.23l2,.46c.66,.18,1.3,.43,1.94,.64,1.26,.43,2.49,.95,3.68,1.54,8.02,4.03,13.92,11.32,16.19,20,.79,2.91,1.13,5.93,1,8.94-.02,1.1-.12,2.2-.3,3.28-.07,.47-.11,.91-.19,1.31s-.18,.74-.25,1.06c-.16,.61-.28,1.09-.36,1.44,.08,.26,.03,.42,.03,.42Z"/>
    <path class="cls-13" d="M352.41,308.21c.4,.27,29.84,27.42,40.68,37.58,1.84,1.72,4.71,1.7,6.51-.06h0c1.87-1.8,1.93-4.79,.12-6.66-.06-.06-.12-.12-.18-.18l-40.41-37.32-6.72,6.64Z"/>
  </g>
  <g id="freepik--Character--inject-6">
    <path class="cls-8" d="M201.15,209.68l.6-2.36c.39-1.55,.35-3.18-.1-4.71l-2.47-8.24c-.23-.76-.74-1.4-1.42-1.79-1.88-1.08-5.59-3.16-5.91-2.9-2.27,1.89,2.81,5.22,2.81,5.22,0,0,2,2.19,.41,3.81-1.77,1.84-5.08-2.2-5.08-2.2,0,0,.17-.42,.33-.34,.92,.73,2.02,1.21,3.19,1.37v-2.68l-3-1.88c-.66-.42-1.46-.56-2.23-.4l-1,.23c-.67,.14-1.26,.54-1.64,1.11l-1,1.48-.42,.57c-.41,.55-.48,1.28-.2,1.9l.48,1-.66,.92c-.54,.77-.67,1.76-.33,2.64l5.07,7,7.5,12.25,8.12-8.72-3.05-3.28Z"/>
    <path class="cls-3" d="M185.43,202.44c-.12-.15-.21-.32-.27-.51-.14-.45-.05-.93,.24-1.3h0v-.06l-.08-.18c-.3-.7-.66-1.37-1.09-2,.24,.71,.55,1.41,.91,2.07l.09,.18v-.11c-.33,.41-.42,.98-.22,1.47,.17,.34,.41,.47,.42,.44Z"/>
    <path class="cls-3" d="M186.05,193.35c-.2,.44-.26,.93-.16,1.4,.28,1.14,.74,2.24,1.37,3.23,.2,.29,.35,.61,.47,.94,.09,.33,.11,.67,.06,1-.1,.51-.03,1.03,.18,1.5,.25,.41,.59,.75,1,1-.51-.1-.95-.45-1.17-.92-.27-.49-.37-1.07-.27-1.62,.03-.3,0-.6-.07-.89-.12-.31-.27-.6-.45-.87-.65-1.02-1.1-2.16-1.32-3.35-.15-.96,.31-1.47,.36-1.42Z"/>
    <path class="cls-3" d="M190.05,196.39c-.09-.38-.22-.76-.38-1.12-.31-.58-.64-1-.57-1.08s.51,.3,.85,.94,.2,1.3,.1,1.26Z"/>
    <polygon class="cls-12" points="203.93 251.58 207.02 255.46 223.08 236.17 202.05 208.51 191.66 216.66 203.93 251.58"/>
    <polygon class="cls-15" points="275.37 438.23 276.7 469.57 293.63 469.19 292.36 437.79 275.37 438.23"/>
    <path class="cls-13" d="M285,468.2c.14,0-.12-6.87-.58-15.33s-1-15.31-1.1-15.3,.12,6.87,.59,15.33,.96,15.31,1.09,15.3Z"/>
    <polygon class="cls-13" points="276.61 467.41 293.54 466.98 293.63 469.19 276.7 469.57 276.61 467.41"/>
    <path class="cls-13" d="M293.22,459.16s-.13-.27-.46-.67c-.48-.56-1.01-1.08-1.58-1.54-.86-.7-1.81-1.27-2.82-1.71-3.64-1.57-7.88-.58-10.44,2.45-.48,.57-.87,1.21-1.16,1.89-.12,.24-.2,.51-.23,.78,.49-.86,1.04-1.67,1.66-2.44,1.61-1.75,3.85-2.79,6.22-2.89,2.37-.04,4.68,.74,6.54,2.21,1.47,1.08,2.2,1.98,2.27,1.92Z"/>
    <g class="cls-17">
      <polygon points="292.72 446.72 292.86 450.18 275.89 450.48 275.78 447.88 292.72 446.72"/>
    </g>
    <path class="cls-15" d="M235.53,440.1l.83,19.08s-19.11,7.25-19.3,10.79l37-.27-.06-29.78-18.47,.18Z"/>
    <path class="cls-10" d="M247.56,457.57c.75,.22,1.2,.97,1.06,1.73-.19,.75-.94,1.23-1.7,1.08-.78-.23-1.26-1.01-1.12-1.81,.28-.77,1.12-1.18,1.9-.92"/>
    <path class="cls-13" d="M254.1,469.69v-3l-35.85,1.36s-1.66,.73-1.46,1.9l37.31-.26Z"/>
    <path class="cls-13" d="M236,459.31c0,.18,.92,.25,1.82,.83s1.39,1.34,1.55,1.27-.11-1.12-1.21-1.8-2.16-.47-2.16-.3Z"/>
    <path class="cls-13" d="M232.12,460.95c0,.18,.75,.48,1.38,1.25s.81,1.58,1,1.57,.29-1-.51-2-1.86-.99-1.87-.82Z"/>
    <path class="cls-13" d="M229.93,465.65c.17,0,.42-.87-.06-1.87s-1.33-1.38-1.4-1.23,.45,.68,.83,1.51,.45,1.58,.63,1.59Z"/>
    <path class="cls-13" d="M236.32,454.91c.08,.16,.91-.1,1.94,0s1.84,.38,1.93,.22-.68-.8-1.9-.86-2.06,.49-1.97,.64Z"/>
    <path class="cls-13" d="M235.63,450.8c.61,.17,1.25,.17,1.86,0,.67-.13,1.33-.34,1.95-.62,.37-.16,.73-.36,1.07-.58,.21-.11,.4-.26,.56-.44,.27-.27,.3-.69,.08-1-.19-.26-.48-.41-.8-.41-.24,0-.47,.03-.7,.1-.4,.1-.79,.24-1.16,.41-.63,.29-1.2,.67-1.71,1.14-.86,.81-1.15,1.49-1.09,1.53s.5-.52,1.37-1.18c.51-.4,1.07-.74,1.66-1,.35-.14,.71-.25,1.07-.33,.4-.11,.74-.12,.84,.06s0,.09,0,.21c-.12,.12-.26,.23-.41,.32-.32,.21-.65,.4-1,.57-.58,.29-1.18,.53-1.8,.71-.61,.13-1.21,.3-1.79,.51Z"/>
    <path class="cls-13" d="M235.86,451.06c.07,0,.43-.63,.48-1.81,.03-.68-.06-1.35-.27-2-.12-.39-.28-.77-.48-1.13-.21-.5-.66-.86-1.2-.94-.34,.01-.64,.22-.78,.53-.09,.22-.15,.45-.18,.68-.07,.42-.07,.84,0,1.26,.11,.7,.38,1.36,.81,1.93,.73,1,1.5,1.17,1.51,1.11s-.58-.44-1.14-1.36c-.53-.84-.74-1.85-.58-2.84,.06-.39,.2-.71,.35-.67s.5,.29,.66,.6c.18,.32,.34,.65,.47,1,.21,.6,.34,1.23,.38,1.86,.11,1.07-.12,1.75-.03,1.78Z"/>
    <g class="cls-17">
      <polygon points="254.11 451.36 254.07 455.59 236.2 455.59 236.2 451.75 254.11 451.36"/>
    </g>
    <path class="cls-8" d="M314,133.86l2.65,10.28s1,5.68-1.66,5.67c-2.34,0-2.57-3.05-2.57-3.05,0,0,1.17-6.22-1.89-5.87-.43,.05-1.55,4.34-2.09,6.52-.2,.8-.08,1.64,.32,2.36l4.41,7.81c.83,1.44,2.02,2.64,3.46,3.47l2.21,1.25,.29,4.64,12.41,.2-3.78-14.48-1.58-8.83c-.43-.88-1.26-1.49-2.22-1.65l-1.17-.17-.44-1.12c-.27-.66-.87-1.12-1.58-1.22l-.72-.09-1-2.51c-.34-.83-2.77-6.3-3.67-6.29,0,0-2.03,.55-1.38,3.08Z"/>
    <path class="cls-3" d="M322.86,146.31c-.05-.38-.13-.76-.23-1.13-.32-.88-.91-1.64-1.69-2.15-.42-.86-.73-1.76-.93-2.69-.11-.38-.16-.78-.13-1.17,0,0,.08,.44,.27,1.13,.26,.89,.59,1.76,1,2.6,.18,.16,.4,.32,.61,.5,.5,.48,.87,1.08,1.06,1.74,.08,.28,.12,.56,.12,.85,0,.11-.03,.22-.08,.32Z"/>
    <path class="cls-3" d="M324.75,145.26c-.03-.2-.09-.39-.18-.56-.23-.43-.67-.71-1.15-.75h-.07v-.06l-.07-.19c-.3-.73-.54-1.48-.71-2.25,.37,.69,.67,1.42,.9,2.17l.08,.2-.09-.07c.55,.05,1.03,.39,1.26,.89,.14,.37,.06,.64,.03,.62Z"/>
    <path class="cls-8" d="M251.69,194.99l22.51-.29-2.51-19.13s1.54-.33,1.64-8.67,.49-22.5,.49-22.5h0c-9.65-4.14-20.79-2.74-29.12,3.66l-1.24,.95,8.23,45.98Z"/>
    <path class="cls-8" d="M246.08,159.24c-.14-.06-5.73-1.7-5.55,4s5.87,4.34,5.87,4.18-.32-8.18-.32-8.18Z"/>
    <path class="cls-8" d="M272.85,158.05c.14-.07,5.22-1.44,5,4.26s-5.87,4.35-5.87,4.18,.87-8.44,.87-8.44Z"/>
    <path class="cls-13" d="M244.23,158.57c.85,4.78,.68,7.29,1.47,10.48,1.25,5,3.75,8.92,8.3,11.44,4.55,2.52,10.7,2.47,14.61-1,2.71-2.38,4.63-5.07,5-8.66s.81-9.94,.83-13.54c0-6.51,.49-12.73,.49-12.73l-18.6-3.37-10.55,6.38-1.55,11Z"/>
    <path class="cls-13" d="M263.41,183.4c-2.14,.62-4.43,.36-6.38-.71,.06-.14,1.43,.29,3.18,.48,1.07,.02,2.14,.1,3.2,.23Z"/>
    <path class="cls-13" d="M245.13,166.72c-.55-4.89-.9-10.49-1.67-15.65-.28-1.94-1-4.73-.8-6.68,.05-1.97,.47-3.91,1.22-5.73,1.94-4,6.76-5.66,10.76-3.72,.65,.31,1.25,.71,1.79,1.19,1.8-2.78,5.51-3.58,8.29-1.79,1.5,.97,2.5,2.56,2.71,4.34,1.67-1.6,4.32-1.54,5.92,.13,1.04,1.08,1.42,2.63,1,4.07,2.23,.37,3.74,2.47,3.37,4.7-.09,.56-.3,1.09-.61,1.57-.86,1.33-2.41,2.06-3.36,3.32-1.09,1.51-1.21,3.52-.29,5.15"/>
    <path class="cls-12" d="M271,149.03c-.03,.19-.1,.38-.21,.54-.27,.48-.64,.89-1.08,1.21-.7,.52-1.55,.79-2.42,.77-1.15-.03-2.24-.53-3-1.4l.39-.1c-.27,1.32-1.21,2.4-2.48,2.85-1.4,.54-2.97,.34-4.19-.53-1.09-.75-1.92-1.84-2.36-3.09h.45c-.95,1.4-2.52,2.26-4.21,2.31-1.33,.02-2.61-.5-3.54-1.45-.61-.6-1.05-1.35-1.29-2.18-.11-.29-.14-.6-.1-.9,0,0,.07,.31,.27,.85,.28,.76,.74,1.45,1.34,2,.89,.84,2.08,1.28,3.3,1.24,1.54-.07,2.95-.86,3.8-2.14l.28-.43,.17,.48c.42,1.14,1.18,2.13,2.18,2.83,1.08,.77,2.48,.95,3.72,.49,1.11-.39,1.95-1.32,2.22-2.46l.09-.47,.3,.36c.67,.78,1.63,1.26,2.66,1.32,.8,.04,1.59-.17,2.25-.61,.58-.4,1.08-.9,1.46-1.49Z"/>
    <path class="cls-12" d="M270.91,146.77c-.11-.74-.38-1.45-.79-2.07-.49-.67-1.2-1.14-2-1.32-.98-.23-2.01-.03-2.83,.55l-.45,.32v-.56c.05-.55-.02-1.11-.19-1.64-.37-1.16-1.19-2.12-2.28-2.66-.91-.41-1.93-.5-2.9-.25-.9,.27-1.73,.73-2.42,1.36,.1-.24,.26-.46,.46-.63,.52-.51,1.16-.88,1.86-1.09,1.05-.32,2.19-.26,3.2,.18,1.24,.57,2.18,1.64,2.58,2.94,.19,.59,.26,1.22,.2,1.84l-.4-.23c.95-.65,2.14-.85,3.25-.56,1.47,.4,2.54,1.68,2.68,3.2,.12,.42,.06,.63,.03,.62Z"/>
    <path class="cls-12" d="M259.06,146.94c-.07,0,0-.32,0-.78-.05-.6-.25-1.18-.58-1.69-.37-.59-.82-1.19-1.07-1.51-.16-.16-.4-.2-.6-.11,0,0,0-.13,.12-.23,.21-.14,.49-.14,.7,0,.24,.2,.45,.41,.65,.65,.24,.28,.45,.57,.65,.88,.39,.59,.56,1.3,.5,2-.09,.56-.32,.82-.37,.79Z"/>
    <path class="cls-12" d="M248,139.77c-.06,0,0-.44,.35-1,.21-.36,.5-.66,.84-.89,.45-.29,.98-.41,1.51-.33,.91,.16,1.71,.67,2.26,1.41,.42,.53,.61,.89,.56,.94s-.36-.24-.83-.68c-.55-.59-1.26-.99-2.05-1.15-.79-.09-1.55,.27-2,.92-.36,.44-.54,.81-.64,.78Z"/>
    <path class="cls-12" d="M250.92,163.95c-1.71-2.21-2.64-4.93-2.65-7.72,.15,0,.45,1.79,1.18,3.91s1.61,3.73,1.47,3.81Z"/>
    <path class="cls-12" d="M253.42,165.31c-.64-.75-1.12-1.64-1.38-2.59-.43-.89-.66-1.86-.68-2.85,.51,.83,.9,1.73,1.17,2.67,.42,.88,.72,1.81,.89,2.77Z"/>
    <path class="cls-12" d="M269.08,165.7c.37,3.44-.92,6.85-3.47,9.19,.91-1.38,1.71-2.82,2.39-4.32,.49-1.59,.85-3.22,1.08-4.87Z"/>
    <path class="cls-12" d="M271.58,161.57c.6,1.43,.72,3.01,.36,4.52-.19,1.54-.86,2.97-1.93,4.09,.6-1.35,1.07-2.75,1.42-4.19,.18-1.47,.23-2.95,.15-4.42Z"/>
    <polyline class="cls-13" points="264.38 318.67 269.85 371.43 273.78 450.89 294.75 450.89 295.32 281.77 235.28 286.06 222.84 374.79 233.62 452.44 256.62 452.44 251.24 378.6 264.38 318.67"/>
    <path class="cls-12" d="M264.38,318.67c-2.6,2.8-5.45,5.37-8.51,7.66,1.24-1.45,2.6-2.79,4.08-4,1.36-1.35,2.84-2.58,4.43-3.66Z"/>
    <path class="cls-12" d="M264.32,317.57c-.09-2.26-.05-4.52,.11-6.77,0-2.26,.13-4.52,.39-6.76,.26,2.25,.3,4.52,.13,6.78,0,2.26-.2,4.53-.63,6.75Z"/>
    <path class="cls-12" d="M271.25,297.92c.11-.01,.23-.01,.34,0l1-.06,4-.19,14.22-.6h.24v15.47l-.17,.06-9.25,3.71h-.17l-8.17-2.84h-.13v-.13c-.6-4.61-1.1-8.45-1.45-11.2-.16-1.28-.28-2.31-.38-3.08-.05-.33-.09-.66-.1-1,.03,.1,.05,.2,.07,.3,0,.23,.08,.5,.14,.83,.12,.78,.28,1.82,.49,3.12,.41,2.71,1,6.48,1.66,11l-.14-.17,8.19,2.78h-.17l9.24-3.73-.16,.24v-15.04l.24,.23-14.06,.35-4,.07h-1.48v-.12Z"/>
    <path class="cls-12" d="M241,298.18c.1-.01,.21-.01,.31,0l.93-.05,3.6-.11,13-.3h.16v.24c-.14,4.38-.3,9.43-.47,14.8v.14l-.11,.07-1.5,1-7.6,5-.14,.09-.13-.09-8.56-5.21-.11-.07v-.12c.16-4.6,.3-8.43,.39-11.18,.06-1.28,.1-2.31,.14-3.08,0-.33,.03-.67,.07-1,.02,.1,.02,.2,0,.3v3.96c0,2.71-.1,6.5-.17,11.05l-.1-.19,8.6,5.15h-.31l7.59-5,1.51-1-.12,.2c.19-5.37,.38-10.42,.54-14.8l.23,.24-12.83,.07h-4.62l-.3-.11Z"/>
    <path class="cls-12" d="M288.84,322.08c-.95,.06-1.9,.03-2.84-.09-1.75-.13-4.17-.37-6.82-.71s-5.05-.73-6.77-1c-.94-.12-1.87-.33-2.77-.64,.95,0,1.89,.1,2.82,.27l6.79,.9,6.78,.86c.95,.06,1.89,.2,2.81,.41Z"/>
    <path class="cls-12" d="M288.35,380.89s-.08,.31-.49,.67c-.61,.49-1.37,.74-2.15,.73-1.15-.03-2.25-.46-3.13-1.2-1.04-.87-2-1.84-2.86-2.89-1.6-1.86-3.02-3.87-4.24-6-.55-.85-1-1.77-1.33-2.73,.59,.82,1.14,1.67,1.64,2.54,1.31,2.04,2.76,3.99,4.33,5.83,.84,1.03,1.76,1.98,2.76,2.85,.79,.7,1.79,1.13,2.84,1.21,.7,.04,1.41-.14,2-.52,.43-.27,.59-.51,.63-.49Z"/>
    <path class="cls-12" d="M246.94,382.75c-.03,.24-.13,.47-.28,.67-.37,.56-.87,1.03-1.45,1.38-.87,.51-1.87,.77-2.88,.75-1.23-.04-2.43-.42-3.46-1.1-1.82-1.26-3.26-2.99-4.17-5-.43-.78-.77-1.61-1-2.47,.51,.73,.97,1.5,1.36,2.3,.98,1.87,2.39,3.49,4.12,4.7,.95,.63,2.06,.99,3.2,1.06,.93,.04,1.86-.17,2.69-.59,.73-.43,1.37-1.01,1.87-1.7Z"/>
    <path class="cls-12" d="M248.28,374.79c-.51,.44-1.09,.78-1.73,1-3.01,1.25-6.37,1.39-9.47,.39-.65-.17-1.26-.46-1.8-.86,2.12,.67,4.33,1.01,6.55,1,2.21-.18,4.39-.7,6.45-1.53Z"/>
    <path class="cls-12" d="M316.52,188.57h-30.52s-4.16-2.39-6.17-2c-1.47,.47-2.78,1.35-3.75,2.55l4.05,33.68,9.9-7.33,36.86-3.83c3.19-.03,6.23-1.37,8.42-3.69h0c2.38-2.53,3.52-5.98,3.11-9.43l-6.82-36.23-14,.47-.55,9.19-.53,16.62Z"/>
    <path class="cls-12" d="M232.36,197.06c-3.28,2.03-5.86,5.03-7.38,8.58-1.79,4.28-14,25.66-20.38,36.84-2.33,4.07-1.71,9.18,1.53,12.57h0c3.9,4.07,8.56,2.48,14.25,.63,2.55-.83,14-18.44,14-18.44l-2.02-40.18Z"/>
    <polygon class="cls-12" points="237.68 273.45 230.67 213.14 232.36 197.06 250.2 189.46 273.32 187.94 295.32 190.37 290.18 252.23 295.81 287.12 234.17 289.9 237.68 273.45"/>
    <path class="cls-13" d="M237.65,273.19c-.15,0-1.82-13.41-3.75-30s-3.37-30-3.23-30.06,1.82,13.42,3.75,30,3.37,30.04,3.23,30.06Z"/>
    <path class="cls-13" d="M294.87,203.9c.02,.18,.02,.37,0,.55,0,.41-.09,.92-.14,1.54-.15,1.42-.34,3.35-.58,5.69-.49,4.87-1.15,11.47-1.88,18.77s-1.27,14-1.63,18.78c-.17,2.35-.31,4.28-.41,5.7-.05,.63-.09,1.14-.12,1.55-.01,.18-.04,.36-.08,.54-.03-.18-.03-.36,0-.54v-1.56c0-1.35,.12-3.3,.24-5.71,.27-4.82,.78-11.48,1.48-18.81s1.45-14,2-18.76c.3-2.4,.55-4.33,.75-5.67,.09-.62,.17-1.13,.23-1.54,.02-.18,.07-.36,.14-.53Z"/>
    <path class="cls-13" d="M284.27,263.95c-.31,.42-.64,.82-1,1.19-.39,.46-.81,.9-1.25,1.31-.52,.48-1.08,1.06-1.78,1.6-.74,.63-1.51,1.22-2.32,1.76-.91,.64-1.86,1.24-2.83,1.78-4.49,2.49-9.46,3.98-14.58,4.35-1.18,.05-2.3,.13-3.34,.07-.97-.02-1.94-.08-2.91-.2-.88-.07-1.67-.25-2.37-.37-.59-.1-1.18-.24-1.76-.41-.5-.11-.99-.26-1.47-.46,0-.12,2.13,.54,5.64,.87,.95,.1,1.91,.14,2.87,.13,1,.05,2.14-.05,3.3-.11,5.04-.42,9.94-1.88,14.39-4.29,1-.59,2-1.11,2.82-1.71s1.63-1.15,2.32-1.69c2.78-2.2,4.18-3.9,4.27-3.82Z"/>
    <g class="cls-17">
      <path d="M251.68,275.21c-3-.86-3.17-3.69-2-4.9s3-1.37,4.71-1.13c1.64,.4,3.31,.63,5,.67,2.74-.18,5-2.09,6.94-4.07s3.71-4.2,6.21-5.34,6-.73,7.3,1.68c.76,1.61,.65,3.49-.3,5-.94,1.48-2.21,2.73-3.71,3.64-7.06,4.81-15.81,6.43-24.12,4.45"/>
    </g>
    <path class="cls-13" d="M288.13,189.8c1.65,.6,3.05,1.72,4,3.19,1.09,1.37,1.71,3.06,1.77,4.81-.54-1.58-1.28-3.1-2.19-4.5-1.05-1.31-2.25-2.48-3.58-3.5Z"/>
    <path class="cls-7" d="M286,189.12c-.16-.12-.32-.22-.5-.3-.53-.22-1.11-.26-1.66-.11-.88,.22-1.67,.7-2.28,1.36-.78,.91-1.62,1.77-2.52,2.56-1.22,.83-2.66,1.27-4.14,1.27-1.57,.08-3.24-.08-5-.13-3.81-.14-7.62-.05-11.42,.25-6.91,.52-13.71,2.02-20.2,4.46-1.96,.75-3.88,1.6-5.75,2.55l-1.51,.8c-.35,.18-.54,.26-.54,.26,0,0,.17-.11,.52-.3l1.49-.83c1.86-.97,3.78-1.85,5.73-2.62,6.49-2.48,13.31-4,20.24-4.53,3.81-.3,7.63-.38,11.44-.24,1.76,.05,3.43,.22,5,.15,1.45,0,2.86-.42,4.07-1.22,.89-.79,1.73-1.63,2.52-2.52,.63-.68,1.44-1.15,2.34-1.35,.56-.15,1.16-.1,1.69,.14,.18,.09,.34,.2,.48,.35Z"/>
    <path class="cls-7" d="M292.92,201.48s-.21-.07-.62-.14c-.6-.1-1.21-.12-1.81-.06-.95,.11-1.88,.36-2.76,.74-1.16,.51-2.3,1.09-3.39,1.74-1.34,.78-2.77,1.39-4.25,1.83-1.72,.45-3.48,.74-5.26,.85-3.74,.23-7.85,.29-12.15,.62-8.62,.6-16.37,1.64-22,2.55-2.8,.45-5,.87-6.6,1.16l-1.79,.33-.63,.11,.62-.15,1.78-.37c1.55-.31,3.8-.76,6.59-1.22,5.58-1,13.34-2,22-2.61,4.31-.34,8.43-.39,12.16-.61,1.76-.11,3.51-.39,5.22-.83,1.48-.42,2.9-1.02,4.23-1.79,1.1-.64,2.25-1.22,3.42-1.72,.89-.37,1.84-.61,2.8-.71,.61-.06,1.22-.03,1.82,.1,.21,.03,.42,.09,.62,.18Z"/>
    <path class="cls-7" d="M293.07,218.48s-.78,.37-2.22,.93c-2.03,.8-4.11,1.49-6.21,2.07-6.97,1.89-14.13,2.96-21.35,3.19-7.2,.22-14.41,.05-21.6-.51l-6.54-.51-1.77-.16c-.4,0-.62-.07-.62-.07h.62l1.78,.12,6.54,.44c7.18,.52,14.38,.67,21.58,.45,7.2-.23,14.35-1.28,21.32-3.12,2.66-.74,4.78-1.46,6.23-2,.72-.26,1.28-.5,1.66-.64l.58-.19Z"/>
    <path class="cls-7" d="M290.73,238.11s-.73,.32-2.08,.78c-1.91,.64-3.87,1.14-5.86,1.5-2.95,.53-5.93,.84-8.93,.91-3.38,.12-7.1,0-11-.22-7.78-.52-14.82-1.07-19.92-.89-2.55,.07-4.61,.24-6,.4-.71,.07-1.26,.16-1.63,.2l-.57,.07c2.71-.49,5.46-.76,8.22-.81,5.12-.22,12.17,.31,19.95,.82,3.88,.23,7.59,.35,11,.24,2.99-.07,5.96-.36,8.91-.86,1.99-.34,3.95-.82,5.87-1.44,.68-.2,1.19-.41,1.55-.52l.49-.18Z"/>
    <path class="cls-7" d="M288.83,253.3s-2.83,.93-7.5,2c-2.34,.55-5.15,1.09-8.29,1.57s-6.6,.85-10.26,1.09-7.15,.23-10.32,.16-6-.3-8.41-.56c-4.77-.5-7.69-1.09-7.69-1.09l.54,.06,1.53,.22c1.32,.2,3.25,.43,5.63,.66s5.24,.42,8.41,.51,6.65,0,10.3-.17,7.11-.62,10.25-1.07,5.94-1,8.27-1.52,4.23-1,5.52-1.34l1.49-.39,.53-.13Z"/>
    <path class="cls-7" d="M290.94,258.85l-.52,.2-1.5,.54c-1.31,.48-3.17,1.24-5.44,2.24-2.27,1-5,2.26-8,3.51-3.29,1.39-6.72,2.44-10.22,3.13-6.4,1.11-12.9,1.47-19.38,1.1-2.48-.1-4.49-.23-5.88-.32l-1.59-.12h0l1.6,.08,5.88,.25c6.47,.35,12.95-.03,19.33-1.13,3.49-.69,6.91-1.72,10.19-3.09,3-1.24,5.72-2.49,8-3.47s4.16-1.73,5.47-2.19,2.06-.73,2.06-.73Z"/>
    <path class="cls-7" d="M294.07,275.41s-.68,.46-2,1.21c-1.85,1.03-3.78,1.91-5.77,2.64-6.63,2.28-13.58,3.46-20.59,3.48-8.19,.15-15.59-.5-20.94-.73-2.68-.13-4.84-.2-6.34-.24h0c1.5,0,3.67,.06,6.35,.18,5.35,.18,12.75,.81,20.92,.66,6.99-.02,13.93-1.17,20.55-3.41,1.98-.73,3.9-1.61,5.75-2.63,.67-.33,1.16-.66,1.51-.84s.56-.32,.56-.32Z"/>
    <path class="cls-7" d="M303.39,214.35c0-.09,.02-.17,.05-.25,.06-.22,.12-.46,.19-.71,.17-.62,.39-1.51,.63-2.63,1.21-5.83,1.12-11.85-.27-17.64-.26-1.11-.51-2-.7-2.61l-.22-.7-.07-.24c.05,.07,.08,.15,.1,.24,.08,.21,.16,.44,.25,.69,.22,.6,.49,1.48,.77,2.59,1.48,5.8,1.58,11.87,.27,17.71-.25,1.12-.49,2-.69,2.62-.09,.25-.16,.48-.23,.7-.02,.08-.05,.16-.08,.23Z"/>
    <path class="cls-7" d="M318.2,210.73c-.01-.08-.01-.15,0-.23v-3.05c-.06-5.29-1.25-10.51-3.49-15.31-.43-.91-.81-1.65-1.08-2.14l-.31-.58c-.07-.13-.1-.2-.09-.21,.05,.06,.09,.12,.13,.19l.34,.56c.3,.48,.69,1.21,1.14,2.12,2.33,4.79,3.52,10.05,3.5,15.37,0,.8-.03,1.6-.1,2.4l-.07,.66c.02,.07,.03,.15,.03,.22Z"/>
    <path class="cls-7" d="M338.21,203.78s-.07-.06-.19-.2l-.51-.59c-.43-.53-1.08-1.27-1.91-2.15-4.34-4.64-9.55-8.38-15.34-11-1.11-.5-2-.88-2.66-1.12l-.73-.28c-.09-.03-.17-.07-.25-.12,.09,.01,.18,.04,.27,.08l.74,.25c.65,.21,1.57,.57,2.69,1.06,5.84,2.55,11.09,6.3,15.39,11,.81,.9,1.45,1.65,1.86,2.2,.18,.22,.34,.43,.48,.62s.16,.25,.16,.25Z"/>
    <path class="cls-7" d="M333.67,175.45c-.21,.02-.43,.02-.64,0h-7.45c-2.24,0-4.25,.12-5.71,.2l-1.73,.09c-.21,.02-.43,.02-.64,0,.21-.05,.42-.08,.64-.09,.4,0,1-.1,1.72-.16,1.46-.11,3.49-.22,5.72-.26s4.26,0,5.72,.06l1.74,.1c.21,0,.42,.02,.63,.06Z"/>
    <path class="cls-7" d="M220.38,215.14c.14,.12,.27,.25,.38,.39,.22,.27,.57,.64,1,1.09,1.15,1.15,2.4,2.19,3.74,3.11,1.35,.92,2.74,1.77,4.18,2.54l1.3,.71c.17,.08,.32,.17,.47,.28-.17-.05-.34-.12-.5-.21-.32-.14-.78-.36-1.34-.65-1.46-.74-2.87-1.57-4.23-2.49-1.35-.93-2.6-2-3.73-3.19-.36-.36-.69-.74-1-1.14-.1-.14-.19-.29-.27-.44Z"/>
    <path class="cls-7" d="M224.6,207.13s.23,.35,.7,.81c.62,.58,1.29,1.11,2,1.59,.71,.48,1.45,.93,2.21,1.34,.58,.32,1,.48,.95,.51-1.17-.37-2.28-.94-3.27-1.67-.73-.48-1.4-1.04-2-1.67-.26-.25-.47-.57-.59-.91Z"/>
    <path class="cls-7" d="M231.71,241.25s-.08,0-.22-.09l-.61-.32c-.52-.28-1.27-.71-2.16-1.29-2.33-1.52-4.51-3.25-6.52-5.17-2.02-1.91-3.83-4.02-5.43-6.29-.48-.69-.93-1.4-1.34-2.14l-.33-.6c-.08-.14-.11-.21-.1-.22l.13,.2,.37,.58c.3,.51,.77,1.23,1.39,2.09,1.63,2.24,3.45,4.32,5.46,6.23,2,1.91,4.16,3.65,6.45,5.19,.88,.6,1.61,1.05,2.12,1.35l.59,.35,.2,.13Z"/>
    <path class="cls-13" d="M203.93,251.57c-.11-.37-.17-.76-.19-1.15-.11-1.05-.14-2.11-.07-3.16,.24-3.51,1.39-6.89,3.32-9.83,2.15-3.44,4.12-6.54,5.57-8.77l1.74-2.62c.2-.33,.44-.64,.7-.93-.14,.35-.32,.69-.53,1l-1.6,2.71c-1.37,2.28-3.29,5.4-5.43,8.84-1.89,2.87-3.06,6.16-3.4,9.59-.23,2.68-.04,4.32-.11,4.32Z"/>
    <path class="cls-7" d="M221.43,255.63c-1.17-.01-2.34-.19-3.46-.52-5.58-1.5-9.95-5.87-11.45-11.45-.32-1.12-.5-2.28-.51-3.45,.01,.08,.01,.16,0,.24,0,.15,0,.39,.09,.69,.11,.84,.29,1.67,.53,2.48,1.55,5.51,5.86,9.81,11.37,11.35,.82,.24,1.65,.41,2.49,.53,.3,0,.53,.06,.69,.09l.25,.04Z"/>
    <path class="cls-7" d="M211.39,221.49c-.05,.05-.11,.09-.18,.12l-.52,.32c-.64,.38-1.26,.79-1.86,1.23-4.03,2.88-7.18,6.83-9.08,11.41-.36,.87-.63,1.58-.78,2.09-.07,.2-.14,.39-.2,.58s-.07,.19-.08,.19c0-.07,0-.14,0-.21,.05-.18,.1-.38,.16-.59,.2-.72,.44-1.43,.73-2.12,.92-2.3,2.17-4.45,3.71-6.39,1.55-1.92,3.37-3.6,5.41-5,.61-.43,1.25-.83,1.91-1.18l.54-.28c.17-.15,.23-.18,.24-.17Z"/>
    <path class="cls-7" d="M205.78,214.09l-.57,.2c-.37,.11-.9,.3-1.54,.56-1.66,.69-3.21,1.63-4.59,2.78-1.37,1.17-2.62,2.47-3.72,3.9-.43,.54-.77,1-1,1.3-.12,.17-.24,.32-.38,.47,.09-.18,.19-.36,.31-.52,.21-.32,.53-.79,.94-1.34,1.07-1.48,2.32-2.82,3.71-4,1.39-1.17,2.97-2.1,4.67-2.76,.51-.2,1.04-.36,1.57-.5,.2-.05,.4-.08,.6-.09Z"/>
  </g>
</svg>