<?xml version="1.0" encoding="UTF-8"?>
<svg id="Layer_1" data-name="Layer 1" xmlns="http://www.w3.org/2000/svg" viewBox="0 0 500 500">
  <defs>
    <style>
      .cls-1 {
        fill: none;
      }

      .cls-2, .cls-3 {
        fill: #ebebeb;
      }

      .cls-4 {
        fill: #eb996e;
      }

      .cls-5, .cls-6 {
        fill: #f5f5f5;
      }

      .cls-7 {
        fill: #fff;
      }

      .cls-8 {
        fill: #fafafa;
      }

      .cls-9 {
        fill: #ffbe9d;
      }

      .cls-10 {
        fill: #ff725e;
      }

      .cls-11, .cls-12 {
        fill: #e0e0e0;
      }

      .cls-13 {
        fill: #455a64;
      }

      .cls-14 {
        fill: #263238;
      }

      .cls-15 {
        fill: #339135;
      }

      .cls-16 {
        fill: #5cbb61;
      }

      .cls-17 {
        opacity: .3;
      }

      .cls-12, .cls-3, .cls-6 {
        fill-rule: evenodd;
      }
    </style>
  </defs>
  <g id="freepik--background-complete--inject-6">
    <path class="cls-5" d="M288.55,462.87c-1.23-1.06-4-4.39-1.85-8.27,.77-1.42,2.41-2.13,3.9-2.75,1.53-.52,2.98-1.27,4.29-2.22,2.32-2,3-5.26,4.5-7.9,1.77-3,5.07-5.29,8.56-5.13,4,.18,7.33,3.45,8.84,7.17s1.57,7.85,1.6,11.87c0,2.22-.08,4.73-1.72,6.23s-3.76,1.4-5.8,1.34l-21.84-.67"/>
    <path class="cls-11" d="M330.32,402.81h-57.43l10.37,61.69c.43,2.63,2.35,4.77,4.91,5.49l.2,.06c.17,0,.33,.1,.51,.13,.39,.08,.78,.12,1.17,.13v.06h25.87c.47,0,.95-.05,1.41-.14,3.06-.47,5.43-2.92,5.81-6l5-42.51,.22-1.69h0l1.9-16.87,.06-.35Zm-10.83,39.35h-5.9l.6-17.9h6.83l-1.53,17.9Zm2.1-17.9h5.67l-2.1,17.9h-5.1l1.53-17.9Zm-16.84,37.75l-.36-15.55h8.49l-.52,15.55h-7.61Zm-9.18-15.55h8.25l.36,15.55h-7.4l-1.21-15.55Zm.64,15.55h-6.95c-.66-4.2-1.52-9.66-2.44-15.55h8.14l1.25,15.55Zm-.95-19.85l-1.39-17.9h9.46l.41,17.9h-8.48Zm9,0l-.41-17.9h9.74l-.6,17.9h-8.73Zm-.51-22.2l-.38-16.58h10.91l-.55,16.58h-9.98Zm-.57,0h-9.7l-1.22-16.58h10.6l.32,16.58Zm-10.27,0h-10.23c-.36-2.29-.7-4.45-1-6.4-1.07-6.71-1.47-9.23-1.69-10.18h11.68l1.24,16.58Zm.34,4.3l1.39,17.9h-8.49c-.28-1.81-.57-3.65-.86-5.49-.67-4.23-1.33-8.45-2-12.41h9.96Zm-7.64,17.9h-5.55l-3-17.9h5.73c.87,5.53,1.84,11.69,2.82,17.9Zm.67,4.3c.85,5.38,1.68,10.68,2.44,15.55h-5.33l-2.61-15.55h5.5Zm26.65,15.55l.52-15.55h5.67l-1.33,15.55h-4.86Zm1.4-42.05l.55-16.58h7.92l-1.42,16.58h-7.05Zm-34.9-16.58c.22,1.2,1.27,7.73,2.68,16.58h-5.77l-2.78-16.58h5.87Zm43.37,58.63h-4.44l1.33-15.55h4.94l-1.83,15.55Zm4.93-42.05h-5.78l1.42-16.58h6.31l-1.95,16.58Z"/>
    <path class="cls-12" d="M214.14,129.16c.27,2.97,.14,5.97-.38,8.91l6.54,5-5.76,12.41-8.08-1.74c-1.91,2.28-4.12,4.3-6.56,6l1.05,8.19-12.84,4.7-4.49-6.94c-2.97,.28-5.97,.15-8.91-.38l-5,6.55-12.45-5.7,1.74-8.09c-2.28-1.91-4.3-4.12-6-6.56l-8.2,1-4.7-12.84,6.94-4.49c-.27-2.97-.14-5.97,.38-8.91l-6.55-5,5.77-12.41,8.08,1.74c1.91-2.28,4.12-4.3,6.56-6l-1-8.2,12.84-4.7,4.49,6.94c2.97-.27,5.97-.14,8.91,.38l5.05-6.54,12.32,5.68-1.74,8.08c2.28,1.91,4.3,4.12,6,6.56l8.2-1,4.7,12.84-6.91,4.52Zm-19.58-1.41c-2.79-7.61-11.22-11.51-18.82-8.72-7.61,2.79-11.51,11.22-8.72,18.82,2.79,7.6,11.2,11.51,18.81,8.73,7.61-2.77,11.54-11.19,8.77-18.8,0-.03-.02-.05-.03-.08v.05Z"/>
    <path class="cls-6" d="M209.15,54.43c.18,1.97,.09,3.95-.25,5.89l4.35,3.34-3.8,8.2-5.35-1.15c-1.26,1.52-2.71,2.87-4.33,4l.69,5.42-8.49,3.1-3-4.58c-1.97,.18-3.95,.09-5.89-.25l-3.34,4.32-8.2-3.81,1.15-5.34c-1.52-1.26-2.87-2.72-4-4.34l-5.42,.7-3.11-8.49,4.59-3c-.18-1.97-.09-3.95,.25-5.89l-4.32-3.34,3.81-8.2,5.36,1.15c1.26-1.52,2.72-2.87,4.34-4l-.7-5.42,8.49-3.11,3,4.59c1.97-.18,3.95-.09,5.89,.25l3.3-4.31,8.2,3.81-1.12,5.37c1.52,1.26,2.87,2.71,4,4.33l5.42-.69,3.11,8.49-4.59,3-.04-.04Zm-12.9-.93c-1.84-5.03-7.41-7.62-12.44-5.78-5.03,1.84-7.62,7.41-5.78,12.44s7.41,7.62,12.44,5.78h0c5.03-1.83,7.62-7.39,5.79-12.42,0,0,0-.01,0-.02Z"/>
    <path class="cls-6" d="M267.61,152.99c.14,1.55,.07,3.11-.2,4.64l3.41,2.63-3,6.47-4.21-.91c-1,1.19-2.15,2.25-3.42,3.15l.55,4.27-6.7,2.45-2.33-3.62c-1.55,.14-3.12,.07-4.65-.2l-2.63,3.41-6.46-3,.9-4.21c-1.19-1-2.25-2.15-3.14-3.42l-4.28,.55-2.44-6.7,3.61-2.33c-.14-1.55-.07-3.12,.2-4.65l-3.41-2.63,3-6.46,4.21,.9c1-1.19,2.15-2.25,3.42-3.14l-.54-4.28,6.69-2.44,2.34,3.61c1.55-.14,3.11-.07,4.64,.2l2.63-3.41,6.47,3-.91,4.21c1.19,1,2.25,2.15,3.15,3.42l4.27-.54,2.45,6.69-3.62,2.34h0Zm-10.2-.74c-1.45-3.97-5.84-6.01-9.81-4.56s-6.01,5.84-4.56,9.81c1.45,3.97,5.84,6.01,9.81,4.56,0,0,0,0,0,0,3.97-1.45,6.01-5.84,4.56-9.81Z"/>
    <path class="cls-3" d="M261.26,99.07c.16,1.78,.08,3.56-.23,5.32l3.91,3-3.44,7.41-4.83-1c-1.14,1.37-2.46,2.59-3.92,3.61l.63,4.89-7.67,2.81-2.67-4.15c-1.78,.16-3.56,.09-5.32-.22l-3,3.9-7.46-3.48,1-4.82c-1.37-1.14-2.58-2.46-3.6-3.92l-4.9,.63-2.8-7.67,4.14-2.68c-.16-1.78-.08-3.56,.23-5.32l-3.91-3,3.44-7.4,4.83,1c1.14-1.37,2.45-2.59,3.91-3.61l-.62-4.89,7.67-2.81,2.67,4.15c1.78-.17,3.56-.09,5.32,.22l3-3.91,7.41,3.44-1,4.83c1.37,1.14,2.58,2.46,3.6,3.92l4.9-.63,2.8,7.67-4.09,2.71Zm-11.69-.84c-1.66-4.54-6.69-6.88-11.23-5.23s-6.88,6.69-5.23,11.23,6.69,6.88,11.23,5.23c0,0,0,0,0,0,4.55-1.66,6.89-6.68,5.23-11.23h-.01Z"/>
    <path class="cls-3" d="M79.72,228.22c.16,1.77,.08,3.56-.23,5.31l3.91,3-3.44,7.43-4.83-1c-1.14,1.37-2.45,2.58-3.91,3.6l.63,4.9-7.67,2.8-2.68-4.14c-1.78,.16-3.56,.08-5.32-.23l-3,3.91-7.41-3.44,1-4.82c-1.37-1.14-2.58-2.46-3.6-3.92l-4.9,.63-2.8-7.67,4.14-2.68c-.16-1.78-.08-3.56,.23-5.32l-3.91-3,3.46-7.42,4.87,1c1.14-1.37,2.46-2.58,3.92-3.6l-.63-4.9,7.67-2.8,2.67,4.14c1.78-.16,3.56-.08,5.32,.23l3-3.91,7.41,3.44-1,4.83c1.37,1.14,2.58,2.46,3.6,3.92l4.9-.63,2.8,7.67-4.14,2.68h-.06Zm-11.69-.85c-1.66-4.54-6.69-6.88-11.23-5.23-4.54,1.66-6.88,6.69-5.23,11.23s6.69,6.88,11.23,5.23c0,0,0,0,0,0,4.54-1.65,6.88-6.68,5.22-11.22,0,0,0,0,0-.01Z"/>
    <polygon class="cls-2" points="414.65 88.03 422.36 112.39 416.79 112.39 414.33 103.99 414.65 88.03"/>
    <rect class="cls-2" x="315.24" y="112.37" width="114.97" height="6.87"/>
    <rect class="cls-2" x="331.27" y="117.73" width="5.56" height="10.55"/>
    <rect class="cls-2" x="403.05" y="117.73" width="5.56" height="10.55"/>
    <path class="cls-2" d="M319.15,80.51s-5.16,3.93-.22,9.12c.09,.09,.21,.14,.33,.14l45.08-.26s3.85-4.32,.66-9.3l-45.85,.3Z"/>
    <path class="cls-11" d="M354.38,84.61s-5.62,.09-12.54,.09-12.58-.04-12.58-.09,5.62-.09,12.54-.09,12.58,.04,12.58,.09Z"/>
    <path class="cls-11" d="M347.36,86.24s-2.64,.09-5.9,.09-5.89,0-5.89-.09,2.68-.08,5.89-.08,5.9,0,5.9,.08Z"/>
    <path class="cls-11" d="M358.99,89.36s.1-.51,.24-1.35c.37-2.18,.35-4.4-.07-6.57-.15-.83-.29-1.34-.26-1.35,.06,.11,.1,.23,.13,.35,.11,.33,.19,.66,.26,1,.24,1.09,.37,2.2,.38,3.31,.01,1.11-.1,2.22-.32,3.31-.06,.34-.14,.67-.24,1-.03,.1-.07,.2-.12,.3Z"/>
    <path class="cls-11" d="M362.35,80.16c.08,.1,.15,.21,.2,.33,.07,.13,.14,.26,.2,.4,.07,.16,.16,.34,.23,.55,.18,.49,.33,.99,.43,1.5,.12,.62,.19,1.26,.2,1.89,0,.64-.06,1.27-.17,1.9-.09,.51-.23,1.02-.4,1.51-.07,.21-.16,.39-.22,.55s-.14,.3-.2,.41c-.05,.12-.11,.23-.19,.33,0,0,.22-.5,.49-1.33,.15-.49,.27-.99,.36-1.5,.22-1.23,.22-2.5,0-3.73-.1-.5-.23-1-.39-1.49-.31-.82-.57-1.32-.54-1.32Z"/>
    <path class="cls-11" d="M326.26,89.42c-.08-.09-.15-.19-.21-.3-.08-.12-.15-.24-.21-.37-.09-.17-.17-.34-.24-.52-.19-.46-.34-.93-.44-1.42-.12-.6-.18-1.21-.17-1.82,.03-.62,.12-1.23,.27-1.83,.11-.49,.27-.96,.48-1.41,.07-.17,.16-.35,.25-.51,.08-.15,.16-.28,.22-.37,.06-.11,.13-.21,.22-.3,0,0-.26,.46-.57,1.23-.18,.45-.33,.92-.44,1.4-.12,.58-.19,1.18-.2,1.77,0,.6,.05,1.19,.16,1.78,.09,.48,.22,.95,.39,1.41,.25,.8,.49,1.25,.49,1.26Z"/>
    <path class="cls-11" d="M321.39,90.52c-.09-.1-.17-.22-.23-.34-.09-.14-.16-.28-.23-.42-.1-.19-.2-.38-.28-.58-.21-.52-.38-1.05-.51-1.59-.15-.66-.23-1.33-.26-2,0-.67,.05-1.34,.17-2,.1-.55,.25-1.09,.44-1.61,.08-.23,.17-.42,.25-.6,.06-.15,.13-.29,.22-.43,.06-.12,.13-.24,.21-.35,0,0-.25,.53-.55,1.42-.18,.52-.32,1.06-.41,1.6-.1,.66-.15,1.33-.14,2,.02,1.23,.26,2.44,.7,3.58,.35,.81,.66,1.31,.62,1.32Z"/>
    <path class="cls-2" d="M362.68,103.24v8.62h-16.7v-8.62h16.7Z"/>
    <path class="cls-11" d="M308.77,107.63c0,.08,0,.15,0,.23,.19,2.62,2.38,4.64,5,4.63h49.72v-.63h-11.83c-2.38,0-4.31-1.93-4.31-4.31h0c0-2.38,1.93-4.31,4.31-4.31h11.81v-.92l-49.73,.17c-2.76,.02-4.99,2.27-4.97,5.03,0,.04,0,.07,0,.11Z"/>
    <path class="cls-11" d="M362.68,107.67s-3.44,.09-7.67,.09-7.66,0-7.66-.09,3.43-.1,7.66-.1,7.67,.05,7.67,.1Z"/>
    <path class="cls-11" d="M362.45,109.61s-3.25,.09-7.26,.09-7.25,0-7.25-.09,3.25-.09,7.25-.09,7.26,.04,7.26,.09Z"/>
    <path class="cls-11" d="M362.68,111.39s-2.92,.09-6.52,.09-6.53,0-6.53-.09,2.92-.09,6.53-.09,6.52,.04,6.52,.09Z"/>
    <path class="cls-11" d="M362.68,105.92s-3.36,.09-7.51,.09-7.51,0-7.51-.09,3.36-.09,7.51-.09,7.51,.04,7.51,.09Z"/>
    <path class="cls-11" d="M362.45,104.16s-3,.09-6.69,.09-6.68,0-6.68-.09,3-.09,6.68-.09,6.69,.09,6.69,.09Z"/>
    <path class="cls-5" d="M314.8,102.63c-.38,.39-.74,.82-1.06,1.26-1.54,2.23-1.5,5.19,.09,7.39,.33,.44,.69,.85,1.08,1.23-.12-.08-.24-.16-.35-.26-.31-.27-.59-.56-.83-.89-1.7-2.21-1.74-5.29-.09-7.54,.23-.33,.51-.64,.81-.91,.11-.1,.22-.2,.35-.28Z"/>
    <path class="cls-5" d="M313.11,102.45c-.39,.39-.74,.81-1.06,1.26-1.54,2.23-1.5,5.19,.09,7.39,.33,.43,.69,.84,1.08,1.23-.13-.07-.25-.17-.36-.27-.31-.27-.59-.57-.83-.89-1.7-2.21-1.74-5.29-.08-7.54,.23-.33,.5-.64,.8-.91,.11-.11,.23-.2,.36-.27Z"/>
    <path class="cls-5" d="M346.9,102.63c-.39,.39-.74,.81-1.06,1.26-1.54,2.23-1.5,5.19,.09,7.39,.33,.44,.69,.85,1.08,1.23-.13-.07-.25-.16-.36-.26-.3-.27-.58-.57-.83-.89-.81-1.09-1.27-2.4-1.3-3.76,0-1.36,.43-2.68,1.22-3.78,.23-.33,.5-.64,.8-.91,.11-.1,.23-.2,.36-.28Z"/>
    <path class="cls-5" d="M345.26,102.45c-.39,.39-.74,.81-1.06,1.26-1.54,2.23-1.5,5.19,.09,7.39,.33,.43,.69,.84,1.08,1.23-.13-.07-.25-.17-.36-.27-.31-.27-.59-.57-.83-.89-.82-1.08-1.27-2.39-1.3-3.75,0-1.36,.42-2.68,1.21-3.79,.24-.33,.51-.63,.81-.91,.11-.11,.23-.2,.36-.27Z"/>
    <path class="cls-5" d="M320.46,108.84c0-1.17,0-2.34-.05-3.5,.01-.31-.03-.62-.12-.91-.11-.29-.36-.51-.67-.56-.57-.11-1.15,.16-1.43,.68-.27,.53-.39,1.13-.35,1.72,0,.93,.04,1.85,.14,2.77,.02,.44,.13,.87,.32,1.27,.23,.54,.86,.78,1.4,.55,.3-.13,.52-.4,.6-.72,.13-.42,.19-.86,.16-1.3Z"/>
    <path class="cls-5" d="M339.76,107.83s-3.59,.1-8,.1-8,0-8-.1,3.59-.09,8-.09,8,.04,8,.09Z"/>
    <polygon class="cls-5" points="317.12 102.29 317.02 94.11 321.49 94.11 321.64 102.29 317.12 102.29"/>
    <path class="cls-11" d="M321.26,95.57c-1.38,.12-2.76,.12-4.14,0,1.38-.13,2.76-.13,4.14,0Z"/>
    <path class="cls-11" d="M321.26,96.83c-1.38,.12-2.76,.12-4.14,0,1.38-.12,2.76-.12,4.14,0Z"/>
    <path class="cls-11" d="M321.26,98.09c-1.38,.12-2.76,.12-4.14,0,1.38-.12,2.76-.12,4.14,0Z"/>
    <path class="cls-11" d="M321.26,99.35c-1.38,.12-2.76,.12-4.14,0,1.38-.12,2.76-.12,4.14,0Z"/>
    <path class="cls-11" d="M321.26,100.61c-1.38,.13-2.76,.13-4.14,0,1.38-.12,2.76-.12,4.14,0Z"/>
    <path class="cls-2" d="M316.8,93.89h49.33c.57,2.92,.57,5.92,0,8.84h-49.12v-.57h3c.78,0,1.42-.64,1.42-1.42h0v-4.92c0-.78-.64-1.41-1.42-1.41h-3.21v-.52Z"/>
    <path class="cls-8" d="M328.46,98.32h.89c.06,.03,.09,.09,.09,.16h0c-.01,.07-.03,.14-.05,.21-.1,.35-.28,.66-.52,.93-.17,.21-.43,.34-.7,.36h-.1c-.24-.05-.44-.2-.56-.41-.17-.3-.26-.65-.24-1,0-.24,.03-.47,.09-.7,.08-.37,.25-.71,.49-1,.18-.23,.45-.37,.74-.39,.11,0,.22,.02,.32,.07,.23,.13,.41,.34,.48,.6,0,.03,0,.05,0,.08,0,.03,0,.06,0,.09-.03,.06-.09,.09-.15,.09h-.06c-.05-.02-.09-.06-.11-.11h0c-.02-.07-.06-.13-.1-.19-.08-.14-.23-.23-.39-.24-.1,0-.19,.04-.27,.1-.21,.17-.37,.39-.45,.65-.13,.29-.2,.61-.2,.93,0,.25,.04,.5,.14,.73,.07,.18,.24,.31,.43,.32,.16-.02,.31-.11,.4-.24,.2-.22,.34-.49,.42-.77h-.59c-.11,0-.19-.09-.19-.2v-.06c.06-.04,.13-.04,.19-.01Z"/>
    <path class="cls-8" d="M331.26,96.71s0,.04,0,.06c0,.12,.23,1.14,.58,3.06h0s0,.06,0,.09c-.03,.05-.09,.09-.15,.09h0c-.06,0-.12-.06-.13-.12l-.2-1h-1l-.49,1h0c-.03,.05-.09,.08-.15,.08h-.1s-.08-.09-.08-.15v-.06c0-.06,.09-.18,.16-.33,.7-1.55,1.13-2.46,1.27-2.74,.03-.07,.09-.12,.17-.13,.06,.03,.11,.08,.12,.15Zm-.22,.69l-.55,1.15h.77l-.22-1.15Z"/>
    <path class="cls-8" d="M334.01,100.05h-1.58c-.05-.05-.08-.12-.08-.19h0c0-.06,.13-1.08,.41-3.05,0-.02,0-.04,0-.06,.02-.07,.09-.11,.16-.11h.08c.06,.03,.1,.09,.09,.16,0,.13,0,.41-.1,.83l-.27,2.06h1.27s.06,0,.09,0c.07,.02,.12,.09,.12,.16v.06c-.03,.08-.1,.14-.19,.14Z"/>
    <path class="cls-8" d="M336.05,96.71s0,.04,0,.06c0,.12,.23,1.14,.58,3.06h0s0,.06,0,.09c-.02,.06-.08,.09-.14,.09h0c-.07,0-.12-.05-.14-.12l-.2-1h-1l-.49,1h0s-.09,.08-.15,.08h-.1s-.08-.09-.08-.15c0-.02,0-.04,0-.06l.15-.33c.71-1.55,1.13-2.46,1.27-2.74,.03-.07,.09-.12,.17-.13,.06,.03,.11,.08,.13,.15Zm-.23,.69l-.56,1.15h.77l-.21-1.15Z"/>
    <path class="cls-8" d="M338.4,98.47l.27,.74c.16,.43,.23,.65,.23,.67,0,.03,0,.06,0,.09-.03,.05-.08,.09-.14,.08-.07,0-.13-.05-.15-.12v-.07c-.08-.19-.21-.53-.4-1l-.84,1.15c-.03,.06-.09,.09-.16,.09-.03,0-.06,0-.09,0-.05-.03-.08-.09-.08-.15h0l.09-.14c.28-.36,.59-.8,.93-1.3,0-.1-.07-.19-.1-.28-.31-.85-.47-1.29-.47-1.32,0-.03,0-.06,0-.09,.02-.06,.08-.09,.14-.09,.07,0,.13,.04,.17,.1l.5,1.34,1-1.35c.04-.05,.1-.08,.16-.08,.03,0,.05,0,.08,0,.05,.03,.08,.09,.08,.15,0,.03,0,.06,0,.09l-1.22,1.49Z"/>
    <path class="cls-8" d="M342.08,96.64h.09c.06,.03,.09,.09,.09,.16-.24,1.92-.38,3-.4,3.11-.04,.29-.15,.57-.32,.82-.23,.32-.61,.5-1,.48-.16,0-.33-.05-.47-.13-.23-.08-.41-.25-.53-.46,0-.03,0-.05,0-.08,0-.03,0-.06,0-.09,.03-.06,.09-.09,.15-.09,.05,0,.1,.03,.13,.07,.17,.26,.46,.42,.77,.44,.23,0,.45-.12,.59-.3,.2-.27,.31-.6,.32-.94-.15,.27-.44,.42-.75,.41h-.1c-.24-.04-.45-.19-.56-.4-.18-.3-.26-.65-.25-1v-.56c0-.19,.1-.73,.21-1.28,0-.02,0-.03,0-.05,.02-.07,.09-.12,.16-.12,.03,0,.06,0,.09,0,.06,.02,.09,.08,.09,.14-.02,.23-.05,.46-.09,.68-.07,.53-.11,.87-.11,1-.01,.27,.03,.55,.13,.8,.1,.24,.25,.36,.44,.36h.06c.18-.06,.34-.19,.44-.36,.18-.24,.31-.52,.37-.82l.23-1.69s0-.05,0-.08c.06-.06,.15-.07,.22-.02Z"/>
    <path class="cls-5" d="M364.26,102.85s-.09-2-.09-4.54,0-4.53,.09-4.53,.09,2,.09,4.53-.02,4.54-.09,4.54Z"/>
    <path class="cls-11" d="M323.9,102.85s-.09-2-.09-4.54,0-4.53,.09-4.53,.09,2,.09,4.53-.04,4.54-.09,4.54Z"/>
    <path class="cls-5" d="M365.14,102.85s-.09-2-.09-4.54,0-4.53,.09-4.53,.09,2,.09,4.53-.04,4.54-.09,4.54Z"/>
    <path class="cls-11" d="M323.1,102.85s-.09-2-.09-4.54,0-4.53,.09-4.53,.09,2,.09,4.53-.04,4.54-.09,4.54Z"/>
    <path class="cls-11" d="M352.32,95.27h0l5.21,4.2h-.01l-.69,.18-4.41,1.15h0l-4-1.69-1.16-.43-.3-.13h0l.31,.12,1.13,.47,4,1.67h0l4.4-1.16,.7-.18h0l-5.23-4.18h0"/>
    <polygon class="cls-11" points="357.05 98.81 357.33 99.08 357.71 98.99 357.55 99.35 357.74 99.69 357.36 99.64 357.1 99.93 357.02 99.54 356.67 99.39 357.01 99.2 357.05 98.81"/>
    <polygon class="cls-11" points="352.05 100.47 352.24 100.63 352.49 100.56 352.39 100.8 352.52 101.01 352.27 100.99 352.11 101.19 352.05 100.94 351.82 100.85 352.04 100.72 352.05 100.47"/>
    <polygon class="cls-11" points="346.52 98.2 346.83 98.22 347.02 97.98 347.1 98.28 347.39 98.38 347.12 98.55 347.11 98.86 346.88 98.66 346.58 98.75 346.7 98.46 346.52 98.2"/>
    <polygon class="cls-11" points="359.39 95.34 359.7 95.36 359.89 95.11 359.96 95.41 360.26 95.52 359.99 95.69 359.98 96 359.74 95.8 359.45 95.88 359.55 95.6 359.39 95.34"/>
    <polygon class="cls-11" points="352.05 95.14 352.26 95.15 352.38 94.99 352.43 95.19 352.61 95.25 352.45 95.36 352.43 95.56 352.29 95.43 352.1 95.49 352.17 95.3 352.05 95.14"/>
    <path class="cls-11" d="M359.82,95.56s-1.68,0-3.76-.13-3.77-.18-3.77-.2,1.69,0,3.77,.13,3.76,.18,3.76,.2Z"/>
    <path class="cls-11" d="M361.71,93.82h-50c-.73-1.29-.73-2.88,0-4.17h50c.63,1.32,.63,2.85,0,4.17Z"/>
    <rect class="cls-2" x="322.04" y="90.84" width="27.11" height="1.52"/>
    <path class="cls-11" d="M313.6,93.84c-.16-.14-.29-.31-.39-.5-.25-.46-.41-.96-.46-1.48-.04-.52,.02-1.04,.19-1.54,.06-.2,.16-.39,.3-.56-.04,.2-.1,.4-.17,.6-.14,.48-.18,.98-.14,1.48,.05,.5,.18,.98,.39,1.44,.17,.34,.31,.54,.28,.56Z"/>
    <path class="cls-11" d="M314.68,93.84c-.17-.13-.31-.3-.4-.5-.25-.46-.41-.96-.46-1.48-.04-.52,.02-1.05,.2-1.54,.05-.21,.16-.4,.3-.56,0,0-.08,.23-.18,.6-.13,.48-.17,.98-.13,1.48,.04,.5,.18,.99,.39,1.44,.1,.18,.2,.37,.28,.56Z"/>
    <path class="cls-5" d="M359.68,93.74c.2-.65,.33-1.32,.36-2-.04-.68-.15-1.35-.33-2,.36,.6,.53,1.3,.51,2,.03,.71-.16,1.4-.54,2Z"/>
    <path class="cls-5" d="M358.76,93.73s.16-.89,.15-2-.21-2-.15-2c.25,.64,.36,1.32,.33,2,.03,.68-.08,1.36-.33,2Z"/>
    <polygon class="cls-11" points="380.33 68.01 414.65 68.01 414.65 112.82 380.55 112.82 380.33 68.01"/>
    <rect class="cls-7" x="377.83" y="68.24" width="34.14" height="44.35"/>
    <path class="cls-11" d="M412.14,68.06v44.69h-34.48v-44.69h34.48Zm-.34,44.35v-44h-33.8v44h33.8Z"/>
    <rect class="cls-7" x="381.39" y="73.04" width="26.14" height="34.74"/>
    <path class="cls-11" d="M381.33,73.04c0,.06,0,.11,0,.17v34.57l-.08-.08h26.14l-.09,.09v-34.74l.07,.07h.05v34.91h-26.17v-34.82l.08-.17Z"/>
    <path class="cls-11" d="M377.74,112.58c.14-.26,.29-.51,.47-.75,.3-.45,.73-1.06,1.22-1.73s1-1.25,1.31-1.67c.17-.24,.37-.46,.59-.65-.14,.26-.31,.51-.5,.73l-1.26,1.7-1.26,1.7c-.16,.25-.35,.47-.57,.67Z"/>
    <path class="cls-11" d="M377.83,68.23c.65,.75,1.27,1.53,1.83,2.35,.61,.78,1.17,1.61,1.68,2.46-.65-.75-1.26-1.53-1.82-2.35-.61-.79-1.18-1.61-1.69-2.46Z"/>
    <line class="cls-1" x1="411.96" y1="68.23" x2="407.48" y2="73.21"/>
    <path class="cls-11" d="M407.48,73.21c.68-.89,1.41-1.74,2.18-2.55,1.24-1.37,2.28-2.46,2.31-2.43-.68,.89-1.4,1.74-2.18,2.55-.72,.85-1.5,1.66-2.31,2.43Z"/>
    <path class="cls-11" d="M411.96,112.58c-.78-.73-1.52-1.51-2.21-2.32-.74-.77-1.43-1.58-2.08-2.43,.78,.73,1.52,1.5,2.21,2.32,.74,.77,1.43,1.58,2.08,2.43Z"/>
    <path class="cls-11" d="M382.58,107.78s2.82-8.71,4.48-9.64c2.25-1.24,4.77-1.93,7.34-2,3.87,0,5.72,.26,8,1.82,2.62,1.8,4.39,9.72,4.39,9.72"/>
    <path class="cls-11" d="M390.39,81.84c-2.4,.1-3,3.33-2.83,5.17,.23,.85,.2,1.75-.09,2.58-.32,.54-.93,.86-1.19,1.42-.2,.74-.12,1.52,.22,2.2,.33,.7,.24,1.52-.25,2.12,1.35,.4,2.74,.66,4.15,.78,1.42,.1,2.83-.23,4.06-.95"/>
    <path class="cls-11" d="M388.67,88.28c-1.27-2.39-.38-5.36,2-6.65,.87-.43,1.82-.64,2.79-.61,.95-.04,1.9,.04,2.83,.25,.93,.22,1.78,.69,2.45,1.37,1.06,1.34,1.54,3.05,1.32,4.74-.12,1.99-.69,3.92-1.66,5.66-.11,.23-.28,.43-.49,.57-.22,.14-.52,.09-.68-.12"/>
    <path class="cls-5" d="M394.02,100.75c1.63,.11,3.05-1.29,3.23-3.81l.87-12.78-.06,.89c0-.53-.41-.96-.93-1l-5.06-.52c-1.69-.18-3.2,1.04-3.38,2.73,0,.05,0,.1-.01,.15-.16,1.92-.14,3.86,.05,5.78,.1,1.56,1.2,2.88,2.71,3.28l-.19,2.08c-.11,1.64,1.11,3.07,2.75,3.2h.02Z"/>
    <path class="cls-11" d="M389.65,88.02c0,.2,.16,.36,.36,.37,.2,.02,.37-.13,.39-.33,0,0,0,0,0-.01,0-.2-.16-.36-.36-.37-.2-.02-.37,.13-.39,.33,0,0,0,0,0,.01Z"/>
    <path class="cls-11" d="M389.26,87.61s.33-.17,.73-.17,.7,.2,.74,.15,0-.11-.15-.2c-.18-.12-.39-.18-.6-.18-.21,0-.41,.06-.58,.19-.14,.1-.21,.18-.14,.21Z"/>
    <path class="cls-11" d="M393.52,88.02c0,.2,.16,.36,.36,.37,.2,.02,.37-.13,.39-.33,0,0,0,0,0-.01,0-.2-.17-.36-.37-.37-.2-.01-.37,.14-.38,.34,0,0,0,0,0,0Z"/>
    <path class="cls-11" d="M393.17,87.67s.33-.16,.73-.16,.7,.2,.74,.15,0-.11-.15-.21c-.18-.12-.39-.18-.6-.18-.21,0-.41,.07-.58,.19-.12,.1-.17,.19-.14,.21Z"/>
    <path class="cls-11" d="M391.71,90.66c-.21-.07-.43-.11-.65-.12-.1,0-.2,0-.22-.1,0-.1,.02-.21,.07-.3,.1-.25,.2-.51,.3-.79,.28-.65,.5-1.32,.68-2-.33,.64-.61,1.31-.84,2l-.29,.78c-.07,.13-.09,.27-.05,.41,.03,.07,.09,.13,.17,.15,.06,0,.11,0,.17,0,.22,.02,.44,0,.66-.03Z"/>
    <path class="cls-2" d="M391.45,95.43c1.38,.02,2.73-.35,3.91-1.06-.85,1.34-2.43,2.04-4,1.76l.09-.7Z"/>
    <path class="cls-11" d="M391.89,91.63c.15-.2,.4-.3,.65-.27,.18,.02,.34,.1,.46,.24,.1,.15,.1,.33,0,.48-.13,.15-.34,.21-.53,.14-.19-.07-.36-.17-.51-.31-.05-.03-.09-.07-.12-.12-.03-.05-.03-.1,0-.15"/>
    <path class="cls-11" d="M392.9,90.94c-.06,0-.06,.43-.44,.74s-.84,.26-.84,.33,.1,.08,.3,.09c.26,0,.5-.09,.7-.25,.19-.16,.32-.38,.34-.63,.02-.18-.03-.29-.06-.28Z"/>
    <path class="cls-11" d="M392.98,86.96c0,.11,.45,.06,.92,.12s.85,.18,.92,.08,0-.15-.2-.25c-.2-.14-.44-.22-.68-.24-.24-.03-.48,0-.71,.09-.18,.07-.26,.15-.25,.2Z"/>
    <path class="cls-11" d="M389.35,86.44c.07,.09,.35,0,.68,0s.62,.06,.69,0,0-.13-.14-.22c-.17-.11-.36-.16-.56-.15-.2,0-.39,.07-.54,.19-.12,.04-.16,.13-.13,.18Z"/>
    <path class="cls-11" d="M390.96,81.45c2.82-1.59,5.86-.48,8.15,1.82,.45,.56,.99,1.03,1.61,1.39,.71,.3,1.66,.25,2.08,.9s-.17,1.82,.19,2.65,1.38,1,1.77,1.72c.22,.62,.22,1.29,0,1.91-.24,.62-.13,1.32,.28,1.85l-6.09,2.31c-.27,.11-.56,.14-.85,.09-.87-.17-.93-1-.85-1.63,.14-.48,.14-1,0-1.48-.24-.53-.87-.82-1.09-1.36-.4-1,.69-2,.56-3-.14-.65-.61-1.19-1.24-1.41-.6-.26-1.26-.34-1.88-.54-1.48-.58-2.66-1.75-3.23-3.24-.32-.74-.04-1.6,.66-2l-.07,.02Z"/>
    <path class="cls-11" d="M393.26,380.27c-4.14-2.59-8.82-4.2-13.68-4.7-2.23-.23-4.67-.17-6.47,1.19-.42,.24-.68,.69-.66,1.18,.11,.34,.33,.63,.63,.81,5.92,4.22,13.69,4.81,20.18,1.52"/>
    <path class="cls-11" d="M392.9,379.89c-3.16-2.33-6.12-4.93-8.83-7.77-2.71-2.87-4.62-6.4-5.53-10.24-.37-1.15-.21-2.4,.43-3.43,7,5.5,12.57,12.61,13.93,21.44"/>
    <path class="cls-11" d="M393.18,380.22c-.65-3.84-.6-7.77,.17-11.59,.78-3.85,2.99-7.27,6.17-9.57,1.22,2.84,.7,6.12-.16,9.09-1.32,4.6-3.39,8.95-6.11,12.89"/>
    <path class="cls-11" d="M400.08,392.59c-4.19,.51-7.83,2.71-11,5.55-3.14,2.86-5.33,6.62-6.27,10.76,4.1-.25,7.59-3.15,10.12-6.4s4.28-6.81,7.06-9.85"/>
    <path class="cls-11" d="M401.58,394.56c-3.36-8.51-2.18-18.13,3.13-25.58,2.38,8.49,1.51,18.08-3.13,25.58"/>
    <path class="cls-11" d="M410.71,405.42c-7.82-.49-15.18,3.73-18.7,10.74-.23,.46-.44,1.05-.12,1.46,.33,.32,.79,.46,1.24,.37,3.68-.24,6.95-2.46,9.64-5s5-5.45,8-7.63"/>
    <path class="cls-11" d="M410.42,404.83c-1.96-6.32-2.08-13.06-.35-19.45,.69-2.51,1.84-5.14,4.15-6.32,.19-.12,.42-.16,.64-.11,.19,.1,.33,.26,.4,.46,.78,1.75,1.12,3.67,1,5.59-.14,1.9-.43,3.79-.88,5.65-.72,3.45-1.11,7.16-3,10.14-.44,.72-.85,1.46-1.2,2.23-.36,.75-.36,1-.69,1.62"/>
    <path class="cls-11" d="M434.55,408.43c-1.79-6.81,.11-15,4.39-20.63,.32-.41,.74-.85,1.25-.8,.79,.07,1,1.12,1,1.92-.33,6.99-2.61,13.75-6.6,19.51"/>
    <path class="cls-11" d="M436.73,409.91c8.54,2.02,17.54,.19,24.62-5-4.12-2.08-8.83-2.66-13.33-1.64-4.45,1-8.52,3-11.29,6.64"/>
    <path class="cls-11" d="M438.57,405.39c4.63-7.55,13.5-12.48,22.34-12.92-1,3.59-4,6.39-7.31,8.08-3.41,1.53-7.02,2.58-10.72,3.13-1.43,.28-3.39,.58-4.31,1.71"/>
    <path class="cls-11" d="M435.02,383.41c1.4-4.25,2.35-8.64,2.85-13.09,.49-4.48-.42-9-2.6-12.94-4.33,8.37-4.76,18.14-.38,26.48"/>
    <path class="cls-11" d="M449.57,376.05c5.06-9.19,15.37-16.53,25.81-17.56-4,10-15,17.78-25.81,17.56"/>
    <path class="cls-11" d="M446.39,377.85c7.54,1.15,14,6,21,8.89,1.48,.71,3.11,1.02,4.75,.91,2.05-.03,3.7-1.71,3.67-3.77-.01-1.09-.5-2.12-1.34-2.81-1-.92-2.17-1.63-3.45-2.09-7.68-3.2-15.91-3.28-24-1.34"/>
    <path class="cls-11" d="M442.02,383.16c1.7,.49,2.29,1.37,3.64,2.52,4.61,3.92,10.06,6.72,15.93,8.19,.61,.15,1.41,.21,1.71-.34s-.07-1.06-.41-1.49c-2.56-3-5.89-5.26-9.62-6.53-3.68-1.37-6.86-3-11.25-2.67"/>
    <path class="cls-11" d="M437.1,351.16c6.26,5.79,14.67,8.66,23.16,7.91,.38,0,.76-.13,1.05-.38,.59-.64-.11-1.61-.79-2.14-6.8-5.3-15-7.5-23.38-5.35"/>
    <path class="cls-11" d="M442.93,349.06c8.3-6.11,19.03-7.87,28.85-4.76-3.78,3.49-8.62,5.6-13.75,6-5.07,.46-10.18,.03-15.1-1.28"/>
    <path class="cls-11" d="M440.61,334.39c-.67-6.79-.23-12.14-.7-19,0-.54-.16-1.2-.67-1.39-.71-.28-1.3,.59-1.53,1.32-2,6.4-.94,13.37,2.89,18.88"/>
    <path class="cls-11" d="M440.12,335.16c4.43-2.86,8.25-6.58,11.24-10.93,2.22-3,4.09-6.67,3.59-10.4-3.16,.08-6.12,1.54-8.11,4-1.94,2.45-3.34,5.28-4.13,8.31-.9,3-1.53,6.05-2.59,9"/>
    <path class="cls-11" d="M451.17,332.07c10.12-3.74,19.49-9.27,27.66-16.31-3.3-1.33-7.09-.53-10.39,.8-7.49,2.84-13.69,8.33-17.41,15.43"/>
    <path class="cls-11" d="M443.26,338.85c5.1,.55,10.29,.92,15.35,.07s9.65-2.76,14.32-4.76c.41-.11,.77-.38,1-.74,.15-.44,.01-.94-.35-1.23-.36-.28-.77-.48-1.22-.57-5.06-1.42-10.51-.75-15.49,.92-4.74,1.62-9.3,3.74-13.6,6.31"/>
    <path class="cls-11" d="M414.08,351.43c-3.49-7-3.26-15.23-.25-22.48,2.12,3.23,2.38,7.34,2,11.18s-1.56,7.79-1.63,11.65"/>
    <path class="cls-11" d="M400.17,344.41c-8.82-.11-17.27,3.49-23.3,9.93,4.4,.53,8.85-.3,12.76-2.37,3.89-2.06,7.55-4.51,10.94-7.31"/>
    <path class="cls-11" d="M390.82,341.29c-4.26-.35-8.35-.88-12.44,.38-4.17,1.16-7.63,4.08-9.48,8,4.01,.32,8.04-.44,11.66-2.21,3.6-1.76,7.03-3.84,10.26-6.21"/>
    <path class="cls-11" d="M404.67,341.43c-3.83-2.51-7.76-5.06-12.21-6.1s-9.62-.27-12.73,3.09c3.61,2.11,8,2.36,12.16,2.36s9.31-.05,13.26,1.34"/>
    <path class="cls-11" d="M404.68,341.63c-6.54-6.42-9-18-6.39-26.75,5.16,7.91,7.42,17.36,6.39,26.75"/>
    <path class="cls-11" d="M422.68,323.43c1.24-2.87,2.1-5.88,3.21-8.8,1.01-2.97,2.56-5.72,4.58-8.11,2.04-2.41,4.95-3.92,8.1-4.2-2.03,8.95-7.74,16.63-15.73,21.15"/>
    <path class="cls-11" d="M419.43,327.22c-2-2.81-4.4-6.63-7.17-8.72s-6.38-3.37-9.76-2.57c3.55,6.22,9.82,10.41,16.93,11.29"/>
    <path class="cls-11" d="M420.08,323.66c-1.47-3.35-2.55-6.86-3.23-10.45-.67-3.63-.09-7.37,1.64-10.63,3.59,6.79,4.75,14.08,1.77,21.16"/>
    <path class="cls-11" d="M422.71,302.58c2-6.73,8.19-11.69,14.85-14,.82-.34,1.71-.48,2.6-.39,.9,.1,1.66,.73,1.92,1.6,.24,1.15-.7,2.17-1.59,2.93-5.2,4.44-11.25,7.79-17.78,9.82"/>
    <path class="cls-11" d="M422.79,297.08c.26-4.34,.53-8.75,1.94-12.86s4.13-8,8.09-9.76c.67,4.38-1.26,8.74-3.59,12.51s-5.15,7.33-6.55,11.54"/>
    <path class="cls-11" d="M422.68,300.06c-1.68-4.9-1.85-11.13-4.79-15.4-2.05-3-5.34-5-7.11-8.19-1.06,3.03-.92,6.36,.41,9.29,1.34,2.9,3.18,5.53,5.44,7.78,2.17,2.32,4,4.07,6.05,6.52"/>
    <path class="cls-11" d="M422.71,444.51c-.13,0-.25-32.72-.26-73.08s.09-73.08,.22-73.08,.25,32.72,.26,73.08-.09,73.08-.22,73.08Z"/>
    <path class="cls-11" d="M451.3,346.49c-.39,.2-.8,.36-1.23,.47l-3.39,1.14c-2.85,1-6.77,2.38-11,4.12s-8.19,3.28-10.45,5.24c-.9,.75-1.62,1.71-2.1,2.78-.33,.77-.38,1.24-.43,1.23-.02-.11-.02-.23,0-.34,.04-.34,.12-.68,.24-1,.42-1.16,1.12-2.19,2.05-3,1.36-1.16,2.89-2.11,4.53-2.82,1.82-.84,3.83-1.73,6-2.6,4.27-1.75,8.22-3.12,11.11-4,1.44-.45,2.62-.78,3.44-1,.4-.11,.81-.18,1.23-.22Z"/>
    <path class="cls-11" d="M460.68,323.47s-.11,.14-.34,.37l-1.05,1-3.92,3.56-13.05,11.61c-5.09,4.54-9.49,8.87-12.54,12.13-1.53,1.63-2.73,3-3.55,3.92l-.97,1.1c-.1,.13-.22,.25-.35,.36,0,0,.08-.15,.28-.42s.48-.65,.88-1.14c.78-1,1.94-2.36,3.44-4,3.94-4.3,8.11-8.39,12.48-12.25,5.11-4.52,9.76-8.58,13.14-11.51,1.65-1.43,3-2.59,4-3.45l1.1-.92c.13-.14,.28-.26,.45-.36Z"/>
    <path class="cls-11" d="M436.82,344.61c-.13-.06,.93-2.51,2-5.62s1.58-5.73,1.71-5.7c-.1,2.01-.53,3.99-1.27,5.87-.45,1.34-.98,2.65-1.58,3.93-.21,.55-.5,1.06-.86,1.52Z"/>
    <path class="cls-11" d="M422.74,364.42c-.3-.27-.56-.58-.79-.91l-2-2.58c-1.69-2.18-4-5.2-6.64-8.49s-5-6.26-6.76-8.4l-2.06-2.54c-.27-.31-.5-.65-.71-1,.31,.25,.6,.54,.85,.85,.52,.57,1.27,1.4,2.17,2.45,1.81,2.08,4.26,5,6.88,8.31s4.92,6.35,6.54,8.59c.81,1.12,1.45,2,1.89,2.67,.24,.33,.45,.68,.63,1.05Z"/>
    <path class="cls-11" d="M416.48,356.37c-1.27-1.4-2.17-3.09-2.63-4.92-.5-1.62-.7-3.31-.6-5h.21c-.09,.38-.16,.58-.2,.57s0-.21,0-.6h.2c.11,1.64,.39,3.25,.84,4.83,.59,1.76,1.32,3.47,2.18,5.12Z"/>
    <path class="cls-11" d="M408.38,346.16c-.56-.44-1.18-.8-1.83-1.07-1.65-.49-3.38-.63-5.09-.4-1.73,.14-3.44,.41-5.13,.82-.69,.23-1.39,.4-2.11,.51,.62-.37,1.3-.65,2-.83,1.68-.52,3.42-.86,5.18-1,1.77-.24,3.57-.05,5.25,.56,.73,.25,1.34,.75,1.73,1.41Z"/>
    <path class="cls-11" d="M406.46,343.72c0,.07-1.06-.43-2.81-1-2.26-.77-4.62-1.26-7-1.45-2.39-.17-4.78-.05-7.14,.37-1.81,.32-2.91,.66-2.94,.58,.23-.14,.49-.24,.75-.31,.69-.25,1.4-.45,2.12-.6,4.78-1.05,9.77-.67,14.34,1.09,.68,.26,1.35,.57,2,.91,.48,.23,.7,.38,.68,.41Z"/>
    <path class="cls-11" d="M422.68,333.29c-.83-2.33-1.51-4.71-2.05-7.12-.68-2.38-1.21-4.8-1.59-7.24,.84,2.33,1.52,4.7,2.05,7.12,.69,2.38,1.22,4.79,1.59,7.24Z"/>
    <path class="cls-11" d="M422.8,333.29c-.65-1.48-1.41-2.9-2.27-4.27-.96-1.29-2.08-2.44-3.34-3.44,.48,.11,.92,.34,1.29,.66,.95,.69,1.77,1.54,2.44,2.51,1.02,1.32,1.67,2.89,1.88,4.54Z"/>
    <path class="cls-11" d="M422.71,427.06c-.06,0-.15-.78-.52-2.17-.54-1.96-1.27-3.86-2.19-5.67-3.15-5.92-7.05-11.41-11.6-16.34-2.59-3-5.1-5.75-7.23-8.42-1.91-2.35-3.65-4.85-5.18-7.47-1.02-1.77-1.9-3.62-2.61-5.53-.24-.69-.42-1.22-.51-1.59-.07-.18-.11-.37-.14-.56,0,0,.28,.75,.82,2.08,.77,1.88,1.69,3.69,2.73,5.43,1.56,2.58,3.31,5.04,5.23,7.36,2.14,2.65,4.65,5.42,7.25,8.39,5.24,5.88,9.34,11.81,11.54,16.51,.9,1.84,1.59,3.77,2.07,5.76,.15,.71,.25,1.26,.29,1.64,.03,.19,.05,.39,.05,.58Z"/>
    <path class="cls-11" d="M448.55,397.88c-.44,.28-.89,.53-1.35,.76-1.22,.69-2.4,1.46-3.51,2.32-1.65,1.28-3.19,2.69-4.62,4.21-1.61,1.71-3.28,3.7-5,5.82-3.41,4.27-6.59,8.05-8.5,11.07-1,1.49-1.67,2.76-2.13,3.64-.22,.47-.46,.92-.74,1.36,0,0,0-.13,.12-.38s.24-.61,.46-1.06c.59-1.29,1.26-2.54,2-3.74,2.58-3.89,5.39-7.62,8.41-11.18,1.7-2.13,3.39-4.12,5-5.83,1.45-1.53,3.04-2.93,4.73-4.18,1.14-.84,2.35-1.58,3.62-2.21,.45-.23,.82-.37,1.06-.47s.45-.15,.45-.13Z"/>
    <path class="cls-11" d="M449.05,407.35c-.94,.21-1.9,.35-2.86,.41-2.3,.24-4.57,.69-6.79,1.34-2.19,.71-4.25,1.79-6.08,3.19-1.4,1.08-2.06,2-2.13,1.93,.11-.24,.25-.47,.43-.66,.44-.56,.94-1.07,1.49-1.53,1.81-1.51,3.89-2.66,6.14-3.38,2.25-.67,4.56-1.08,6.9-1.22,.96-.12,1.93-.14,2.9-.08Z"/>
    <path class="cls-11" d="M432.04,413.16c-.15-.09,1.14-2.06,2.14-4.71s1.16-5,1.33-5c.07,.51,.05,1.03-.05,1.53-.14,1.23-.42,2.45-.83,3.62-.44,1.16-.99,2.27-1.66,3.32-.24,.46-.55,.88-.93,1.24Z"/>
    <path class="cls-11" d="M456.92,372.46c-.14,.11-.3,.19-.46,.25l-1.34,.61c-.59,.25-1.31,.57-2.11,1s-1.75,.84-2.75,1.43c-.49,.29-1,.58-1.56,.89s-1.07,.68-1.64,1c-1.16,.7-2.31,1.56-3.54,2.43-5.27,3.93-9.86,8.69-13.6,14.09-.84,1.26-1.66,2.44-2.32,3.62-.34,.58-.69,1.13-1,1.68s-.57,1.08-.83,1.59c-.56,1-1,2-1.35,2.78s-.69,1.55-.92,2.15l-.57,1.36c-.06,.16-.13,.32-.22,.47,.02-.17,.06-.34,.13-.5l.49-1.4c.25-.74,.53-1.47,.85-2.18,.37-.84,.75-1.81,1.29-2.83l.81-1.61c.29-.56,.63-1.12,1-1.71,.65-1.19,1.47-2.39,2.3-3.67,1.88-2.72,3.97-5.28,6.25-7.67,2.31-2.35,4.79-4.51,7.43-6.48,1.25-.87,2.42-1.72,3.59-2.41,.57-.36,1.12-.72,1.67-1l1.58-.87c1-.58,2-1,2.78-1.38,.7-.35,1.42-.66,2.16-.93l1.38-.53c.16-.08,.33-.14,.5-.18Z"/>
    <path class="cls-11" d="M436.46,386.16c.2-.66,.59-1.24,1.13-1.67,1.26-1.09,2.86-1.71,4.53-1.74,1.64,0,3.26,.31,4.77,.93,.64,.2,1.25,.5,1.8,.88-.65-.13-1.29-.32-1.91-.56-1.5-.51-3.07-.78-4.65-.78-1.57,.03-3.08,.57-4.32,1.52-.48,.44-.93,.92-1.35,1.42Z"/>
    <path class="cls-11" d="M433.42,389.32c.6-1.34,1.03-2.74,1.28-4.19,.09-1.46,0-2.93-.29-4.37,.06,0,.31,.43,.54,1.22,.55,2.11,.28,4.35-.74,6.27-.4,.73-.75,1.1-.79,1.07Z"/>
    <path class="cls-11" d="M400.11,431.75c.7,12.51,4.47,25.22,10.27,38.08h25.2c5.53-12.73,9-25.43,9.66-38.08h-45.13Z"/>
    <path class="cls-8" d="M441.15,451.99c0,.13-8.29,.23-18.53,.23s-18.53-.1-18.53-.23,8.29-.24,18.53-.24,18.53,.11,18.53,.24Z"/>
    <path class="cls-8" d="M440.6,456.52c0,.13-7.78,.23-17.37,.23s-17.38-.1-17.38-.23,7.78-.24,17.38-.24,17.37,.11,17.37,.24Z"/>
    <path class="cls-8" d="M410.79,439.96c.32,3.86,.32,7.75,0,11.61-.31-3.86-.31-7.75,0-11.61Z"/>
    <path class="cls-8" d="M424.26,439.96c.31,3.99,.31,8.01,0,12-.32-3.99-.32-8.01,0-12Z"/>
    <path class="cls-8" d="M436.96,439.86c.32,4.08,.32,8.18,0,12.26-.31-4.08-.31-8.18,0-12.26Z"/>
    <path class="cls-8" d="M444.45,439.96c0,.13-9.73,.24-21.74,.24s-21.74-.11-21.74-.24,9.73-.23,21.74-.23,21.74,.1,21.74,.23Z"/>
  </g>
  <g id="freepik--Plant--inject-6">
    <path class="cls-16" d="M71.38,392.9c4.09-2.11,8.91-2.38,13.45-1.63,2.44,.4,5,1.13,6.65,3s2,5.06,.07,6.64c-1.23,.83-2.71,1.2-4.19,1.06-3.56,0-7.5-.67-10.34,1.47-1.63,1.22-2.7,3.25-4.64,3.85-1.98,.45-4.02-.47-5-2.24-.93-1.78-1.13-3.85-.57-5.78,.44-2.72,2.13-5.08,4.57-6.37Z"/>
    <path class="cls-16" d="M62.01,374.81c2.5,3.57,7.36,2.39,9.62,.21s3.2-5.35,4.07-8.36c2-6.89,4-14.11,2.51-21.13-.36-2.12-1.29-4.11-2.7-5.74-1.45-1.64-3.67-2.37-5.81-1.93-2.45,.64-4,3-5.08,5.33-3.25,6.74-4.96,14.12-5,21.61,0,3.48,.39,7.13,2.36,10"/>
    <path class="cls-16" d="M55.14,379.93c2.71-3.22,3.23-7.92,2-12-1.37-4.01-3.82-7.57-7.08-10.28-3.7-3.29-8-5.84-12.67-7.49-1.81-.74-3.76-1.08-5.71-1-1.98,.12-3.77,1.2-4.79,2.9-1.34,2.55-.06,5.64,1.33,8.16,2.44,4.44,5.23,8.68,8.33,12.69,2.5,3.22,5.36,6.4,9.17,7.85s7.76,1.29,9.78-1.35"/>
    <path class="cls-14" d="M61.84,428.71c.13-.53,.21-1.08,.23-1.63,.11-1.18,.26-2.66,.43-4.43,.22-2.18,.56-4.35,1-6.5,.59-2.62,1.38-5.18,2.37-7.67,.97-2.49,2.28-4.82,3.91-6.94,1.34-1.73,3.05-3.14,5-4.12,1.31-.65,2.72-1.09,4.17-1.3,.54-.02,1.08-.09,1.61-.23-.54-.06-1.1-.06-1.64,0-1.51,.11-2.98,.49-4.35,1.13-2.07,.95-3.89,2.37-5.31,4.14-1.67,2.15-3.02,4.53-4,7.07-1,2.53-1.79,5.14-2.34,7.8-.42,2.17-.71,4.37-.87,6.58-.14,1.88-.19,3.4-.21,4.46-.06,.54-.06,1.1,0,1.64Z"/>
    <path class="cls-14" d="M62.14,425.3c.05-.25,.07-.51,.05-.76v-2.15c0-1.87,0-4.58,.1-7.92,.16-6.68,.74-13.87,1.85-24,1-9.53,2.47-20.63,4-27.84,.32-1.64,.64-3.12,.94-4.41s.54-2.41,.77-3.32,.38-1.54,.51-2.09c.07-.24,.12-.5,.13-.75-.11,.23-.2,.47-.26,.71-.17,.54-.37,1.23-.63,2.07s-.56,2-.88,3.29-.7,2.76-1,4.4c-1.84,8.53-3.23,17.15-4.16,25.83-1.11,10.16-1.61,19.41-1.66,26.11,0,3.35,0,6.06,.12,7.94,.06,.87,.1,1.58,.13,2.15-.03,.25-.03,.49-.01,.74Z"/>
    <path class="cls-14" d="M62.19,407.45c.06-.75,.06-1.5,0-2.25-.13-2.04-.36-4.07-.69-6.09-.5-3-1.16-5.97-2-8.89-.97-3.59-2.21-7.11-3.71-10.51-2.58-6.28-6.28-12.04-10.91-17-.81-.85-1.66-1.64-2.57-2.38-.39-.33-.74-.67-1.1-.93l-1-.68c-.6-.46-1.24-.86-1.9-1.22,2.18,1.71,4.26,3.56,6.21,5.54,4.49,4.99,8.09,10.72,10.64,16.93,1.47,3.38,2.72,6.86,3.74,10.41,1,3.27,1.62,6.27,2.11,8.8s.73,4.6,.89,6c.04,.76,.13,1.52,.29,2.27Z"/>
    <polygon class="cls-14" points="44.94 438.93 46.73 463.42 78.2 463.42 79.99 438.93 44.94 438.93"/>
    <rect class="cls-14" x="41.9" y="429.27" width="41.84" height="9.65"/>
    <polygon class="cls-13" points="41.91 462.48 41.91 465.16 43.87 465.16 83.05 465.16 83.05 462.48 41.91 462.48"/>
    <polygon class="cls-13" points="45.8 469.87 43.87 465.16 81.55 465.16 79.3 469.87 45.8 469.87"/>
    <path class="cls-11" d="M79.4,446.93s0,.09-.15,.23-.27,.37-.47,.62l-1.83,2.38-.08,.1-.08-.11-4.53-6.26h.26l-4.41,6.27-.14,.2-.15-.19-5.26-6.25h.3l-.29,.37-4.7,5.87-.15,.2-.15-.21c-1.6-2.25-3.09-4.36-4.43-6.27h.25l-5.46,6.28-.1,.11-.07-.11c-.72-1.21-1.3-2.17-1.71-2.87l-.44-.77c-.06-.08-.1-.17-.13-.27,.07,.07,.13,.15,.18,.24,.13,.19,.29,.44,.48,.74l1.8,2.82h-.17l5.37-6.3,.14-.15,.12,.17,4.48,6.24h-.3l4.68-5.97,.29-.36,.15-.19,.15,.19,5.24,6.26h-.29l4.46-6.23,.13-.18,.13,.18,4.41,6.3h-.16l1.9-2.29c.21-.23,.38-.43,.51-.59l.22-.2Z"/>
    <path class="cls-13" d="M80.42,438.77c0,.1-7.88,.19-17.6,.19s-17.56-.09-17.56-.19,7.88-.2,17.61-.2,17.55,.09,17.55,.2Z"/>
    <path class="cls-14" d="M82.01,465.42c0,.11-8.57,.2-19.13,.2s-19.14-.09-19.14-.2,8.57-.19,19.14-.19,19.13,.09,19.13,.19Z"/>
  </g>
  <g id="freepik--Screens--inject-6">
    <path class="cls-7" d="M162.46,65.23l-17.73,.15c-2.43,.08-4.34,2.1-4.27,4.53v3.22c.07,2.4-1.8,4.42-4.2,4.53l-34.56,.29c-2.43-.03-4.37-2.03-4.34-4.46,0,0,0,0,0-.01v-3.21c.03-2.43-1.91-4.43-4.34-4.47h-6.24l-15.52,.18c-7.72,.06-13.93,6.35-13.89,14.07l1.89,223.74c.07,7.7,6.36,13.89,14.06,13.82,0,0,0,0,.01,0l91.24-.75c7.7-.09,13.88-6.37,13.84-14.07l-1.89-223.73c-.09-7.69-6.37-13.86-14.06-13.83Z"/>
    <path class="cls-14" d="M162.46,65.23h.47c.47,0,.95,.04,1.42,.1,1.86,.21,3.65,.81,5.25,1.76,1.19,.68,2.27,1.54,3.2,2.55,1.14,1.21,2.06,2.61,2.7,4.14,.74,1.79,1.11,3.71,1.09,5.65,0,2.06,0,4.26,.07,6.58,.17,18.59,.42,45.47,.74,78.7s.65,72.79,1.05,116.72c.04,5.49,.09,11.05,.14,16.68v4.23c.04,1.44-.13,2.87-.5,4.26-.38,1.39-.96,2.72-1.74,3.94-.8,1.22-1.77,2.31-2.88,3.25-2.27,1.88-5.06,2.99-8,3.2-2.92,.11-5.83,.07-8.76,.12l-17.77,.15-36.46,.3-18.64,.16-9.42,.07c-3.22,.21-6.42-.64-9.11-2.43-2.67-1.82-4.65-4.49-5.6-7.58-.45-1.53-.66-3.12-.62-4.72v-4.7c-.05-6.26-.1-12.48-.16-18.65-.11-12.35-.21-24.51-.31-36.47-.2-23.91-.4-47-.59-68.94s-.35-42.85-.52-62.38c-.1-9.76-.18-19.18-.25-28.27v-3.38c0-.56,0-1.13,.07-1.69s.13-1.12,.27-1.67c.48-2.18,1.47-4.21,2.88-5.93,2.78-3.38,6.96-5.28,11.33-5.14l12.16-.1h8.72c.97-.06,1.94,.2,2.75,.74,.79,.54,1.4,1.32,1.72,2.23,.28,.89,.38,1.82,.31,2.75v1.36c0,.44,.01,.89,.06,1.33,.12,.86,.49,1.67,1.06,2.32,.56,.65,1.31,1.11,2.14,1.31,.41,.09,.84,.13,1.26,.11h6.27l18.39-.13,8.11-.06h1.9c.61-.08,1.19-.29,1.71-.62,1-.65,1.69-1.67,1.93-2.83,.09-.56,.12-1.13,.09-1.69v-1.67c-.03-.58,0-1.16,.07-1.73,.08-.52,.25-1.03,.51-1.49,.48-.9,1.26-1.61,2.21-2,.89-.3,1.83-.41,2.77-.32l9.05-.06h5.56l-5.56,.06-9.05,.09c-.92-.07-1.84,.04-2.72,.32-.92,.38-1.67,1.06-2.14,1.94-.24,.46-.41,.95-.49,1.46-.07,.53-.09,1.07-.06,1.6v1.67c.03,.58,0,1.16-.09,1.73-.24,1.21-.97,2.26-2,2.93-.53,.34-1.14,.56-1.77,.64-.64,.07-1.27,0-1.91,0l-8.11,.07-18.4,.17h-6.3c-.44,.02-.88-.02-1.31-.12-.88-.21-1.68-.69-2.27-1.37-.58-.65-.97-1.46-1.12-2.32-.05-.45-.07-.91-.06-1.36v-1.36c.07-.9-.03-1.81-.3-2.67-.3-.87-.88-1.62-1.64-2.14-.77-.51-1.69-.76-2.61-.7h-2.87l-5.85,.05-12.16,.18c-2.09-.05-4.16,.36-6.07,1.2-1.93,.89-3.64,2.2-5,3.84-1.38,1.69-2.35,3.69-2.82,5.82-.14,.53-.17,1.08-.26,1.63s-.06,1.1-.06,1.66v3.38c.08,9.07,.16,18.5,.25,28.27,.18,19.54,.36,40.42,.56,62.39s.39,45,.6,68.93c.11,11.96,.21,24.12,.32,36.47,.05,6.18,.1,12.4,.16,18.66v4.7c-.03,1.56,.17,3.11,.61,4.6,.93,3.01,2.84,5.61,5.44,7.38,2.62,1.74,5.74,2.57,8.88,2.36l9.42-.08,18.65-.15,36.46-.3,17.76-.14c2.93-.05,5.87,0,8.75-.12,2.86-.19,5.6-1.28,7.81-3.11,1.08-.91,2.03-1.98,2.8-3.16,.76-1.18,1.34-2.48,1.7-3.84,.36-1.36,.53-2.76,.49-4.16v-4.23c-.04-5.62-.09-11.18-.14-16.67-.36-43.94-.69-83.5-1-116.73s-.47-60.11-.62-78.7c0-2.32,0-4.52-.05-6.58,.03-1.92-.34-3.83-1.06-5.61-.64-1.52-1.54-2.91-2.66-4.11-.9-1.02-1.96-1.9-3.13-2.6-1.59-.96-3.37-1.57-5.22-1.79-.47-.07-.94-.11-1.41-.12l-.47-.02Z"/>
    <path class="cls-14" d="M165.35,87.8c0,.06-2.3,.15-5.14,.19s-5.15,0-5.16,0,2.31-.14,5.15-.19,5.15-.06,5.15,0Z"/>
    <path class="cls-14" d="M165.4,90.43c0,.06-2.31,.15-5.15,.2s-5.15,0-5.15,0c0,0,2.3-.15,5.15-.2s5.15-.06,5.15,0Z"/>
    <path class="cls-14" d="M165.43,93.07c0,.06-2.3,.15-5.14,.19s-5.15,0-5.16,0,2.31-.14,5.15-.19,5.15-.06,5.15,0Z"/>
    <path class="cls-14" d="M71.76,96.9h.81l2.19-.07-.06,.06v-2.51c.07-.36,.36-.64,.73-.69h1.05c.42,.06,.73,.42,.73,.84v2.33l-.11-.1h2.78l-.11,.1c0-1.11,0-2.27-.06-3.45v-.88c-.03-.26-.18-.5-.4-.65l-1.22-1.19-1.18-1.14c-.19-.19-.39-.37-.57-.56s-.36-.38-.58-.42c-.22-.06-.46-.01-.64,.13-.16,.14-.34,.34-.51,.51-.34,.35-.67,.68-1,1-.63,.66-1.27,1.26-1.74,1.82-.13,.32-.18,.66-.13,1v3.93c-.01-.11-.01-.22,0-.33v-4.13c-.01-.2,.04-.41,.15-.58,.5-.64,1.11-1.2,1.74-1.87l1-1c.18-.18,.32-.36,.53-.54,.23-.18,.53-.23,.81-.16,.26,.09,.49,.25,.67,.47l.57,.55,1.05,1.07,1.22,1.18c.12,.1,.22,.21,.31,.33,.1,.14,.15,.3,.15,.47v.88c0,1.19,0,2.34,.06,3.46v.11h-2.98v-2.42c0-.33-.23-.62-.56-.67h-1c-.3,.03-.54,.26-.59,.55v2.54h-2.92c-.13,.04-.2,.04-.19,.03Z"/>
    <rect class="cls-5" x="67.82" y="110.43" width="97.27" height="17.69" rx="7.46" ry="7.46" transform="translate(-1.06 1.04) rotate(-.51)"/>
    <path class="cls-14" d="M157.7,127.77l.56-.06c.54-.05,1.08-.16,1.6-.32,.84-.28,1.63-.7,2.33-1.25,.96-.75,1.71-1.73,2.2-2.84,.29-.65,.48-1.35,.56-2.06,.07-.79,.08-1.59,.05-2.39,.02-.87-.02-1.73-.14-2.59-.16-.92-.5-1.79-1-2.58-1.1-1.77-2.89-2.99-4.94-3.37-1.12-.12-2.25-.16-3.38-.1h-3.59l-76.69,.77c-3.79,.03-6.92,2.96-7.2,6.74v2.71c-.03,.89,.07,1.77,.3,2.63,.48,1.68,1.54,3.13,3,4.09,.72,.48,1.52,.82,2.37,1,.84,.16,1.7,.21,2.56,.17h5.15l10-.09,34.51-.26,23.26-.15h6.33l-6.33,.09-23.26,.26-34.5,.35-10,.09h-5.15c-.88,.04-1.77-.02-2.64-.18-.88-.18-1.72-.52-2.48-1-1.55-.99-2.69-2.51-3.22-4.27-.25-.89-.35-1.81-.32-2.73v-2.74c.3-3.96,3.58-7.03,7.55-7.07l76.76-.63h3.59c1.14-.06,2.29-.02,3.43,.11,2.11,.4,3.95,1.67,5.07,3.49,.49,.82,.83,1.72,1,2.66,.11,.87,.15,1.74,.12,2.62,.03,.8,.01,1.61-.06,2.41-.09,.73-.29,1.44-.6,2.1-.5,1.13-1.27,2.11-2.25,2.86-.71,.55-1.51,.97-2.37,1.24-.53,.15-1.08,.25-1.63,.29h-.55Z"/>
    <path class="cls-14" d="M159.12,118.48s0-.28-.17-.76c-.21-.67-.62-1.26-1.19-1.67-1.35-.96-3.22-.64-4.18,.71-.96,1.35-.64,3.22,.71,4.18,1.04,.74,2.44,.74,3.48,0,.56-.42,.97-1.01,1.16-1.69,.13-.48,.13-.77,.16-.77s0,.07,0,.21c.03,.2,.03,.39,0,.59-.14,.74-.54,1.4-1.12,1.88-.89,.72-2.08,.92-3.16,.55-1.75-.61-2.68-2.52-2.08-4.27,.33-.95,1.07-1.71,2.02-2.06,1.07-.39,2.26-.21,3.17,.48,.6,.45,1.01,1.11,1.17,1.84,.05,.2,.07,.4,.07,.6,0,.11,0,.18-.03,.18Z"/>
    <path class="cls-14" d="M160.93,123.99c-.61-.37-1.15-.85-1.59-1.41-.53-.47-.98-1.04-1.31-1.67,.6,.38,1.14,.86,1.58,1.42,.53,.48,.97,1.04,1.32,1.66Z"/>
    <path class="cls-11" d="M80.93,117.83h-1.73v-.45h4v.46h-1.74v4.49h-.53v-4.5Z"/>
    <path class="cls-11" d="M86.78,120.56h-3.1c.05,.76,.71,1.33,1.47,1.28,.43,0,.84-.18,1.13-.5l.29,.32c-.79,.77-2.06,.76-2.83-.03-.32-.33-.52-.76-.56-1.22-.06-.99,.69-1.84,1.68-1.9,.04,0,.08,0,.12,0,.97-.03,1.78,.73,1.81,1.71,0,.05,0,.1,0,.15,0,.08-.01,.13-.01,.19Zm-3.1-.35h2.63c-.06-.73-.7-1.26-1.43-1.2-.64,.06-1.14,.56-1.2,1.2Z"/>
    <path class="cls-11" d="M90.09,122.23l-1.2-1.54-1.17,1.56h-.56l1.45-1.92-1.41-1.79h.56l1.13,1.44,1.1-1.46h.55l-1.38,1.81,1.5,1.9h-.57Z"/>
    <path class="cls-11" d="M93.44,121.98c-.22,.18-.5,.27-.78,.26-.55,.05-1.04-.35-1.09-.9,0-.06,0-.12,0-.18v-2.24h-.67v-.43h.66v-.81h.51v.81h1.13v.43h-1.15v2.21c0,.44,.23,.68,.64,.67,.2,0,.4-.06,.55-.19l.2,.37Z"/>
    <rect class="cls-16" x="72.23" y="143.12" width="21.29" height="21.29" transform="translate(-1.37 .74) rotate(-.51)"/>
    <path class="cls-16" d="M134.39,144.82c0,.1-7.11,.24-15.89,.32s-15.9,.06-15.9,0,7.11-.24,15.89-.32c8.78-.08,15.9-.1,15.9,0Z"/>
    <path class="cls-14" d="M159.81,151.16c0,.1-12.8,.3-28.58,.44s-28.58,.17-28.58,.07,12.79-.3,28.58-.44c15.79-.14,28.58-.21,28.58-.07Z"/>
    <path class="cls-14" d="M159.18,155.79c0,.1-12.65,.29-28.24,.43s-28.25,.17-28.25,.07,12.64-.29,28.24-.43,28.25-.17,28.25-.07Z"/>
    <path class="cls-14" d="M136.08,160.44c0,.1-7.46,.25-16.67,.33s-16.68,.06-16.68,0,7.47-.24,16.68-.32c9.21-.08,16.67-.11,16.67,0Z"/>
    <rect class="cls-16" x="72.74" y="178.36" width="21.29" height="21.29" transform="translate(-1.89 .84) rotate(-.57)"/>
    <path class="cls-10" d="M134.71,180.29c0,.1-7.12,.25-15.9,.32s-15.9,.06-15.9,0,7.11-.24,15.9-.32,15.9-.13,15.9,0Z"/>
    <path class="cls-14" d="M160.12,186.59c0,.1-12.79,.3-28.57,.44s-28.58,.17-28.58,.07,12.79-.3,28.57-.43c15.78-.13,28.58-.18,28.58-.08Z"/>
    <path class="cls-14" d="M159.49,191.26c0,.1-12.64,.29-28.24,.43s-28.24,.17-28.24,.07,12.64-.29,28.24-.43c15.6-.14,28.24-.17,28.24-.07Z"/>
    <path class="cls-14" d="M136.39,195.91c0,.1-7.46,.25-16.67,.33s-16.67,.07-16.67,0,7.46-.25,16.67-.33c9.21-.08,16.67-.1,16.67,0Z"/>
    <rect class="cls-14" x="72.86" y="213.92" width="21.29" height="21.29" transform="translate(-2 .75) rotate(-.51)"/>
    <path class="cls-10" d="M135.01,215.76c0,.1-7.12,.25-15.9,.32s-15.9,.06-15.9,0,7.12-.24,15.9-.32c8.78-.08,15.9-.1,15.9,0Z"/>
    <path class="cls-14" d="M160.43,222.07c0,.1-12.79,.29-28.57,.43s-28.58,.17-28.58,.07,12.79-.29,28.58-.43c15.79-.14,28.57-.17,28.57-.07Z"/>
    <path class="cls-14" d="M159.79,226.73c0,.1-12.64,.29-28.24,.43s-28.24,.17-28.24,.07,12.64-.29,28.24-.43c15.6-.14,28.24-.17,28.24-.07Z"/>
    <path class="cls-14" d="M136.71,231.38c0,.1-7.47,.25-16.67,.33s-16.68,.07-16.68,0,7.46-.25,16.67-.33,16.68-.1,16.68,0Z"/>
    <rect class="cls-10" x="73.18" y="249.39" width="21.29" height="21.29" transform="translate(-2.31 .76) rotate(-.51)"/>
    <path class="cls-13" d="M135.33,251.23c0,.1-7.11,.25-15.89,.32s-15.91,.06-15.91,0,7.12-.24,15.9-.32c8.78-.08,15.9-.07,15.9,0Z"/>
    <path class="cls-14" d="M160.75,257.54c0,.1-12.8,.29-28.58,.43s-28.58,.17-28.58,.07,12.79-.29,28.58-.43c15.79-.14,28.58-.17,28.58-.07Z"/>
    <path class="cls-14" d="M160.11,262.16c0,.1-12.64,.3-28.23,.43s-28.25,.17-28.25,.07,12.64-.29,28.24-.43,28.24-.13,28.24-.07Z"/>
    <path class="cls-14" d="M137.01,266.85c0,.1-7.46,.25-16.67,.33s-16.68,.07-16.68,0,7.46-.25,16.67-.33,16.68-.1,16.68,0Z"/>
    <rect class="cls-11" x="73.81" y="284.78" width="21.29" height="21.29" transform="translate(-2.95 .86) rotate(-.57)"/>
    <path class="cls-11" d="M135.65,286.7c0,.1-7.12,.25-15.9,.33s-15.9,.05-15.9-.05,7.11-.24,15.89-.32,15.9-.06,15.91,.04Z"/>
    <path class="cls-2" d="M161.06,293.01c0,.1-12.8,.29-28.58,.43s-28.58,.17-28.58,.07,12.8-.29,28.58-.43,28.58-.17,28.58-.07Z"/>
    <path class="cls-2" d="M160.43,297.67c0,.1-12.65,.3-28.24,.43s-28.24,.17-28.25,.07,12.65-.29,28.25-.43c15.6-.14,28.24-.17,28.24-.07Z"/>
    <path class="cls-2" d="M137.33,302.32c0,.1-7.46,.25-16.67,.33s-16.68,.07-16.68,0,7.47-.25,16.68-.33c9.21-.08,16.67-.1,16.67,0Z"/>
    <rect class="cls-15" x="73.18" y="249.39" width="21.29" height="21.29" transform="translate(-2.31 .76) rotate(-.51)"/>
    <path class="cls-7" d="M411.62,308.51l-11.84-.08c-1.62,.03-2.92,1.37-2.89,2.99,0,0,0,0,0,.01v2.14c.04,1.62-1.24,2.96-2.86,3-.01,0-.02,0-.03,0l-23.06-.16c-1.62-.04-2.89-1.38-2.86-3v-2.14c0-1.6-1.26-2.93-2.86-3h-4.16l-10.35-.08c-5.14-.04-9.34,4.08-9.38,9.22h0s-.86,96.01-.86,96.01c-.03,5.13,4.1,9.32,9.23,9.35,0,0,0,0,.01,0l60.91,.42c5.13,.05,9.33-4.07,9.38-9.2v-.02s.86-96,.86-96c.09-5.14-4-9.37-9.14-9.46-.03,0-.07,0-.1,0Z"/>
    <path class="cls-14" d="M411.62,308.51h1c.96,.11,1.9,.37,2.79,.76,3.5,1.59,5.68,5.16,5.5,9-.08,9.71-.2,23.74-.34,41.08-.07,8.67-.15,18.17-.24,28.37-.04,5.1-.09,10.37-.14,15.81,0,2.71,0,5.47-.07,8.26,.07,1.41-.03,2.83-.31,4.22-.36,1.4-1.05,2.71-2,3.8-.96,1.1-2.16,1.98-3.5,2.55-1.37,.56-2.84,.81-4.32,.73l-8.91-.06-18.37-.12-19-.13-9.74-.07c-1.63,0-3.26,0-4.92-.07-1.67-.12-3.28-.69-4.66-1.65-1.37-.96-2.46-2.28-3.16-3.8-.68-1.51-.98-3.17-.86-4.83,0-3.27,.03-6.51,.09-9.74,.06-6.45,.12-12.78,.17-19,.12-12.48,.23-24.52,.33-36,.05-5.73,.1-11.32,.16-16.76,0-2.71,.05-5.39,.07-8v-3.93c-.06-1.29,.04-2.58,.3-3.85,.63-2.48,2.25-4.6,4.48-5.86,1.07-.61,2.25-1,3.47-1.15,1.22-.13,2.41-.05,3.6-.06l6.95,.05h5.03c.56-.02,1.11,.12,1.6,.4,.96,.59,1.52,1.64,1.49,2.76v1.58c-.05,.51,0,1.02,.16,1.51,.33,.96,1.14,1.68,2.14,1.88,1,.1,2,0,3,.07l11,.08,9.6,.08c1.45-.05,2.64-1.17,2.78-2.61v-2c-.05-.63,.06-1.26,.32-1.84,.53-1.06,1.63-1.71,2.82-1.66h7.72l3.9,.05h-11.62c-1.16-.06-2.24,.58-2.74,1.63-.26,.56-.36,1.18-.31,1.8v2c-.15,1.49-1.37,2.64-2.86,2.7l-9.61-.06-11-.07c-1,0-2,0-3-.07-1.05-.21-1.91-.98-2.25-2-.16-.5-.22-1.03-.17-1.56v-1.58c.03-1.07-.52-2.07-1.43-2.63-.46-.27-.99-.4-1.53-.38h-5.02l-6.95-.05c-1.19-.04-2.39-.02-3.58,.06-3.77,.47-6.87,3.21-7.8,6.89-.26,1.26-.36,2.54-.3,3.82v3.92c0,2.63-.05,5.31-.07,8-.05,5.43-.1,11.01-.15,16.75-.1,11.47-.2,23.51-.31,36-.06,6.24-.12,12.57-.17,19,0,3.22-.03,6.47-.09,9.74-.11,1.63,.17,3.26,.83,4.75,.69,1.49,1.76,2.77,3.1,3.71,1.35,.94,2.92,1.49,4.56,1.61,1.63,.08,3.28,0,4.91,.07l9.73,.07,19,.13,18.37,.14,8.91,.06c1.45,.07,2.89-.17,4.24-.71,1.32-.57,2.49-1.43,3.43-2.51,.92-1.07,1.58-2.35,1.93-3.72,.27-1.37,.37-2.77,.3-4.17,0-2.79,.06-5.55,.08-8.26,.05-5.44,.1-10.71,.15-15.81,.09-10.2,.18-19.7,.26-28.37,.17-17.34,.31-31.37,.41-41.09,.1-2.15-.54-4.27-1.82-6-.93-1.27-2.18-2.29-3.62-2.94-.88-.4-1.82-.66-2.78-.78l-.96,.06Z"/>
    <rect class="cls-16" x="358.32" y="326.06" width="44.69" height="64.36" transform="translate(21.49 738.04) rotate(-89.86)"/>
    <circle class="cls-7" cx="380.69" cy="358.14" r="9.34"/>
    <polygon class="cls-16" points="378.39 358.14 378.4 353.93 382.04 356.04 385.68 358.15 382.02 360.25 378.38 362.34 378.39 358.14"/>
    <path class="cls-14" d="M355.4,387.16v-.72s.04-.09,.09-.09c.01,0,.03,0,.04,0l.62,.36,.62,.37s.05,.07,.03,.11c0,.01-.02,.02-.03,.03l-.62,.36-.63,.36s-.09,0-.11-.03c0-.01-.01-.03-.01-.04v-.72Z"/>
    <path class="cls-14" d="M361.26,386.65h-.54s-.08,.04-.08,.08c0,0,0,0,0,.01v1s.04,.08,.09,.08h.53l.83,.84v-2.8l-.83,.79Z"/>
    <path class="cls-14" d="M357.26,388.06h0c-.08,0-.14-.06-.14-.14h0v-1.44c0-.08,.07-.15,.15-.15h0c.08,0,.14,.07,.14,.15v1.44c0,.08-.07,.14-.15,.14Z"/>
    <path class="cls-14" d="M362.43,386.34v1.75c.36-.15,.59-.49,.61-.88,0-.39-.24-.74-.61-.87Z"/>
    <path class="cls-14" d="M362.43,385.67v.37c.52,.15,.88,.63,.88,1.17,0,.55-.37,1.03-.89,1.18v.36c.85-.17,1.4-.99,1.23-1.85-.12-.62-.61-1.11-1.23-1.23h.01Z"/>
    <path class="cls-14" d="M366.93,386.65v1.69h-.24v-1.48h-.38v-.21h.62Z"/>
    <path class="cls-14" d="M367.26,387.21c0-.09,.07-.16,.16-.16,0,0,0,0,.01,0,.09,0,.16,.07,.16,.16h0c0,.09-.06,.16-.15,.17,0,0,0,0-.01,0-.09,0-.17-.08-.17-.17h0Zm0,1c0-.09,.07-.16,.16-.16,0,0,0,0,.01,0,.09,0,.16,.07,.16,.16h0c0,.09-.07,.16-.16,.17-.09,0-.17-.07-.18-.16,0-.02,0-.04,0-.06v.05Z"/>
    <path class="cls-14" d="M367.86,387.5c0-.56,.29-.87,.69-.87s.69,.32,.69,.87-.3,.87-.69,.87-.69-.32-.69-.87Zm1.14,0c0-.43-.18-.65-.45-.65s-.45,.21-.45,.65,.18,.65,.45,.65,.45-.22,.45-.65h0Z"/>
    <path class="cls-14" d="M369.99,386.65v1.7h-.24v-1.49h-.38v-.21h.62Z"/>
    <path class="cls-14" d="M371.62,386.31h.21l-.8,2.28h-.22l.81-2.28Z"/>
    <path class="cls-14" d="M373.85,387.88c0,.31-.26,.5-.68,.5s-.67-.2-.67-.5c0-.19,.12-.36,.3-.41-.14-.07-.24-.21-.23-.37,0-.28,.24-.46,.61-.46s.61,.18,.61,.46c0,.16-.09,.31-.24,.37,.18,.05,.31,.22,.3,.41Zm-.24,0c0-.19-.17-.3-.43-.3s-.43,.11-.43,.3,.16,.31,.42,.31,.44-.13,.44-.32h0Zm-.8-.75c0,.17,.13,.27,.37,.27s.37-.1,.37-.27-.14-.27-.37-.27-.37,.09-.37,.31v-.04Z"/>
    <path class="cls-14" d="M374.07,387.23c0-.09,.07-.16,.16-.17,.09,0,.17,.08,.17,.17,0,.09-.08,.17-.17,.17-.09,0-.16-.08-.16-.17Zm0,1c0-.09,.07-.16,.16-.16s.16,.07,.16,.16-.07,.16-.16,.16-.16-.07-.16-.16Z"/>
    <path class="cls-14" d="M374.61,387.51c0-.55,.3-.86,.7-.86s.69,.31,.69,.87-.3,.86-.7,.86-.69-.31-.69-.87Zm1.14,0c0-.44-.18-.66-.44-.66s-.45,.22-.45,.65,.18,.66,.44,.66,.45-.21,.45-.64h0Z"/>
    <path class="cls-14" d="M376.26,387.52c0-.56,.3-.87,.69-.87s.69,.32,.69,.87-.3,.87-.69,.87-.69-.32-.69-.87Zm1.14,0c0-.43-.18-.65-.45-.65s-.45,.21-.45,.65,.18,.65,.45,.65,.43-.22,.43-.65h.02Z"/>
    <path class="cls-14" d="M349.26,388.06h0c-.15-.01-.28-.14-.28-.29v-1.49c0-.16,.13-.29,.29-.29h0c.15,0,.28,.13,.28,.28,0,0,0,0,0,.01v1.49c0,.16-.13,.29-.29,.29h0Z"/>
    <path class="cls-14" d="M350.52,388.06h0c-.15,0-.28-.13-.28-.28,0,0,0,0,0-.01v-1.49c0-.16,.13-.29,.29-.29h0c.16,0,.28,.13,.28,.29v1.49c0,.16-.13,.29-.29,.29h0Z"/>
    <path class="cls-11" d="M412.49,384.62l-63.44-.15c-.34,0-.61-.27-.61-.61h0c0-.34,.27-.61,.61-.61l63.45,.15c.34,0,.61,.27,.61,.61h0c0,.34-.27,.61-.61,.61,0,0,0,0-.01,0Z"/>
    <path class="cls-16" d="M372.38,384.52l-23.32-.05c-.34,0-.61-.27-.61-.61h0c0-.34,.27-.61,.61-.61l23.32,.05c.29,0,.53,.24,.53,.53v.17c0,.29-.23,.52-.52,.52,0,0,0,0-.01,0Z"/>
    <path class="cls-16" d="M373.52,383.92c-.01,.64-.53,1.15-1.17,1.16-.65,0-1.17-.52-1.17-1.17,0-.65,.52-1.17,1.17-1.17,.65,0,1.17,.52,1.17,1.17,0,0,0,0,0,0Z"/>
    <path class="cls-14" d="M412.61,395.86c0,.15-14.18,.23-31.66,.19s-31.69-.19-31.69-.34,14.18-.22,31.67-.18,31.68,.19,31.68,.33Z"/>
    <path class="cls-14" d="M412.6,402.16c0,.15-14.18,.23-31.67,.19s-31.67-.19-31.67-.38,14.17-.22,31.66-.18,31.68,.19,31.68,.37Z"/>
    <path class="cls-14" d="M412.58,408.38c0,.15-14.18,.23-31.66,.19s-31.67-.19-31.67-.34,14.18-.22,31.67-.18,31.66,.19,31.66,.33Z"/>
    <path class="cls-7" d="M412.02,135.72l-11.84-.06c-1.62,.03-2.91,1.38-2.88,3,0,0,0,0,0,0v2.14c.03,1.62-1.26,2.97-2.88,3,0,0,0,0-.01,0l-23.06-.11c-1.62-.04-2.9-1.38-2.86-3,0,0,0,0,0,0v-2.14c0-1.6-1.26-2.93-2.86-3h-14.52c-5.13-.04-9.32,4.09-9.36,9.22,0,0,0,.01,0,.02l-.63,148.94c-.01,5.13,4.14,9.3,9.27,9.32l60.91,.28c5.13,.03,9.32-4.1,9.35-9.23,0,0,0,0,0-.01l.6-149.05c.01-5.12-4.11-9.28-9.23-9.32Z"/>
    <path class="cls-14" d="M412.02,135.72h.32c.31,0,.63,.03,.94,.08,1.23,.15,2.42,.57,3.48,1.21,1.74,1.04,3.11,2.62,3.88,4.5,.48,1.2,.71,2.48,.68,3.77v4.38c-.05,12.39-.11,30.3-.19,52.44s-.19,48.49-.31,77.76c0,3.66,0,7.36-.05,11.11-.05,1.86,.17,3.79-.4,5.64-.29,.92-.7,1.79-1.23,2.59-.56,.79-1.24,1.5-2,2.1-1.54,1.22-3.43,1.92-5.39,2h-5.83l-11.84-.06-24.28-.08-12.42-.05h-6.28c-2.13,.11-4.24-.48-6-1.68-1.77-1.23-3.06-3.02-3.67-5.08-.29-1.02-.42-2.07-.38-3.13v-3.14c0-4.17,.02-8.31,.06-12.42,0-8.23,.03-16.33,.1-24.3,.07-15.93,.14-31.29,.2-45.93s.13-28.55,.19-41.56c0-6.51,.03-12.79,.08-18.84-.08-1.5,.02-3,.29-4.48,.35-1.44,1.04-2.77,2-3.89,.95-1.09,2.14-1.95,3.48-2.52,1.32-.52,2.73-.76,4.14-.71h13.9c.65-.02,1.28,.18,1.81,.55,.51,.38,.89,.91,1.09,1.52,.15,.6,.21,1.22,.16,1.83-.04,.6-.04,1.19,0,1.79,.08,.58,.34,1.12,.73,1.55,.38,.43,.89,.73,1.45,.85,.56,.08,1.13,.1,1.7,.08h3.35l12.26,.07h6.67c.41-.04,.8-.18,1.14-.4,.66-.43,1.13-1.11,1.3-1.88,.08-.74,.12-1.49,.1-2.23-.07-.72,.08-1.44,.42-2.07,.33-.59,.86-1.04,1.5-1.28,.6-.18,1.22-.24,1.84-.18h6l5,.05h-11c-.61-.06-1.23,0-1.82,.18-.62,.24-1.14,.68-1.46,1.26-.33,.61-.47,1.31-.41,2,.03,.75,0,1.51-.07,2.26-.16,.8-.65,1.5-1.34,1.94-.35,.22-.75,.37-1.17,.42h-22.29c-.58,.02-1.16,0-1.73-.08-.58-.13-1.11-.44-1.51-.89-.41-.45-.68-1.01-.77-1.61-.07-.61,0-1.2,0-1.81,.05-.6,0-1.21-.15-1.79-.18-.57-.53-1.08-1-1.45-1-.79-2.38-.46-3.64-.54h-12c-1.39-.05-2.78,.19-4.07,.71-1.31,.56-2.48,1.4-3.42,2.48-.97,1.1-1.65,2.41-2,3.83-.27,1.46-.37,2.95-.29,4.44,0,6.05-.02,12.33-.07,18.84-.05,13-.11,26.92-.17,41.56s-.12,30-.19,45.93c0,7.96-.03,16.06-.1,24.3,0,4.11-.02,8.25-.05,12.42v3.14c-.04,1.04,.08,2.07,.37,3.07,.59,2.03,1.86,3.79,3.59,5,1.74,1.18,3.81,1.75,5.91,1.64h6.28l12.42,.06,24.29,.11,11.84,.06h5.82c1.92-.08,3.77-.76,5.28-1.94,.74-.59,1.39-1.28,1.93-2.06,.52-.78,.93-1.63,1.21-2.53,.56-1.81,.34-3.72,.4-5.59,0-3.75,0-7.45,.05-11.11,.13-29.27,.25-55.62,.35-77.76s.19-40,.25-52.44c-.06-3.07,.36-5.91-.64-8.13-.76-1.87-2.11-3.44-3.84-4.48-1.06-.65-2.24-1.07-3.47-1.23-.31-.05-.62-.08-.93-.09l-.38-.08Z"/>
    <path class="cls-14" d="M410.88,157.3c0,.14-12.86,.26-28.73,.26s-28.73-.12-28.73-.26,12.86-.26,28.73-.26,28.73,.12,28.73,.26Z"/>
    <rect class="cls-16" x="356.08" y="253.19" width="52.22" height="36.26"/>
    <path class="cls-7" d="M303.46,172.16h-17.73c-2.43,.05-4.36,2.07-4.31,4.5v3.22c.05,2.43-1.87,4.44-4.3,4.49h-34.56c-2.43-.05-4.35-2.07-4.3-4.5,0,0,0,0,0,0v-3.22c.05-2.43-1.88-4.45-4.31-4.5h-21.75c-7.67,.03-13.88,6.22-13.94,13.89l-.05,223.74c.03,7.69,6.25,13.92,13.94,13.95l91.26,.06c7.69-.03,13.92-6.26,13.95-13.95l.05-223.75c-.04-7.69-6.26-13.9-13.95-13.93Z"/>
    <path class="cls-14" d="M303.46,172.16h.47c.48,0,.95,.04,1.42,.11,1.85,.22,3.64,.83,5.23,1.8,1.18,.69,2.26,1.56,3.18,2.58,1.13,1.22,2.03,2.63,2.66,4.17,.71,1.8,1.05,3.73,1,5.66v6.58c0,18.58,0,45.47,.05,78.7,.05,33.23,0,72.8,0,116.73v20.9c.03,1.44-.16,2.87-.54,4.26-.39,1.39-.99,2.72-1.78,3.93-.81,1.21-1.78,2.3-2.9,3.23-2.29,1.86-5.11,2.95-8.06,3.12-2.92,.09-5.83,0-8.77,0h-82.23c-3.22,.18-6.41-.7-9.08-2.51-2.66-1.84-4.61-4.54-5.53-7.64-.44-1.53-.63-3.13-.58-4.72V186.26c0-.57,0-1.13,.07-1.7s.15-1.12,.29-1.66c.5-2.17,1.51-4.2,2.93-5.91,2.82-3.33,7.02-5.18,11.38-5h20.87c.98-.05,1.94,.22,2.75,.77,.79,.55,1.38,1.34,1.71,2.24,.26,.9,.36,1.83,.28,2.76v1.36c-.03,.44-.03,.89,0,1.33,.1,.86,.45,1.67,1,2.33,.56,.65,1.3,1.11,2.13,1.32,.41,.1,.84,.15,1.26,.13h34.73c.6-.07,1.19-.28,1.7-.6,1.02-.62,1.74-1.64,2-2.81,.1-.56,.13-1.12,.11-1.69v-1.67c-.02-.54,0-1.09,.07-1.63,.09-.52,.27-1.03,.53-1.49,.49-.91,1.28-1.61,2.23-2,.89-.28,1.84-.39,2.77-.3h0c-.92-.08-1.85,.02-2.73,.3-.92,.37-1.68,1.04-2.15,1.91-.25,.45-.42,.95-.51,1.46-.06,.53-.09,1.07-.07,1.6v1.85c.02,.58-.01,1.15-.11,1.72-.25,1.2-.97,2.26-2,2.92-.54,.34-1.15,.55-1.78,.63-.64,.06-1.27,0-1.91,0h-32.7c-.44,.02-.88-.03-1.31-.13-.88-.22-1.67-.7-2.26-1.39-.6-.7-.98-1.55-1.1-2.46-.03-.45-.03-.91,0-1.36v-1.36c.07-.9-.03-1.8-.28-2.67-.3-.86-.86-1.6-1.61-2.12-.77-.52-1.68-.77-2.61-.72h-20.91c-4.29-.16-8.41,1.69-11.15,5-1.4,1.68-2.38,3.66-2.87,5.79-.14,.53-.18,1.08-.28,1.62s-.07,1.11-.07,1.67v222.76c-.05,1.56,.14,3.11,.57,4.61,.9,3.01,2.79,5.63,5.37,7.43,2.61,1.76,5.72,2.61,8.86,2.44h82.28c2.93,0,5.87,.05,8.75,0,2.86-.16,5.6-1.21,7.84-3,1.09-.9,2.04-1.96,2.83-3.14,.77-1.18,1.35-2.46,1.73-3.82,.38-1.35,.55-2.76,.53-4.16v-20.9c0-43.93,0-83.5,.07-116.73s.06-60.12,.08-78.7v-6.58c.04-1.92-.3-3.83-1-5.62-.62-1.52-1.51-2.92-2.62-4.14-.91-1.01-1.98-1.88-3.15-2.58-1.58-.97-3.36-1.59-5.2-1.83-.47-.08-.94-.12-1.41-.13l-.47-.05Z"/>
    <path class="cls-14" d="M306.26,196.23c0,.06-2.3,.13-5.15,.15s-5.15,0-5.15-.07,2.31-.12,5.15-.15,5.15,0,5.15,.07Z"/>
    <path class="cls-14" d="M306.32,198.86c0,.06-2.31,.13-5.15,.16s-5.15,0-5.15-.07,2.3-.13,5.14-.15,5.15,0,5.16,.06Z"/>
    <path class="cls-14" d="M306.33,201.5c0,.06-2.31,.13-5.15,.15s-5.15,0-5.15-.07,2.3-.12,5.15-.15,5.15,.01,5.15,.07Z"/>
    <path class="cls-14" d="M208.26,203.16h.81l2.2-.05v.05c0-.48,0-1,0-1.59v-.92c.07-.36,.37-.64,.74-.68h1c.42,.07,.72,.43,.72,.85v2.32l-.11-.1h2.78l-.11,.1v-4.33c-.02-.27-.16-.51-.39-.66l-1.21-1.2-1.17-1.15-.57-.56c-.14-.19-.34-.34-.57-.43-.22-.06-.46-.01-.64,.12l-.51,.51-1,1c-.62,.65-1.28,1.24-1.75,1.8-.13,.32-.18,.66-.14,1v3.58c0,.12,0,.24,0,.36v-4.46c0-.2,.06-.4,.16-.58,.51-.62,1.12-1.18,1.75-1.85l1-1c.18-.18,.33-.35,.54-.53,.23-.17,.52-.23,.8-.16,.26,.09,.49,.25,.67,.47l.57,.56,1.17,1.15,1.22,1.2c.11,.1,.21,.21,.31,.33,.09,.14,.14,.3,.14,.47v4.45h-2.99v-2.4c0-.33-.23-.62-.56-.67h-1c-.29,.04-.53,.25-.59,.54v2.55h-3.26v-.09Z"/>
    <rect class="cls-10" x="214" y="345.97" width="21.29" height="21.29"/>
    <path class="cls-15" d="M276.26,348.27c0,.1-7.12,.18-15.9,.18s-15.9-.08-15.9-.18,7.11-.19,15.9-.19,15.9,.08,15.9,.19Z"/>
    <path class="cls-14" d="M301.6,354.79c0,.1-12.79,.18-28.57,.18s-28.58-.08-28.58-.18,12.79-.18,28.58-.18,28.57,.08,28.57,.18Z"/>
    <path class="cls-14" d="M300.93,359.45c0,.1-12.64,.18-28.24,.18s-28.24-.08-28.24-.18,12.64-.18,28.24-.18,28.24,.08,28.24,.18Z"/>
    <path class="cls-14" d="M277.8,363.9c0,.1-7.47,.18-16.68,.18s-16.67-.08-16.67-.18,7.46-.18,16.67-.18,16.68,.08,16.68,.18Z"/>
    <rect class="cls-15" x="214" y="345.97" width="21.29" height="21.29"/>
    <rect class="cls-10" x="214" y="380.63" width="21.29" height="21.29"/>
    <path class="cls-15" d="M276.26,382.92c0,.1-7.12,.18-15.9,.18s-15.9-.08-15.9-.18,7.11-.18,15.9-.18,15.9,.08,15.9,.18Z"/>
    <path class="cls-14" d="M301.6,389.44c0,.1-12.79,.19-28.57,.19s-28.58-.09-28.58-.19,12.79-.18,28.58-.18,28.57,.08,28.57,.18Z"/>
    <path class="cls-14" d="M300.93,394.16c0,.1-12.64,.18-28.24,.18s-28.24-.08-28.24-.18,12.64-.19,28.24-.19,28.24,.04,28.24,.19Z"/>
    <path class="cls-14" d="M277.8,398.55c0,.1-7.47,.18-16.68,.18s-16.67-.08-16.67-.18,7.46-.18,16.67-.18,16.68,.08,16.68,.18Z"/>
    <rect class="cls-15" x="214" y="380.63" width="21.29" height="21.29"/>
    <rect class="cls-16" x="233.97" y="225.42" width="49.29" height="65.58" transform="translate(-1.04 515.38) rotate(-89.68)"/>
    <polygon class="cls-10" points="224.84 282.67 247.92 252.15 261.99 271.4 271.68 261.21 290.43 283.03 224.84 282.67"/>
    <path class="cls-10" d="M268.15,248.51c-.02,2.85-2.34,5.15-5.19,5.13s-5.15-2.34-5.13-5.19c.02-2.85,2.34-5.15,5.19-5.13,2.85,.02,5.15,2.34,5.13,5.19h0Z"/>
    <polygon class="cls-15" points="224.84 282.67 247.92 252.15 261.99 271.4 271.68 261.21 290.43 283.03 224.84 282.67"/>
    <path class="cls-15" d="M268.15,248.51c-.02,2.85-2.34,5.15-5.19,5.13s-5.15-2.34-5.13-5.19c.02-2.85,2.34-5.15,5.19-5.13,2.85,.02,5.15,2.34,5.13,5.19h0Z"/>
    <path class="cls-14" d="M300.3,292.4c0,.14-19.05,.26-42.54,.26s-42.54-.12-42.54-.26,19.03-.24,42.54-.24,42.54,.1,42.54,.24Z"/>
    <path class="cls-14" d="M300.3,297.94c0,.14-19.05,.26-42.54,.26s-42.54-.12-42.54-.26,19.05-.26,42.54-.26,42.54,.11,42.54,.26Z"/>
    <path class="cls-16" d="M271.64,324.48h-27.74c-4.02,0-7.27-3.25-7.27-7.27h0c0-4.02,3.25-7.27,7.27-7.27h27.74c4.01,0,7.26,3.24,7.27,7.25v.02h0c0,4.01-3.24,7.26-7.25,7.27h-.02Z"/>
    <path class="cls-11" d="M316.2,331.71c0,.14-26.22,.26-58.56,.26s-58.57-.12-58.57-.26,26.22-.26,58.57-.26,58.56,.11,58.56,.26Z"/>
    <path class="cls-16" d="M281.9,221.37c0,.15-10.81,.26-24.14,.26s-24.13-.11-24.13-.26,10.8-.26,24.13-.26,24.14,.12,24.14,.26Z"/>
    <path class="cls-16" d="M286.74,317.21c0,.87-.71,1.58-1.58,1.58s-1.58-.71-1.58-1.58,.71-1.58,1.58-1.58h0c.87,0,1.58,.71,1.58,1.58Z"/>
    <path class="cls-16" d="M350.73,212.97c-.13,.02-.25,.02-.38,0h-5.53l-16.36,.19,.18-.17v62.53c0,15.24-.09,29.55-.12,41.71v.23h-.26l-31.23-.1-8.76-.06h0l8.76-.06,31.23-.1-.22,.23c0-12.17,0-26.47,.05-41.71,.08-24.85,.15-47.21,.2-62.53v-.18h.17l16.36,.08h5.53l.38-.06Z"/>
    <circle class="cls-7" cx="382.2" cy="271.25" r="7.58"/>
    <polygon class="cls-16" points="380.33 271.25 380.33 267.84 383.29 269.54 386.24 271.25 383.29 272.96 380.33 274.66 380.33 271.25"/>
    <rect class="cls-13" x="361.85" y="159.52" width="38.91" height="51.77" transform="translate(193.77 565.68) rotate(-89.68)"/>
    <polygon class="cls-14" points="354.65 204.71 372.86 180.63 383.99 195.82 391.62 187.77 406.43 205 354.65 204.71"/>
    <path class="cls-14" d="M388.85,177.75c-.01,2.25-1.85,4.07-4.1,4.06s-4.07-1.85-4.06-4.1c.01-2.25,1.85-4.07,4.1-4.06,2.25,.02,4.07,1.85,4.06,4.1Z"/>
    <rect class="cls-13" x="361.36" y="212.43" width="40.08" height="2.68"/>
    <path class="cls-14" d="M410.14,222.81c0,.15-12.87,.27-28.73,.27s-28.74-.12-28.74-.27,12.86-.26,28.74-.26,28.73,.12,28.73,.26Z"/>
    <path class="cls-14" d="M410.14,230.16c0,.15-12.87,.27-28.73,.27s-28.74-.12-28.74-.27,12.86-.26,28.74-.26,28.73,.11,28.73,.26Z"/>
    <path class="cls-14" d="M410.14,237.49c0,.15-12.87,.26-28.73,.26s-28.74-.11-28.74-.26,12.86-.26,28.74-.26,28.73,.12,28.73,.26Z"/>
    <path class="cls-14" d="M410.14,244.83c0,.15-12.87,.26-28.73,.26s-28.74-.11-28.74-.26,12.86-.26,28.74-.26,28.73,.12,28.73,.26Z"/>
    <path class="cls-16" d="M352.3,212.97c0,.87-.71,1.58-1.58,1.58s-1.58-.71-1.58-1.58,.71-1.58,1.58-1.58h0c.87,0,1.58,.71,1.58,1.58Z"/>
    <path class="cls-16" d="M383.73,294.38c.1,.84-.49,1.61-1.34,1.72-.84,.1-1.61-.49-1.72-1.34-.1-.84,.49-1.61,1.34-1.72,.06,0,.13-.01,.19-.01,.79-.05,1.48,.56,1.53,1.35Z"/>
    <path class="cls-16" d="M383.73,330.04c.1,.84-.5,1.61-1.35,1.71-.84,.1-1.61-.5-1.71-1.35-.1-.84,.5-1.61,1.35-1.71,.06,0,.12-.01,.18-.01,.8-.04,1.48,.57,1.53,1.36Z"/>
    <path class="cls-16" d="M382.2,330.04c-.14,0-.26-8-.26-17.83s.12-17.83,.26-17.83,.26,8,.26,17.83-.12,17.83-.26,17.83Z"/>
    <path class="cls-16" d="M257.62,208.85v-4.15c0-2.72-.05-6.62-.08-11.5,0-9.83,0-23.57-.09-39.38l.25,.26h-17.52l-51.26-.07-15.53-.08-4.22-.05h-1.1c-.12,.01-.25,.01-.37,0h1.47l4.22-.05,15.53-.08,51.26-.08h17.7v.25c0,15.81-.07,29.55-.09,39.38,0,4.88-.06,8.78-.08,11.5v3.88c-.02,.06-.05,.12-.09,.17Z"/>
    <path class="cls-15" d="M259.26,208.85c0,.88-.7,1.59-1.58,1.6-.88,0-1.59-.7-1.6-1.58,0-.88,.7-1.59,1.58-1.6,0,0,0,0,0,0,.87,0,1.58,.71,1.59,1.58Z"/>
    <path class="cls-16" d="M169.26,153.82c0,.87-.71,1.58-1.58,1.58s-1.58-.71-1.58-1.58,.71-1.58,1.58-1.58c.87,0,1.57,.71,1.58,1.58Z"/>
  </g>
  <g id="freepik--Character--inject-6">
    <path class="cls-9" d="M138.33,156.44l5,6.49s2.42,3.73,.54,4.53c-1.66,.7-2.74-1.39-2.74-1.39,0,0-1.06-4.76-3.12-3.6-.29,.17,.21,3.55,.49,5.26,.1,.63,.43,1.19,.94,1.58l5.48,4.2c1.02,.78,2.23,1.27,3.5,1.42l1.95,.23,1.61,3.2,8.86-3.61-7-9.12-3.79-5.8c-.57-.5-1.35-.68-2.08-.49l-.87,.22-.66-.65c-.38-.39-.95-.54-1.48-.39l-.54,.15-1.54-1.51c-.49-.49-3.87-3.64-4.5-3.36-.74,.63-.83,1.74-.2,2.48,.05,.06,.1,.11,.15,.16Z"/>
    <path class="cls-4" d="M148.38,162.6c-.15-.25-.32-.5-.51-.73-.49-.53-1.14-.88-1.85-1-.55-.48-1.05-1.03-1.47-1.63-.19-.24-.34-.5-.45-.78,.19,.23,.37,.47,.54,.72,.44,.56,.93,1.07,1.46,1.55,.18,.06,.38,.1,.58,.17,.5,.19,.94,.5,1.28,.92,.14,.17,.25,.36,.34,.56,.04,.07,.06,.14,.08,.22Z"/>
    <path class="cls-4" d="M149.4,161.29c-.08-.14-.18-.25-.3-.35-.28-.22-.66-.29-1-.18h-.05l-.11-.11c-.44-.42-.83-.88-1.18-1.38,.47,.39,.9,.81,1.29,1.27l.11,.11h-.08c.41-.13,.85-.03,1.16,.26,.16,.16,.19,.38,.16,.38Z"/>
    <polygon class="cls-16" points="139.26 439.25 136.12 467.93 151.57 469.93 154.76 441.21 139.26 439.25"/>
    <path class="cls-14" d="M143.87,467.84c.13,0,.85-6.26,1.6-14s1.25-14.05,1.12-14.06-.84,6.26-1.59,14-1.26,14.05-1.13,14.06Z"/>
    <polygon class="cls-14" points="136.35 465.96 151.79 467.91 151.57 469.93 136.12 467.93 136.35 465.96"/>
    <path class="cls-14" d="M152.59,460.75s-.08-.25-.33-.67c-.36-.57-.77-1.12-1.22-1.62-.68-.75-1.47-1.41-2.33-1.94-3.09-1.93-7.08-1.61-9.83,.78-.51,.46-.95,.98-1.31,1.56-.25,.41-.35,.66-.32,.68,.56-.72,1.18-1.39,1.85-2,1.69-1.35,3.85-1.99,6-1.77,2.16,.3,4.15,1.32,5.65,2.91,1.23,1.21,1.77,2.12,1.84,2.07Z"/>
    <g class="cls-17">
      <polygon points="153.86 449.38 153.51 452.54 138.04 450.47 138.29 448.09 153.86 449.38"/>
    </g>
    <polygon class="cls-16" points="117.04 441.15 118.26 469.98 133.82 469.63 132.65 440.74 117.04 441.15"/>
    <path class="cls-14" d="M125.9,468.72c.13,0-.11-6.32-.54-14.1s-.88-14.08-1-14.07,.11,6.32,.54,14.1,.87,14.07,1,14.07Z"/>
    <polygon class="cls-14" points="118.18 467.99 133.74 467.59 133.82 469.63 118.26 469.98 118.18 467.99"/>
    <path class="cls-14" d="M133.45,460.4c-.1-.23-.25-.44-.43-.61-.43-.52-.92-1-1.45-1.42-.78-.64-1.66-1.17-2.59-1.57-3.35-1.44-7.24-.53-9.6,2.25-.44,.52-.79,1.11-1.06,1.74-.12,.22-.19,.47-.22,.72,.45-.79,.96-1.54,1.53-2.25,1.48-1.6,3.53-2.56,5.71-2.66,2.17-.03,4.29,.67,6,2,1.38,1.03,2.05,1.85,2.11,1.8Z"/>
    <g class="cls-17">
      <polygon points="132.99 448.97 133.12 452.14 117.51 452.42 117.41 450.03 132.99 448.97"/>
    </g>
    <path class="cls-14" d="M134.47,377.76l-.61-78.9h-30.66s-2.42,19.58-1.27,27.48,9.33,51.53,9.33,51.53c0,0,2.65,57.94,4,72.82l19.14-1.72,.07-71.21Z"/>
    <path class="cls-14" d="M153.26,282.22c6.18,5.82,10.28,13.5,11.67,21.87,2.13,13.74-4.31,68.69-4.31,68.69l-5.43,76.19h-18.93l.61-73.36-3.27-54.63-2.13-17.28,21.79-21.48Z"/>
    <path class="cls-13" d="M136.43,371.67c-.05-.15-.08-.31-.08-.47,0-.37-.08-.82-.13-1.36-.09-1.27-.21-3-.36-5-.28-4.24-.62-10.1-.92-16.57s-.5-12.34-.57-16.59v-6.36c0-.16,.01-.32,.05-.48,.05,.16,.07,.32,.06,.48,0,.37,0,.82,.06,1.36,0,1.27,.11,3,.18,5,.19,4.32,.44,10.14,.72,16.57s.57,12.26,.77,16.58c.08,2.06,.15,3.76,.2,5v1.36c.04,.16,.04,.32,.02,.48Z"/>
    <path class="cls-13" d="M159.58,376.16c-.93,0-1.85-.06-2.77-.18-4.44-.31-8.9,.11-13.2,1.24-.88,.28-1.78,.51-2.69,.68,.82-.44,1.69-.77,2.59-1,4.31-1.34,8.86-1.77,13.34-1.24,.93,.05,1.85,.22,2.73,.5Z"/>
    <path class="cls-13" d="M129.26,376.86c0,.09-.92-.19-2.39-.41-1.91-.3-3.85-.3-5.76,0-1.9,.33-3.75,.95-5.46,1.84-1.32,.69-2.07,1.25-2.12,1.18,.55-.61,1.21-1.12,1.94-1.5,1.71-1,3.59-1.68,5.55-2,1.96-.34,3.97-.3,5.92,.1,.81,.13,1.6,.4,2.32,.79Z"/>
    <path class="cls-13" d="M129.45,377.86c-1.76,.98-3.66,1.69-5.63,2.09-1.95,.57-3.97,.84-6,.8,0-.15,2.65-.5,5.84-1.3s5.74-1.74,5.79-1.59Z"/>
    <path class="cls-13" d="M135.43,324.04c-.2,.29-.43,.56-.7,.79-.23,.25-.54,.53-.9,.85s-.78,.7-1.27,1.07c-1.13,.91-2.33,1.72-3.6,2.42-1.57,.89-3.28,1.53-5.05,1.87h0l-.92,.22c-3.39,.73-6.9,.71-10.28-.05-1.02-.22-2.02-.52-3-.9-.35-.12-.69-.28-1-.49,0-.09,1.54,.54,4.1,1,3.34,.64,6.77,.6,10.1-.1l.9-.22h0c1.71-.34,3.36-.94,4.89-1.78,1.26-.66,2.47-1.43,3.61-2.28,1.99-1.42,3.06-2.47,3.12-2.4Z"/>
    <path class="cls-13" d="M141.9,304.58s.08,.32,.2,.87,.27,1.4,.46,2.37c.38,2.09,.92,5,1.56,8.41l-.14-.17,8.28,3.1-.29,.08,4.15-5.38,1-1.3-.05,.19c-.46-4.07-.9-7.9-1.28-11.26l.35,.17c-1.8,.87-3.71,1.49-5.68,1.83-1.73,.35-3.26,.57-4.52,.73s-2.26,.26-2.94,.31c-.35,.03-.7,.03-1.05,0,.33-.08,.66-.14,1-.17l2.92-.43c1.25-.2,2.77-.46,4.48-.84,1.92-.37,3.78-.99,5.53-1.85l.3-.17v.34c.4,3.35,.85,7.18,1.34,11.25v.11l-.07,.08-1,1.3-4.16,5.37-.11,.15-.18-.07c-3-1.16-5.76-2.23-8.2-3.19h-.12v-.12c-.55-3.52-1-6.45-1.35-8.58-.15-1-.26-1.74-.35-2.34-.05-.26-.08-.52-.08-.79Z"/>
    <path class="cls-13" d="M125.04,307.32c.02,.27,.02,.53,0,.8,0,.61,0,1.39-.09,2.36-.1,2.16-.24,5.12-.41,8.68v.12l-.11,.06-7.81,4.07-.17,.09-.13-.14-4.72-4.89-1.14-1.17-.07-.08v-.06c0-4.11,.07-8,.09-11.34v-.34l.32,.13c1.83,.67,3.75,1.08,5.69,1.24,1.75,.19,3.28,.28,4.55,.34l2.94,.11c.33,0,.67,.02,1,.06-.33,.06-.66,.08-1,.08h-2.95c-1.27,0-2.82-.08-4.58-.24-1.99-.12-3.96-.52-5.84-1.19l.32-.21v11.34l-.07-.18,1.13,1.17,4.72,4.9-.3-.05,7.84-4-.12,.18c.26-3.5,.48-6.41,.63-8.53,.08-1,.15-1.79,.2-2.41,0-.3,.03-.6,.08-.9Z"/>
    <path class="cls-13" d="M133.96,320.77c-.3-.71-.5-1.45-.59-2.21-.35-1.81-.58-3.64-.69-5.48-.12-1.84-.12-3.68,0-5.52,0-.77,.12-1.53,.33-2.27,.16,0-.11,3.49,.15,7.76s.95,7.68,.8,7.72Z"/>
    <path class="cls-13" d="M159.58,325.51c-.23,.16-.49,.28-.76,.37-.71,.29-1.43,.53-2.17,.73-2.44,.67-4.97,1.01-7.5,1-2.53,0-5.06-.33-7.5-1-.74-.21-1.46-.45-2.17-.74-.27-.08-.53-.21-.76-.37,0-.09,1.15,.31,3,.75,4.87,1.14,9.95,1.14,14.82,0,1.88-.43,3.01-.83,3.04-.74Z"/>
    <path class="cls-16" d="M111.83,200.57s-13.8,7.54-17.84,9.31l5.51,26.37,8.68,31.63-5.82,33.36s20.46,3.62,30.49,2.32c13.73-1.78,31.23-6.83,31.23-6.83l-13.63-40.67,3.49-28.08-5.85-23.67-14.26-1.69-22-2.05Z"/>
    <g class="cls-17">
      <path d="M105.35,226.94c.93,1.85,3.06,2.74,5.06,3.29s4.14,1,5.71,2.31c2.78,2.42,2.7,7,5.27,9.61,1.7,1.72,4.23,2.33,6.53,1.58,1.42-.49,2.67-1.48,4.16-1.62,1-.1,2.06,.23,3.1,.15,2.91-.2,4.62-3.29,5.78-6s2.44-5.71,2.14-8.72c-.44-4.51-4.19-8.15-4.77-12.64-.21-1.67,0-3.36-.15-5s-.92-3.44-2.44-4.14"/>
    </g>
    <path class="cls-16" d="M160.33,197.36l-10.67-21.37,8.57-5.5s10.73,11.06,12.76,13.21c0,0,12.34,11.38,9.12,16.87-1.93,3.1-4.32,5.89-7.08,8.28l-12.7-11.49Z"/>
    <path class="cls-16" d="M93.99,209.88c-.19,.56-28.72,40-30.25,44.21-.08,.23-.16,.47-.24,.72-1.64,5.49-.28,11.44,3.58,15.68l23.53,26.24,10.28-11.89-16.36-28.83,15.63-17.25-6.17-28.88Z"/>
    <path class="cls-9" d="M111.87,286.6c-1,.06-2.69,1.38-3.46,2-.25,.21-.57,.31-.9,.29h0c-.54-.04-1.01-.41-1.16-.93l-1-3.43c-1.03,.09-1.96,.67-2.48,1.56l-1.13,1.94-2-1.88-9.15,10.45s3.6,3.89,5.89,3.95,13-8.77,13-8.77l2.85-2.5s2.34-2.85-.46-2.68Z"/>
    <path class="cls-16" d="M141.51,203.53l8.1,.36,11.53-8.82,16.32,9s-7.35,7.86-14.27,15.91c-5.59,6.51-9.57,10.58-9.57,10.58l-12.11-27.03Z"/>
    <path class="cls-14" d="M149.12,273.01c-.35,.44-.74,.85-1.16,1.23-.76,.77-1.92,1.84-3.39,3.12-7.7,6.65-16.5,11.9-26,15.52-1.82,.68-3.31,1.19-4.35,1.5-.53,.19-1.08,.33-1.64,.43,.51-.24,1.03-.45,1.57-.62,1-.37,2.49-.93,4.28-1.66,4.68-1.9,9.2-4.15,13.54-6.73,4.33-2.59,8.46-5.51,12.35-8.72,1.49-1.24,2.68-2.26,3.48-3,.41-.4,.85-.75,1.32-1.07Z"/>
    <path class="cls-14" d="M120.79,268.35c.12,.07-2.76,4.74-6.42,10.41s-6.74,10.2-6.86,10.13,2.75-4.74,6.42-10.42,6.74-10.2,6.86-10.12Z"/>
    <path class="cls-14" d="M152.65,228.34c-.07,0,0-1.16-.13-3s-.22-4.44-.48-7.28-.6-5.4-.95-7.23-.72-2.92-.64-2.95c.5,.89,.83,1.86,1,2.87,.53,2.39,.91,4.82,1.11,7.26,.26,2.86,.35,5.45,.33,7.33,.04,1.01-.04,2.01-.24,3Z"/>
    <path class="cls-14" d="M172.26,195.89c-.64-.21-1.27-.47-1.88-.77-1.49-.61-3.08-.95-4.69-1-1.6-.08-3.2,.29-4.6,1.07-1.05,.63-1.57,1.24-1.64,1.18,.34-.61,.84-1.13,1.44-1.49,1.43-.92,3.11-1.37,4.81-1.28,1.68,.06,3.32,.47,4.83,1.21,.64,.25,1.23,.61,1.73,1.08Z"/>
    <path class="cls-14" d="M167.09,191.33c0,.2-2.27-.06-4.48,1.37s-2.95,3.63-3.12,3.53c.05-.49,.22-.96,.48-1.37,.56-1.04,1.37-1.93,2.35-2.59,1-.64,2.14-1.02,3.33-1.08,.48-.07,.98-.02,1.44,.14Z"/>
    <g class="cls-17">
      <path d="M121.69,263.55c-.16-.93-.76-1.94-1.71-2s-1.75,1.11-2.17,2.11l-10,23.67-.35,1.54c4-6.37,8-12.49,12-18.86,1.31-1.95,2.6-4.16,2.23-6.46Z"/>
    </g>
    <g class="cls-17">
      <path d="M159.49,195.93c1.24-1.81,2.3-3.87,4.45-4.32,2.17-.45,4.44-.04,6.32,1.13,.41,.25,.85,.68,.7,1.14-.15,.34-.47,.56-.84,.59-1.89,.47-3.85-.08-5.78-.33-1.81-.22-3.6,.54-4.7,2"/>
    </g>
    <path class="cls-14" d="M98.48,234.55c-.49-.87-.88-1.79-1.18-2.74-1.65-4.52-2.78-9.22-3.35-14-.16-.99-.22-2-.18-3,.26,.96,.44,1.94,.55,2.93,.3,1.81,.76,4.31,1.41,7s1.37,5.15,1.92,6.91c.35,.94,.63,1.91,.83,2.9Z"/>
    <path class="cls-9" d="M113.43,208.55l20.25,.3-1.9-18.3s1.5,.75,1.79-6.75,1-20.22,1-20.22h0c-8.59-3.98-18.66-2.99-26.31,2.58l-1.13,.83,6.3,41.56Z"/>
    <path class="cls-9" d="M109.26,176.27c-.13-.06-5.11-1.67-5.09,3.46s5.17,4.05,5.18,3.9-.09-7.36-.09-7.36Z"/>
    <path class="cls-9" d="M133.36,175.85c.12-.05,4.73-1.16,4.42,4s-5.38,3.75-5.38,3.61,.96-7.61,.96-7.61Z"/>
    <path class="cls-14" d="M121.33,154.6s-7-.26-9.49,1c-4.15,2.12-7.37,8-7.43,15.34s3.25,17.21,8.61,22.11,9.6,5.79,9.6,5.79c0,0,11.35-6.19,12.62-15.25s2.13-17.78-1.41-22.17-9.93-6.71-12.5-6.82Z"/>
    <path class="cls-14" d="M105.35,175.67c-.41-4.64-.8-9.44,.66-13.86s5.26-8.43,9.92-8.61c1.49,.1,2.98,.1,4.47,0,1.25-.32,2.46-.77,3.62-1.33,2.04-.9,4.33-1.04,6.47-.4,2.16,.69,3.69,2.6,3.9,4.85-.11,.9-.07,1.81,.11,2.69,.47,.8,1.07,1.53,1.76,2.15,.86,1.21,1.21,2.7,1,4.16-.21,1.45-.61,2.88-1.18,4.23l-3.82,10.24"/>
    <path class="cls-14" d="M117.05,178.27c4.57-2.24,10.1-.36,12.34,4.22,.48,.97,.78,2.01,.89,3.08,.33,3,.33,3.52,2.29,5.86,1.21,1.45,2.38,1.36,3.8,2.59,1.86,1.69,2.38,4.41,1.29,6.67,3.67-.18,7.11-.42,8.36,3-5.48-1.13-11,4-16.45,2.85-1.76-.23-3.45-.85-4.94-1.81-1.62-1.22-2.5-3.16-3.32-5l-4.41-10c-1-2.25-2-4.59-2-7.05s1.45-5.07,3.83-5.69"/>
    <path class="cls-10" d="M114.84,181.62c-1.02-3.12,.05-6.55,2.66-8.54,2.78-1.78,6.37-1.64,9,.35,2.03,1.47,3.18,3.86,3.07,6.36-.18,2.41-2.1,4.33-4.51,4.5"/>
    <path class="cls-14" d="M126.86,176.65c-3.19-2.49-7.73-2.26-10.66,.53-2.61,2.62-2.88,8-2.08,11.63,.85,3.89,3.23,7.66,2.44,11.56-.48,2.38-2.11,4.79-1.17,7,.77,1.81,2.91,2.6,4.07,4.18,1.71,2.33,.86,5.6-.28,8.25s-2.56,5.51-1.76,8.29c.62,2.15,2.43,3.7,3.88,5.41s2.61,4.11,1.64,6.13c2.53,1.88,6.11,1.36,7.99-1.17,.98-1.31,1.35-2.98,1.01-4.58,1.15,1.18,1.83,2.74,1.92,4.39,5.07-.42,8.84-4.87,8.41-9.94-.12-1.49-.61-2.93-1.41-4.19-1.24-1.94-3.24-3.51-3.66-5.77-.5-2.7,1.45-5.34,1.2-8.07-.23-2.45-2.16-4.38-4.14-5.84s-4.19-2.78-5.47-4.88c-2.07-3.4-1.11-7.73-.31-11.63s1.19-8.5-1.61-11.33"/>
    <path class="cls-14" d="M115.04,179.03c-2.77,1.87-3,5.84-2.57,9.16s.92,7.05-1.12,9.7c-1.38,1.78-3.79,2.81-4.49,5-.86,2.61,1.28,5.23,1.53,8,.03,2-.53,3.96-1.61,5.64-1.07,1.67-1.92,3.47-2.52,5.36-.59,1.94-.05,4.05,1.41,5.47,1.03,.72,2.23,1.15,3.48,1.25,4.43,.68,8.93,.66,13.35-.05,1.32-5.43,2.64-10.92,2.64-16.5,0-11.1-5.25-21.67-5.39-32.76"/>
    <path class="cls-13" d="M122.81,235.93c-.17-.15-.32-.32-.45-.5l-1.24-1.49c-1.55-1.8-3-3.69-4.35-5.65-.93-1.37-1.66-2.88-2.15-4.47-.58-1.85-.54-3.84,.11-5.67,.79-1.94,1.73-3.81,2.83-5.6,1-1.86,2-3.95,1.75-6.18s-1.69-4.05-2.35-6.17c-.17-.53-.28-1.09-.3-1.65,0-.56,.08-1.11,.26-1.64,.41-.96,1-1.84,1.74-2.59,.66-.69,1.26-1.43,1.78-2.23,.44-.76,.69-1.62,.72-2.5-.02-1.62-.31-3.22-.88-4.74-.45-1.29-.74-2.64-.85-4-.05-1.04,.17-2.07,.62-3,.29-.59,.73-1.11,1.26-1.5,.19-.13,.39-.24,.61-.31-.73,.46-1.32,1.12-1.68,1.9-.42,.91-.6,1.92-.52,2.92,.15,1.33,.45,2.64,.91,3.9,.62,1.55,.95,3.19,1,4.86-.02,.96-.28,1.89-.75,2.72-.53,.83-1.14,1.6-1.82,2.31-.69,.71-1.24,1.54-1.63,2.45-.16,.47-.24,.96-.23,1.46,.03,.51,.13,1.01,.28,1.5,.62,2,2.15,3.85,2.39,6.28,.12,1.17-.03,2.35-.43,3.45-.38,1.04-.85,2.04-1.4,3-1.09,1.75-2.03,3.59-2.81,5.5-.64,1.74-.69,3.64-.15,5.41,.45,1.55,1.12,3.03,2,4.38,1.61,2.52,3.19,4.38,4.2,5.72,.51,.67,.91,1.19,1.16,1.55,.14,.18,.27,.37,.37,.58Z"/>
    <path class="cls-13" d="M111.91,197.36c.51-1.2,.87-2.46,1.07-3.75,.18-1.4,.23-2.82,.17-4.23,0-1.6-.16-3.38-.06-5.26,.05-1.79,.49-3.54,1.29-5.14,.69-1.29,1.73-2.37,3-3.1,.88-.5,1.87-.75,2.88-.72,.27,.01,.53,.06,.79,.13,.09,.02,.18,.05,.26,.1-.33,.02-.67,.02-1,0-.94,.04-1.86,.32-2.66,.82-1.18,.73-2.15,1.77-2.8,3-.74,1.57-1.15,3.27-1.19,5-.1,1.84,0,3.6,0,5.22,.04,1.44-.05,2.88-.28,4.3-.16,.96-.45,1.9-.87,2.78-.15,.32-.35,.6-.6,.85Z"/>
    <path class="cls-13" d="M141.34,233.16c0-.21,.03-.43,.07-.64,.05-.61,.05-1.22,0-1.83-.21-2.24-.74-4.44-1.58-6.52-.57-1.27-1.47-2.6-2.14-4.16-.37-.81-.64-1.67-.78-2.55-.15-.93-.15-1.89,0-2.82,.14-1,.36-1.9,.48-2.86,.14-.98,.12-1.98-.06-2.95-.37-2.05-1.38-3.94-2.89-5.38-1.52-1.48-3.65-2.16-5.22-3.64-1.45-1.45-2.4-3.32-2.71-5.35-.31-1.79-.37-3.61-.18-5.41,.13-1.69,.33-3.25,.43-4.67,.11-1.27,.09-2.55-.05-3.82-.11-.95-.48-1.85-1.06-2.61-.51-.63-1.21-1.06-2-1.24,.22-.01,.43,.02,.64,.09,.6,.18,1.14,.53,1.56,1,.65,.76,1.06,1.7,1.2,2.69,.17,1.29,.22,2.59,.13,3.89-.08,1.44-.26,3-.37,4.68-.16,1.77-.09,3.54,.22,5.29,.31,1.92,1.21,3.69,2.59,5.07,1.45,1.38,3.58,2.05,5.23,3.63,1.58,1.52,2.63,3.51,3,5.67,.18,1.02,.2,2.07,.06,3.1-.14,1-.36,1.95-.5,2.87-.17,.89-.19,1.8-.07,2.69,.14,.84,.38,1.66,.72,2.44,.64,1.54,1.51,2.84,2.09,4.19,.83,2.13,1.31,4.37,1.44,6.65,.04,.62,.01,1.24-.08,1.85,0,.21-.09,.37-.11,.47s-.05,.18-.06,.18Z"/>
    <path class="cls-13" d="M137.37,204.93c.17-.4,.31-.82,.43-1.24,.24-1.17,.17-2.38-.2-3.51-.63-1.65-1.86-3-3.45-3.78-1.03-.37-1.97-.98-2.72-1.78-.69-.94-1.27-1.97-1.71-3.05-.71-2.13-.99-4.37-.82-6.61,.11-1.78-.1-3.56-.63-5.26-.39-1.13-1.08-2.13-2-2.88-.36-.25-.73-.49-1.11-.7,0,0,.12,0,.34,.08,.31,.12,.61,.27,.89,.46,1.02,.72,1.81,1.74,2.24,2.91,.6,1.73,.86,3.56,.77,5.39-.14,2.17,.14,4.35,.82,6.41,.43,1.03,.97,2.01,1.62,2.92,.33,.39,.73,.73,1.17,1,.44,.27,.91,.45,1.38,.69,1.68,.85,2.96,2.31,3.58,4.09,.36,1.2,.38,2.47,.05,3.68-.09,.32-.23,.63-.41,.92-.15,.18-.23,.27-.24,.26Z"/>
    <path class="cls-13" d="M113.43,177.86c-.73-.29-1.41-.71-2-1.24-3.08-2.48-4.95-6.15-5.14-10.1-.08-.8-.01-1.61,.21-2.39,.09,0,0,.92,.15,2.36,.39,3.79,2.17,7.3,5,9.85,1.05,.97,1.83,1.44,1.78,1.52Z"/>
    <path class="cls-13" d="M112.5,179.22c-1.28-.37-2.48-.99-3.52-1.82-1.14-.69-2.14-1.59-2.94-2.66,1.13,.67,2.21,1.41,3.23,2.23,1.13,.68,2.2,1.43,3.23,2.25Z"/>
    <path class="cls-13" d="M134.4,166.09c-.36,4.2-2.49,8.05-5.84,10.6,1.32-1.55,2.52-3.2,3.59-4.93,.9-1.83,1.66-3.72,2.25-5.67Z"/>
    <path class="cls-13" d="M136.03,170.07c-.61,3.35-2.06,6.48-4.23,9.1-.13-.09,1.07-2,2.23-4.5s1.85-4.64,2-4.6Z"/>
    <path class="cls-13" d="M133.67,157.16c-.37-.61-.71-1.25-1-1.9-.34-.67-.8-1.27-1.35-1.77-.66-.6-1.53-.93-2.43-.92-1.67,.14-3.23,.91-4.36,2.15-.47,.53-.99,1.03-1.55,1.47,.34-.64,.77-1.23,1.29-1.73,.53-.59,1.13-1.11,1.8-1.54,.84-.54,1.82-.84,2.82-.87,1.02-.01,2.01,.37,2.75,1.08,.58,.57,1.04,1.25,1.36,2,.34,.63,.57,1.32,.67,2.03Z"/>
    <path class="cls-13" d="M131.65,235.26c-.17-.12-.33-.26-.48-.41-.3-.29-.73-.71-1.26-1.29-.65-.71-1.23-1.46-1.75-2.27-.7-1.08-1.13-2.31-1.25-3.59-.04-.75,.06-1.51,.29-2.23,.26-.76,.59-1.48,1-2.17,.81-1.42,1.81-2.91,1.86-4.71,0-1.9-.55-3.75-1.57-5.35-1-1.7-2.35-3.29-3.54-5.07-1.22-1.73-2.04-3.71-2.38-5.8-.28-1.93-.31-3.9-.1-5.84,.37-3.69,1.1-6.93,1.21-9.71,.18-2.18-.03-4.38-.63-6.49-.47-1.47-.94-2.21-.89-2.24,.14,.16,.25,.34,.34,.53,.3,.53,.55,1.08,.74,1.65,.69,2.12,.96,4.35,.81,6.57-.07,2.81-.76,6.09-1.1,9.74-.2,1.9-.16,3.81,.12,5.7,.34,2.02,1.13,3.93,2.31,5.6,1.17,1.75,2.53,3.34,3.56,5.11,1.06,1.68,1.61,3.63,1.6,5.62-.07,2-1.16,3.52-2,4.9-.4,.66-.74,1.36-1,2.09-.23,.67-.33,1.37-.3,2.08,.1,1.23,.48,2.41,1.13,3.46,.49,.81,1.04,1.57,1.65,2.29,.5,.6,.91,1,1.19,1.34,.16,.15,.31,.31,.44,.49Z"/>
  </g>
  <g id="freepik--Floor--inject-6">
    <path class="cls-14" d="M471.33,469.93c0,.15-100.78,.26-225.07,.26s-225.09-.11-225.09-.26,100.76-.26,225.09-.26,225.07,.12,225.07,.26Z"/>
  </g>
</svg>